<mxfile host="65bd71144e">
    <diagram name="Page-1" id="gA10DJnp5t3XMjaqlYap">
        <mxGraphModel dx="1212" dy="884" grid="0" gridSize="10" guides="1" tooltips="1" connect="1" arrows="1" fold="1" page="1" pageScale="1" pageWidth="1169" pageHeight="827" math="0" shadow="0">
            <root>
                <mxCell id="0"/>
                <mxCell id="1" parent="0"/>
                <mxCell id="Nq8qzwTheRj5d9ls6jJi-1" value="" style="shape=image;verticalLabelPosition=bottom;labelBackgroundColor=default;verticalAlign=top;aspect=fixed;imageAspect=0;image=data:image/png,iVBORw0KGgoAAAANSUhEUgAAAvQAAAJECAIAAAD2dCc0AAAACXBIWXMAAA7EAAAOxAGVKw4bAAAgAElEQVR4nOydd1wUx///30c7iiAoVak2wIpi7wi2WGOLGkRjj7GXaNTEEk3BhiUYe8nHgt0YOxoEoqKogKCIgEqxUKW34/b3x3yzv81eYW/vgOV8P//gcTc7O/uamfe+ed/M7KyIoihAEARBEATRFnRqWwCCIAiCIIgmweAGQRAEQRCtAoMbBEEQBEG0CgxuEARBEATRKjC4QRAEQRBEq8DgBkEQBEEQrQKDGwRBEARBtAoMbhAEQRAE0SowuEEQBEEQRKvA4AZBEARBEK0CgxsEQRAEQbQKDG4QBEEQBNEqMLhBEARBEESrwOAGQRAEQRCtAoMbBEEQBEG0CgxuEARBEATRKjC4QRAEQRBEq8DgBkEQBEEQrQKDGwRBEARBtAoMbhAEQRAE0Sr0alsAgiAaJj4+/tGjR1xytm7dul27dqzEo0ePduvWrXnz5nJPefjwYUJCAitRX1/fxsbG1tbWxcXFwMCAeSgkJCQ9PZ2V39vb29bWVrZwuZll6dixo6urq5IM9+/fT0pKYqbo6OhMmDCBmXLp0qX8/Hz664ABA6ysrKq8NIIgdQIMbhBE27h48eKKFSt0dXU7duxoZWVlaGgYFhb24cMHCwsLb2/vsrKynJycyMjIsrKyZcuWsYIbiUSycuXKESNG/Pbbb3ILd3Z2LiwsXLNmTVhYGAB069ate/fuHz9+fP36dWhoqKmp6aRJk7799ttGjRqR/E2bNk1PT58zZw6JJCZPnjxnzhxzc3O5hbMyjx492s7OjhwqLy/Py8sLCwt7+/bttm3blAc3zs7OoaGhy5cvJ183btw4btw4Vp5WrVodOXJk/fr1NjY2R44cMTMzU9qoCILUKSgEQbSLNWvW2NraJicn0ymDBg0CgI4dO9IpGRkZbm5uc+fOZZ0bFBQEACYmJjk5OUouce3aNeJAzp49SyempKT06dMHANzc3DIzM5n5J0+eTPIXFBRUqZ9k1tfXr6ysZB2SSCR9+/b19/evshCKoqZMmUIu+vfff8vN8O7dOwA4cuQIl9IQBKlD4JobBNE2SktLf/jhBxcXFyV5rKysNm7cWFpaykrftWuXjo5OUVHR/v37lZzeoEED8kFXV5dOdHBwOH36tKGhYXx8/I4dO5j5GzZsCABisbhevXpV6ieZdXV1dXTYDkpXV3fBggXl5eVVFgIA69atI3Nk//vf/+Rm+Pvvv+3s7FjTVQiCaAEY3CCItlG/fv2hQ4dWma1///4kjKCJjo5OTk5esGABAOzcuVMikSg6VzbsIFhZWbVp0wYA7t+/L5tfJBJxkK+wcMJnn302c+ZMLuU4OjqSwOXYsWOZmZmyGY4cOTJ16lR9fX0upSEIUofA4AZBtI3vvvvOwcGhymympqa//PILM2XXrl0zZ86cP3++jo5OamrquXPneFy9oqICAIyNjXmcWyVkoQ/3lb+LFy8GgNLS0t27d7MOvXr1Kjg4eNq0aZpViCCIEMDgBkEQAICcnJzTp0/PnDnT2dl5yJAhABAQEKBqIdHR0bGxsQAwatQozUsE2LhxY0lJCff8bdu29fHxAYDffvutrKyMeWjfvn3e3t7KJ+8QBKmjYHCDIAgAwMGDBwcPHkye0J47dy4A3Lt3LyIiQvlZJSUlRUVFBQUFL1682LNnz+DBgwFg1apVfn5+auqhKOrDv7x//z4uLm7Lli03b95UtZwlS5YAQEZGBnPlTUVFxaFDh2bMmKGmSARBhAk+Co4gCEil0sDAwKNHj5Kv/fv3b9GiRUJCQkBAwIkTJ5ScOHXqVJFIVFJSQlEUANja2h48eFAjS3TLyspat25NPlMUVVhYyBp64cjAgQNbtmz57NmzrVu3ErUAcPHixcrKyhEjRqivE0EQAYIjNwiCwF9//WVqatqzZ0/yVSQSffPNNwBw5syZtLQ0JSeeOHGiqKiooqIiISFh7969pqamfn5+bdu25biLoBIMDQ0z/yUrK6u0tDQkJIS1QyAXRCIRWXnz7Nmz69evk8S9e/dOmTIFlxIjiLaCwQ2CILBr1y5XV9djDMgz3hKJRNFufkx0dXWbN28+Y8aMR48etW3b9vnz58OGDcvOztasyD59+pDFQKri6+trY2MDAFu2bAGA5OTkW7duTZ8+XbPyEAQRDhjcIMinTnx8/P3793V1df9iEB4e7ubmBgB79+4tLi7mWJSpqemyZcsA4N27d3/88YfGpf70008mJiaqniUWi8lAVHBwcExMzN69e3v37t2iRQuNy0MQRCDgmhsE+dTZtWuXr69vYGAgK/3OnTt9+/bNyck5evTo7NmzOZbWpEkT8uHZs2cqyXj8+HGHDh2U5yHxFgC8efPGycmJe+Fff/31zz//XFJS8ssvv9y6dWvbtm0qaUMQpG6BIzcI8kmTm5t7+PBhuc8N9enTh+zIt337drJemAtxcXHkg/LXP7G4c+eOon2EZTl79uzWrVu5Fw4AlpaW5AGuEydOSCSS0aNHq3Q6giB1CwxuEET7Ia9ZINvrsdi5c2fTpk3bt28v90SyF3B8fPzly5eZ6XKLIhc6cuQIAJiYmIwcOZJOV/7ChHfv3s2ePXvAgAFcMr99+3bJkiVk9xqVWLRoEXlUys/PTywWq3o6giB1CAxuEETLqaysTExMBICUlBTWy6TS09M3bdqkZIile/fu5MP333/PfBtDQkIC+fD48WPyobi4+MaNG4MGDfrnn3/09fX37NnTtGlTOv/z588BoLS0lB7XAYCPHz8+fvw4ICDA3d391atX5KWbdOaysrKUlBQ6M0VR79+/P3jwYNeuXdPT0+nM3HF1dSVvpcClxAii/dTqazsRBKlGysvLV6xY0aVLF/p+9/Dw+Pbbb8kru0+fPk3iD7FYPHXqVOZbxAk7duzo0aMHfW67du1CQkKuXLkya9Ysc3NzOt3U1NTQ0FAkEtnb2/fp02fBggVxcXF0IUePHiU7+9Ho6uoaGhqyHuru37+/3MxisbhBgwb169dnvnCqe/fu/Brk77//7tGjB9/mRBCkziCiOE+lIwiC1HVev37t7Oxc2yoQBKleMLhBEARBEESrwDU3CIIgCIJoFRjcIAiCIAiiVWBwgyAIgiCIVoHBDYIgCIIgWgUGNwiCIAiCaBUY3CAIgiAIolVgcIMgCIIgiFaBwQ2CIAiCIFqFXm0L0EIqKipu3rwZEhJC3oxjbW3t6enZu3dvFxcXf3//KVOmWFtb17ZGhUgkkmPHjt29e7egoMDV1XXQoEGdOnUKCAiYPn26mZlZbasTHFKpNCgoyMbGpl+/fjxOLygoOHz4cFRUFEVRnp6e06ZNMzQ05KckJCQkPT29ymwdO3ZU6WXdiGC5f/9+UlISK9Ha2trV1dXe3p75tgoE+QTBHYo1zK1bt+bNm5eYmPjFF194eXmZm5s/e/YsODj4zp07JiYmRUVF8fHxgv3vkpGR4ePjk56evmjRombNmsXExBw9ejQvL6+wsDA2NrZVq1a1LVBAUBR1+vTptWvXPn/+fP/+/dOmTVO1hPDw8PHjx4vFYiMjoxcvXkgkkmbNmkVERDRo0ICHntTU1NDQ0Dlz5uTn5wPAmDFjbG1tyaHy8vK8vLywsLC3b99u27Zt4cKFPMpHhMb79+9Jj2dnZwPAmDFjTE1N09PT79+/X15e3rt375UrV/J4vSiCaAm1+mYrrUIikUyePBkAbG1tw8PDWUePHDlSr149AHj8+HGtyOPCkCFDAOD+/ft0SnZ29qBBgwDgxo0btShMaHz48GH79u0BAQGkT/fv369qCWlpaR06dLh37x75mpCQ0Lx5cwCYO3euOsKIBerr60ulUtYhiUTSt29ff39/dcpHhMbMmTOJJ6+oqCApeXl5y5YtAwAdHZ0DBw7UrjwEqS1wWkpjzJ0798iRI8bGxhEREY6Ojqyjfn5+hoaGX3zxRXFxsaIScnNzi4qK7O3tlV8oMzPz4cOHDRs29PDwEIvF0dHR7dq1I4fy8vIkEomiE/X19ZVMLeXl5V25cqVBgwbMl0g3aNDg1KlTHTp0YE55FBcXl5SUKFEoFovJf/38/PyKigo6XUdHx8LCgnwuLCwsKyujDzVs2LCgoKC8vJxOEYlEpqam+vr6iq7CKgEA6tevX1RUpGoLKGlPRVhbW8+fPx8Azp49GxYWpjyzXAIDA0+dOkVeyg0AzZs39/f3//zzzx88eMCjNJqGDRsCgK6urkgkYh3S1dUl7+uWPSspKSk+Pr6srMzJyal9+/asGQ1WvwCAhYWFolkPfhZYUFAQExOTk5Pj7u7u4uKiq6v7/PlzZ2dnIyMjueVwuVOUdCt3A+ZSmtzqMFvM0NDQxMSEfK6oqCBDawCgp6dXv359fpegoW8oPb3/c+ZmZmb+/v4xMTHXr19fuHDhiBEjGjZsyLFfqruvNWhpTN9Sv359uvoscnNzpVIp+dygQQPZ+0K5LdF1NDAwMDU1VaKW3HqsDEqsWh1fjXCitqMrLeHu3bukPZcvX64km7e3t5IhkPXr10+ZMkX5hQIDAy0tLefMmbN8+fLOnTt37drV3t6ePnrjxo3PP/+cKPHx8RkzZsyYMWNGjhzZu3dvAwMDLy8vJSWTf6sikSg1NVX2ohs2bKC/LliwAADs7Oy6dOnSt29f4n169erVrVs3BwcHAJg8eTLJGRISMmPGDKJn2LBh58+fpwu5e/fupEmTAKB9+/aHDx+mKCosLGzWrFkkc4cOHUaOHNmxY0cnJycfH58tW7Z8/PiRpSoiImLt2rW6uroA0KZNmwMHDmRnZ6vaAsrbs0p8fHyA18jNs2fPZFMAYMiQIaoWxWTp0qUAYGhoKPdoWVlZRkYGMyU2NpbUesOGDbt27Ro7dqytre327dsrKyvpPOHh4V9++SVp0q5du44cObJLly7u7u6+vr5ktRATVdv/2bNnPj4+dnZ2EyZM+Omnn2bMmOHs7NypUycLC4vXr18rqmaVd4rybuVuwFxKk+XKlSvt27cnjbBs2bLo6Gj6UEZGxvbt23V0dJo0aRIUFMT7EjQrVqyQ68kDAgJI+tWrVynO/cK7r/v376+8rzVuaXfu3Fm0aBHJvHnzZrmN8+rVK+IfXF1d9+/fX1ZWJptHuS1duXKlb9++AFC/fv2EhATmobt375LJ6NatWxMPRsPFqtXx1QgXMLjRDMOHDwcAfX39zMxMJdlOnjypKLipqKho1KiRWCx+//69otMfPHigo6Nz8uRJ8rWyspK4tuLiYjrP27dvQd7ExNOnT/v27atEGzkRALy8vAoLC5mHsrKyzp07R3+dOXPmkiVLaK9E1sDSp/z8889jx46lM1dWVhoYGADAq1evWFesrKy0traOiIigU6RSKcmclpZGUkpKSvbu3WttbW1ubn7hwgVZ2d27dweAEydO8GgBLu2pHN7BjSzHjx/X09MLCQmRPVRUVHT37l3ZmSZZlAQ3169fZ6UcOnRILBYvX76c+Q/m+vXrBgYGo0ePZibS4xz5+fkkJTIy0sLCwsDA4MGDB6xiubf/gQMH9PX1Bw0alJOTQyfm5OSMHDkSAGTjP0KVd0qV3aqSAfMzknfv3pHRmtDQUNYhqVTaoEGD27dvq3kJgqLg5vjx4yT91KlTJIVjv1RHX1eTpVEU1ahRIwCwt7cvLy+XPbp48WLiT/bu3St7lOLmdUtLSxs3bgwArVq1KigoYB4iHox1Z3G3at6+GuECBjcaoKSkxNjYGACaN2/Ou5CgoCAyNLpmzRpFedauXQsAsbGxdIpUKu3Tp09iYiKdUlBQoOjf244dO5Rr+Oyzz4hn8fDwiImJUZRt2rRpeXl59FfW/4by8vIJEyYw85Oxd7lhX4cOHVgDRSRzVlYWM/Hly5c2NjY6OjqyDm7gwIEAcOnSJTqFewtwaU/laCq4yc/Pb9++PTOCZNKjRw8A+P7776ssR1FwU15e3qVLF2ZKUlKSkZFRt27dZGOmH374AQB+//13ZiL5BVxaWkqnrFu3DgCYcQCBY/s/e/bMyMioSZMm9GIRmpKSEnd398jISLl1rPJOqbJbVTJg3kby7bffAoDsqEBkZGTbtm1VEqwERcHNqlWrAEAkEiUlJZEU7veFZvu6+iyNoihXV9fWrVsDwJEjR2S1NW3alPg05o8fJly8LkVRbm5u5HGKMWPGsA55enq+fPmS/qqSVavjq5EqwccFNcCLFy/IShp6CQUPAgMDL168aGxsvHv3btZSEhoyxRsYGEiniESihQsXfvz4kZki99ycnJx58+Yp17Bnz54WLVoAQFRUVIcOHZYsWVJYWCibbcWKFUrmg/X19YkzYkmSK8zAwIC1qkZutmbNmgUEBEil0hkzZrAmqmUL594CXNqzBoiMjOzcufP79+/JnJFshqKiIvovFyiK+vAv7969i4uLmzNnTl5eHjPPggULSkpKZsyYIdtcs2fPBoDVq1czT5HNRn7OpqWlsdI5tr+fn19JSckPP/wgu1rC0NDwm2++UbQ6rco7pcpuVcmAeRvJ/Pnz9fX1T5w48eHDB2b6oUOH6LlaNS+hiPT09N27dwPAhAkTmjRpQpcpN7PsfaHZvq4+SyOZSUC/adMm1qGDBw9OnDiR/OxUpJOL1yWcPXvW0tLyzJkzv/zyCzPdyMiIuTJMJatWx1cjVVPb0ZU2cOPGDdKYs2bN4ldCdHT0sGHDKIoiXu/QoUNys92/f59caPr06awBUhoSjrB+DUgkkq+//pqLkoyMjC+++II2DwcHB+agiFxYP3xlMTc3B5nBGELXrl1ZA8KKMldUVJAle6zBG/Iw119//UWncG8BLu2pHDVHbjIzM6dPn85civjNN9/IZsvOzr527ZrcgXcWxNEDgOW/WFhYkJ/Cbm5udLaKigqxWAwAT548kVsOWaZKlmsQiLNm/p4mT2bNnz+fdS6X9icLjADgw4cPcgWUl5czr0XD5U5RtVuVG7A6RkJWlTGH3IqKimxtbXNzczV1CXrk5vnz50lJSaGhob/++quVlRUADB06lFka9/tCzb5++fLlL7/8Qj5Xq6VRFOXm5lZYWOjs7AwAV65codMrKytbtmz5/v37MWPGAAA95ceEo9clVyktLb19+7aenp6Ojs61a9foQz179qTn0FW1ajV9NaIcDG40AB3cVLkcWBEzZswgN0x0dDQAtGvXTlFOf39/ci17e/uzZ8/KZiA3jL6+/rV/OX36tK+v7/jx47nruXbtmouLC7mQSCTaunWrksw1E9xQFDV48GDZSEJRcMOxBapsT+VoalrqyZMnZEsSkUj08OFD3uXInZaSSCSbN29mBje0F2bOzjDp3LkzADD7nfkvJyMjY/Xq1QDQpk0b5sICApf2/9///gcA9erVU7WCHO8Ulbq1SgPmbSRRUVEA0LBhQ3r1zMGDB/38/DR4CTq4adWqVZMmTdq1a+ft7T1v3jzZ3Si43xe8+/rq1aunT5/u27cvHdxUq6VR/4Yd27dvBwDmOpWLFy9OnTqVoiglwQ13r0uuQv27TLtBgwb0ZB8zuFHVqjXiqxFF4LSUBqB3S8vIyOBxem5u7oMHDwYMGAAAbdu27d27d3R0dEhIiNzMy5Ytu3HjRvPmzdPS0kaPHj1y5EgycctCKpWG/Et4ePiTJ09UkjRw4MDY2NilS5eKRCKKohYvXnz27FnVa6ZhLC0tAeD169dcMnNsAY7tyQOpVHpMBkUPf3p4eFy7ds3T05OiqCtXrmhEAI2uru6SJUtsbGzoFNKGJiYmimZnyENDb968YaV/9tln7u7ujRo1evDgwfHjxx8/fkw/isxCefvn5uYC4zFmjnC/UzTbrbxLI6FGdnb20aNHScqePXtYc1KaEhwbG5uUlBQVFRUcHLxjxw6yTksW7p6BX1/fvn37xYsX9KEasDQAmDZtmoWFRUhIyMOHD0lKQEAA/SyVXFTyujQLFizw8/PLycn5/PPPZadN+Vm1mr4aUUhtR1faQEVFBdkCwcrKisfpmzdvXrNmTda/7NmzBwCGDx+u5JSSkpJVq1aR1SodO3ZkPuIod6gzKytr0qRJPLTt3LmT2EnTpk0V5amxkZuhQ4cCwPbt25mJHKellLeAkvZUjpKRm9LSUtnbTUkrURR1+vRpkHkOWSWUPC3FfCCZ/veTnZ0ttxzyNomAgAA6hf49TezT3d1d0W9xLu3/559/AoCOjk5JSQn32ql6p3Ds1ioNWKXSWJBQ1dXVVSqVRkVFubu7a/YSihYUy8L9vlCzr8PDw+mRm2q1NIoxprJy5Ur4d9FxVFTUwIEDSQZFIzcq2RJ9FYqiSkpKPD09AYCsOmeO3Khq1Zr11QgLDG40w9SpU8k9zHywmQtkbtjnv9SrV09HR4e5CF8uwcHBxC9v27aNTpR7w1AURW+Gq4jPP/9c7sPG9BIcRe6pyv8NdnZ2ACD3Ycv27duzFhkoCW7IzPqjR4+YiRyDG4pDC8htT+UoCW6kUmmkDMynXmV5+fIlADC3FFIV5fvc0EgkErISQlGbODk5AcCtW7foFOZkgZ+fHwAMHTpUbnW4tD+pKQA8ffqUY9V43ylVdivH4IZjaSykUmnLli0B4NKlS3PmzFE+w8vjEmoGN5S8+0LNvpZIJPTUarVaGsUIO969eycWi3V1dRMTE6dMmUI/ni03uFHVlpjBDUVRKSkp5P2AW7ZsYQY3qlo1b0+FcAGDG83w9u1bsq3F559/rjwn61fIn3/+KRunk39RrAV0b9++/fHHH1k5yUOk48aNo1MU3TAEJbFXjx49zpw5I5tOBm/EYjHvH75khPz58+eyh1xdXVkpioIbMmLs7e3NSuce3BDoFuDYnsrR4D431L9bQTKXK6oKx+CGoqjx48eDzFO4hMTERACwsbGh9xqh/vsvp7i4uG3btgCwatUq2dO5tH9lZSV5tjYwMJBj1TjeKTy6VYkBa8RI9u/fDwDdunWzsrKSNWw1L6F+cENgegZN9TWh+iyN+m/YQbbUGzNmDJneJcgNbrh7XdmrEO7cuaOvr6+rq2tpaUkHN6paNW9fjXABgxuN8fPPPxMvo2iLgpKSEj8/P9ZqwV69et25c4eVMzk5GQDq1avH3JZXKpXa2tqyxj+CgoLgv9siK9k7ITw8fM6cOYr0T5kyxd7e/u3bt6x0sl1Hv379FJ1ItslS8pQHeaxRNgJISkqS3ZBX7j43WVlZrq6uFhYWsrsnq7TPDbMFOLancsiguqaCm++++65fv36yP1LT0tKOHz9eVFRUZQlz584FAD09vSpzpqSkGBsbe3h4yF5uzpw5ILM1CHnkih5vT0hIIKsomNvsEji2/82bNwHA2dmZ9egQ4c2bN6yF1RzvFB7dqsSANWIkpaWlZMETa/8njVyCXlkiu7EKC+6egXtfk1dJiMViJdetPkujKMrFxYUOjJ49e0Yerj548CCdYdSoUbKX4O51Za9Cs2vXLtLydHBDqWjVvH01wgUMbjTJ2rVryd01YsSI+Ph4Or24uPjEiRNt27b9448/mPmDg4NNTU3lTgaR3yusn3StW7fu1q0b894bN26ciYkJ81pkaZ6uri7ryeHQ0FA7OztF28RRFLVhwwYA8PDwiIuLoxOjo6NNTU1NTU1ZW4/T0MseU1JSFJX87t07U1NTa2tr5uOgr169at26NeuZjvLycvK7jd7OuLCw8OjRo05OTvb29rL+iPr3aQvmFl7cW4BLeypBKpWSZ8qYKwY44uvr6+npefz4cbr3b9682apVK9ngkqKoNm3aAMCCBQuqLLZ///6kO+inOZRw5syZ+vXrz507l9lQ//vf/3R0dFjXojdceffuHZ147tw5ADA2Nmbttse9/X/99VcDA4NOnToxDaOysvLkyZNjx45lBnMq3SkqdWuVBqymkRDWr18PAMxdiTV1iREjRhD9zD0A5cKxX1Tqa3p1v/LIu5osrbi42NjYmPlmhqFDh9rY2DBHWXr37s0aSlHV68pehYasRmAGN5QqVs3bVyNcwOBGw0RFRY0ePZrsHGVhYdG1a1cPDw8HB4eZM2eyRh3Onz9P9g5ftmwZc1+E0tLSzZs3kyX3hoaG3333HX1o5MiRI0aM6NGjx8KFCzds2NCnTx9XV1fmhv1nzpwhYwnk10OvXr369evXuXNnciEdHR25vycIQUFB7dq1++qrr5o1a+bj4/P1118PHTpUT0+vT58+iqaQjx8/Tl4kToZ2FO1xTlHUkydPunXrJhaLu3Tp8uWXX7Zv397DwyM4OJiZ58qVK6NHjyalOTk59ejRo3v37v369fPz8zt48KDsVvS3bt1atGgRiSZdXFx+/fXX9+/fq9QCVbanIkpLSwMDA8mINwA0btx448aNly9frvJEmokTJ5JzW7VqNWvWLD8/vx07diia+PPy8gKAjRs3Kinwjz/+oPuCNMjixYvT09OVy3jz5s2QIUNatmy5ZMmS1atXDxw4sEOHDqz/wdeuXaNL7t+/P/NHMHn7tKmp6ffffy+RSCjVLTAqKqpHjx56enqenp4TJ07s27evh4fHtm3bSGkEVe8U7t3KxYB5GwmTzMzMNm3aKHqBBr9LnD9/fuTIkfRGcI6OjosWLXrx4oXczBz7RdW+9vb2JpmHDh0qd1KbRuOWdurUKTIp3LZtW7rj7ty5Q4cmT548WbRoERkHcnR09Pf3Ly0tVdWW5F6FeVaXLl1YwQ3FzarV8dUIF0SUvB1RETUpLS2NiYl5//69gYFBo0aNWrZsqeiltSrx+vVrsqg2Ly8vLi7OxsbGxcVF0VtzVSUrK4veDuvFixfJycl6enqtW7cmy4E1Qk5OTlJSUmlpqYODA7lQ7VKt7Vkl5NldCwsLd3d3suuaIiQSSVJSkqurazUpyc7OTkhIMDQ0bNmyJVn+WcNkZGQkJyeXl5fb29vTO+ryRrPdqqnSMjMzFfVy7dphTVLrlqZxcnJy6tWrR2Y2WWjWqhFVweAGQblpY6AAACAASURBVBAEQRCtQgt/HCAIgiAI8imDwQ2CIAiCIFoFBjcIgiAIgmgVGNwgCIIgCKJVYHCDIAiCIIhWgcENgiAIgiBaBQY3CIIgCIJoFRjcIAiCIAiiVWBwgyAIgiCIVoHBDYIgCIIgWgUGNwiCIAiCaBUY3CAIgiAIolVgcIMgCIIgiFaBwQ2CIAiCIFoFBjcIgiAIgmgVGNwgCIIgCKJVYHCDIAiCIIhWgcENgiAIgiBaBQY3CIIgCIJoFRjcIAiCIAiiVWBwgyAIgiCIVoHBDYIgCIIgWgUGNwiCIAiCaBUY3CAIgiAIolVgcIMgCIIgiFaBwQ2CIAiCIFoFBjcIgiAIgmgVGNwgCIIgCKJVYHCDIAiCIIhWgcENgiAIgiBaBQY3CIIgCIJoFXpcMhUVFbm4uFS3FARBEARBkCr57bffxo4dqyQDp+BGLBb//vvvGpKEIAiCIAjCn06dOinPIKIoqmakIAiCIAiC1AC45gZBEARBEK2C07QUUqepqKi4efNmSEhISkoKAFhbW3t6evbu3dvFxcXf33/KlCnW1tZ0ZolEcuzYsbt37xYUFLi6ug4aNKhTp04BAQHTp083MzNjlSyVSoOCgmxsbPr161ejVULqINztkLsRZmVlBQUFPXr0yNDQsGPHjr6+vgYGBrVQNwQAqqeLCwoKDh8+HBUVRVGUp6fntGnTDA0Na6FuSF0Dp6W0nFu3bs2bNy8xMfGLL77w8vIyNzd/9uxZcHDwnTt3TExMioqK4uPjXV1dSeaMjAwfH5/09PRFixY1a9YsJibm6NGjeXl5hYWFsbGxrVq1ooulKOr06dNr1659/vz5/v37p02bVkv1Q+oG3O2QuxHeuHFj8uTJ79+/p1Pc3d0vXrzYvHnzWqjhJ091dHF4ePj48ePFYrGRkdGLFy8kEkmzZs0iIiIaNGhQexVF6ggUoqVIJJLJkycDgK2tbXh4OOvokSNH6tWrBwCPHz+mE4cMGQIA9+/fp1Oys7MHDRoEADdu3KATP3z4sH379oCAAFLC/v37q7suSN1FVTvkaITx8fG2trYBAQHR0dFhYWHLly/X19cHAE9Pz/Ly8hqoF0JTTV2clpbWoUOHe/fuka8JCQkkbJ07d241VwjRBjC40Vpmz54NAMbGxm/evJGbISgoCABoZ/Tx40eRSNSgQQNWtvz8/GbNmh06dEi2hF69emFwgyhHJTvkboTDhg27fv06M8+JEyfID7bQ0FAN1wFRSjV18cqVKxMTE5l5zp8/DwCdO3fWcAUQbQQXFGsn9+7dI0/vz5s3z9HRUW6ecePGeXt7FxcXk68JCQkUReXm5qalpTGzmZqaLl68OD09XbYEsVisaeGIVqGqHXI0wry8PENDwwEDBjDzjB8/vkWLFgDw5MmT6qgLIpdq6mIA8PX1bdq0KTMPmdWysrLSeC0Q7QODG+3kl19+AQB9ff2lS5cqyTZjxgz6s729PQBQFOXn51dUVMTMNm7cuJYtW1aPUkSbUdUOORqhrq7utm3bZMshGerXr68J7QgnqqmLAcDd3Z1VSFRUlJ6e3rJlyzSiHNFyanPYCKkeSkpKjI2NAaB58+YqnfjZZ58Rq/Dw8IiJiakyv4+PD+C0FKIAfnaoqhEy6dmzJ/w7NoDUADXZxfn5+e3btz937hwvpcgnB47caCEvXrwgI8CsQd0q2bNnDxnYj4qK6tChw5IlSwoLC6tFIvIJwM8OeRthYWHhkydP+vfvj09L1Rg11sWRkZGdO3d+//59RkYGhU/4IhzA4EYLycjIIB+cnJxUOtHe3j48PPyLL74AAIlEsnXr1pYtW/7111+al4h8AvCzQ95GePz4cYlEsmPHDn5qER7UQBdnZWXNmDFj0KBB8fHx7969mz179rx589RXjmg9GNxoM2VlZaqeYmVldfLkyWvXrpFXpaampg4fPlzu+gYE4YiqdsjDCAsKCtatW7d9+3Y3Nze1tCK8qL4utrS03LdvX1ZW1pMnT/r06QMAgYGBkZGRGpGNaDEY3Gghtra25AP9u0pVBg4cGBsbu3TpUpFIRFHU4sWLz549qzmByCeBmnaokhEuWbLE19d31qxZPLUivKjJLvbw8Lh27ZqnpydFUVeuXOGpGPlkwOBGC3F3dzc1NQWAhw8f8i7E2Nh406ZN9CD/8uXLNSMO+WRQ3w45GuFvv/1GURR5bAepSWqsiwmGhoYrVqwAgOTkZH6XQz4dMLjRQvT09MaOHQsAmZmZDx484HjWqFGjZFfqzZ07l0yNJyUl5eTkaFYnot3wsEMeRnjhwoWIiIg9e/aIRCJNqEZUoGa6mImHhwcA4JpxpEowuNFONmzYYGJiAv/uQqGE/Px88iEjI+PcuXOyGcjjtWKxmOyhjiDcUdUOVTXCmzdvnjx58uDBgzo6/3FluCajxqjuLmaRmZkJAB07duQtGPlEwOBGO7Gzs1u9ejUAnD9/fufOnXLzlJaWTp48OTg4mHxt3rz5woUL3717x8qWmpoKAD169JB937JUKtWwbkS7UNUOVTLCu3fv7t69+8iRI3p6enSiRCI5ePBgXFycxuuCyKVau1iWS5cu9evXr3///ppRj2gxtbbDDlL9rF27lozVjxgxIj4+nk4vLi4+ceJE27Zt//jjDzpxw4YNAODh4REXF0cnRkdHm5qampqaym6MJpVKyZMOAQEB1V0RpE7D3Q65G+Hjx4/r169vZ2fn/F9MTEzMzc2Li4trrHYIVT1d7Ovr6+npefz4calUSlJu3rzZqlWrt2/f1kidkLoNBjdaTlRU1OjRo8kuohYWFl27dvXw8HBwcJg5c2ZqaiozZ1BQULt27b766qtmzZr5+Ph8/fXXQ4cO1dPT69Onz9OnT5k5S0tLAwMDx4wZQ+Ljxo0bb9y48fLlyzVbM6QuwdEOORphSkqKkhcMzZs3rzaq+Kmj2S6mKGrixImkQ1u1ajVr1iw/P78dO3aUlZXVeM2QOomIwt0ePwFKS0tjYmLev39vYGDQqFGjli1bMkfyCVlZWYWFhc7OzgDw4sWL5ORkPT291q1b29nZ1YJiRBup0g7RCOs6mu3i2NjYpKQkCwsLd3d3fF8mohIY3CAIgiAIolXggmIEQRAEQbQKDG4QBEEQBNEqMLhBEARBEESrwOAGQRAEQRCtAoMbBEEQBEG0CgxuEARBEATRKjC4QRAEQRBEq8DgBkEQBEEQrQKDGwRBEARBtAr2HvyI9rFp06Z9+/aVlJSQr8bGxuS9u5WVleXl5c7Ozm3atJk/fz55CybKq4sKmQhTrTBV1RV5LASrVrDC6oS8OqGQidDV1vbLrZAaYs6cOQDQt29fZmJ5eXlISEjnzp319PT27dtXW9oowcuj6oJCJsJUK0xVNAKXx0KwagUrjCBweVRdUMhEsGoxuPlU8PLyAoCdO3fKHsrMzNTR0dHT04uLi6t5YQSBy6PqgkImwlQrTFU0ApfHQrBqBSuMIHB5VF1QyESwanHNzSdBWVnZvXv3AKBv376yRy0tLR0cHCQSyfXr12taGQAIXh7UBYVMhKlWmKpoBC6PhWDVClYYQeDyoC4oZCJktRjcfBJERESUlpZaWlq2atVK9mh5efnbt28BQCqV1rg0AMHLg7qgkIkw1QpTFY3A5bEQrFrBCiMIXB7UBYVMhKwWg5tPgpCQEADo27evSCSSPXr16tWKigodHZ0RI0bUtDIAELw8qAsKmQhTrTBV0QhcHgvBqhWsMILA5UFdUMhE0GprfiYMqXnItOiuXbtkD5WVlXXo0AEAfv/995oXRhC4PKouKGQiTLXCVEUjcHksBKtWsMIIApdH1QWFTISsFoMb7ae0tNTQ0BAAZFd1ZWdnjx071sjIKDAwUEkJFRUVrBSpVPqJyNOIwppETbXV1JgC7+VPqosp7GVBytOIwppEmK6GBve50X7ItKient6VK1euXr0KAFKpNCcnJz4+PioqauTIkcnJyba2tqyzysvLjx8/fv78+bS0NDMzs3r16unp6X3zzTc+Pj6///57WVnZggUL6qK8efPmxcXFZWVlnTp1ys3NrToURkZGbtmyhVWIsbGxo6Nj165dBwwYIHcIV1PwaM8a6GstM8I618WAvYyuRtMI09X8fzQYKCHCZP369QDQtWvXawxCQ0MzMjIUnXL69GkHB4fRo0dHRETQiR8/fpwwYcKUKVNEItH9+/frqLzc3NxJkyYZGBgUFxdXk0KJRJKSktKvXz8ACAkJycrKyszMTE5O/vPPPzt27Ojm5paYmMjx0jxQVS2PxoyNjVV17wotM8K61cWU6o3Jo4trRpg6oKvRLMJ0NTQY3Gg/xPQ3btzIJbNUKl2wYIFYLD5x4oTs0fLycjc3t3r16smOKNYhed27d+/du3c1KaRxcnJq2rQpKzE1NRUAOnbsqFJRKsFdLe/GHDx4sKpV0CYjpBF+F1N8G5NHF9eMMHVAV6NZhOlqaDC40XLKysqMjIwAIDw8nEv+RYsWAcD+/fsVZVizZs3AgQPrrrySkhIDA4MffvihmhQSXr16BQDTpk1jpWdkZACApaUl96JUQiW1/BqzoqKiXr16S5curSZVvIXxRou7mOLVmDy6uGaEqQO6Gs0iTFfDBNfcaDkRERElJSVGRkadOnWqMvO1a9e2bds2fPjwadOmKcrj6OgoFovlHnr37p1IJJKdtBaCPIlEkp2dbWNj888//5SXl5NF/hpXSEOekJS9yoULFwBgxowZcs/i0YAsuKvl3ZiPHj0qLCyUu2eX+qrUEUajajNqaxcD38bk0cU1I4wGXQ2N8O2wJl3Nf+AXEyF1BTIt6uXlxSVz27ZtASAyMlJJnvT09KysLGbKhw8fFi9ePGDAgLVr186ZM6d///4fP34UjrzMzMwJEyYMHz581apV48ePnzp1qqGhYUlJSXUopJk8eTIApKWl0SkVFRXHjh1r0KDBypUrWQ8FqNOAvNXyaMyJEyf6+Pg4Ojrq6up6e3v7+PgcOnRIs6r4CSPwbkZt7WJK9cbk3cXVLYyArkYW4dthTboaJhjcaDlkWnTt2rVV5oyOjgYAd3d3lcpPSEiwtLRklj937tyLFy8KRN7Lly8bNWq0bt06+quOjo5K7oO7QiZOTk4GBgZTpkyZMmXKxIkT+/XrZ2tru3z58levXrFyqtmA/NTya0zCwIEDO3XqVB2q1BGmTjNqZRdTajQmjy6uAWHoauQicDusYVfDBIMbbSYlJUVfXx8Arl+/XmXm48ePA8CUKVO4l19cXNykSRN6wZdEIrl06VLXrl1lf1XXirzKysru3bu3a9eOTikqKtLT06MdkGYV0iQnJwPA1KlTyVeJRPLs2bP+/fu7uLiwHl5QswF5q+XRmAQyC75s2bLqUMVbmDrNqK1dTPFtTB5dXAPC0NXIRfh2WJOuhgW+fkE72bhxY5cuXXr37m1mZmZhYTF79uxOnTrdvn1bySkGBgYAYGNjoyRPVFQUmeIl/Pnnn8nJyfr6+uPHjx89evS0adNevnx59erVhg0bCkHerVu37t69S4ZtCeHh4RKJhMssOA+FNPSW5OSrrq6uu7v7zz///OrVq8DAQGZO3g2oploejUmIjIzkPgteM70MfJtRu7sY+DamSl1cY8LQ1chF+HZYM65GPrzDIkTLePPmDVQVYnt7ezNHOzds2AAAz549q3ZxvOStW7cOABISEuiU7777zsjIqKysrPp0UhTl5+cHACkpKczEM2fOAMDixYuZiTXZgEx4NCbh559/1tXVzcvLE5Swmm9G4Xcxxbcxq7uL+QlDVyMX4dthLboaHLlB/g9HR8e+fftevXq1qKhIbobdu3f36dPH2dmZTnFwcAAAMzMzVs7c3FwhyCstLdXR0WnatCmdcv369R49ehgYGFy4cOHOnTsaF0kICQlp2rQpaRyasLAw+LfFAICiKKjZBmTCozEJd+7cad++PRF8//79PXv2CEFYzTej8LsY+DZmdXcxP2HoauQifDusTVfDOyxCtI+3b9/a2tp6eXkVFRUx0/Pz85cvXy47/ZmTk2NlZXXs2DE6pbKyctu2bUuWLBGCvL///hsAUlNTydfNmzfr6uouWLCAoqhRo0axCtEUT58+BcYsOM2XX34JAAcPHqQo6vXr10RGDTcgE1Ubk+Du7v7VV19RFJWbm9uzZ8/c3FwhCKvhZqwrXUzxaswa6GIewtDVyFJX7LC2XI2IoiiVAyJEe8nMzPz+++8vXLgwbty4Vq1alZSUxMXFffjw4fvvv5e7n8HDhw/nzp3bu3dvCwuLV69e5eXlff755xMmTBCIPH9//1OnTg0bNiw9Pb1Pnz45OTkBAQFDhgzx8PCYOnWqZrXdu3dvzZo1b968ycrKatiwoYuLy86dO1u0aEGOhoWFDR48uF+/flOmTDl27NjWrVudnJygxhuQiaqNCQD79+8PCAgYO3ZsYmLi+vXrXVxcBCKsZpqxznUxqN6YNdPFPIShq6Gpc3ZYK64GgxtEDgUFBc+fP09MTKxXr1779u1Zw56yZGZmFhQUODo66unVxLaQKskrKSnJzMx0dHQkX/Pz88vKyqysrGpAJ4ucnJzQ0FDygKipqSnzUA03IBNV+7qioiInJ0f5CsFaEQa12owEYXYxqNiYNdbFqgoDdDXcEKYd1rCrweAGQRAEQRCtAhcUIwiCIAiiVXAdmMrJyalWHQiCIAiCIFyoV68e2URHIVxWHefn59eUYARBEARBEGUcPXpUedzCaeTGxMQkLi6uurUiCIIgCIJUSePGjZVnwAXFCIIgCIJoFbigGEEQBEEQrQKDGwRBEARBtAoMbhAEQRAE0So4LSguKipydXWtbikIgiAIgiBVsmPHjlGjRinJwCm4EYvFmzdv1pAkBEEQBEEQ/nh6eirPgE9LIQiCIAiiVeCaGwRBEARBtAp13wsqlUqDgoJsbGz69evHJf/9+/eTkpJYidbW1q6urvb29jo6Gg624uLizpw5ExoaSlGUt7f3smXLqtiwWRtRtY8AgKKokydPRkREZGdnu7q6Tp8+3dbW9tOUx0NhDctjIVi1ghXGQ1sNy2MhWLWCFcZPXs13sfAVMhG6Wi6vX5ALqZi7uzsA7N+/n+NZ7969CwoKatiwIbn6mDFjvvrqqwEDBpiZmRkaGg4YMCAkJIS3JBYRERFt27bNz8/Pzc0lC6IPHz6sqcLrBPz6KDMzs2fPnl5eXunp6eXl5evXrzc3Nw8ODv7U5PFTWJPyWAhWrWCF8dNWk/JYCFatYIXxllfDXSx8hUzqhFqewc2HDx+2b98eEBBQr149layZMHPmTBLcVFRUkJS8vLxly5YBgI6OzoEDB/ipYtG6dWtfX1/yOSEhYeHChe/fv9dIyR8/ftRIOdUKvz6SSqUDBgwwNTXNzMykE729vc3MzJKSkj4defwU1qQ8FoJVK1hh/LTVpDwWglUrWGG85dVwFwtfIZO6opb/yA2hV69ePIKb5cuXyx03GjhwIACYmppmZWWpKSwyMhIAZs+erWY5smRlZQ0bNkzjxVYfKvXR5cuXAWD8+PHMxEuXLgHA3LlzP0F5lCoKa0UeC8GqFawwlbTVijwWglUrWGGqyqutLha+QiYCV6vuGhexWMzjLJFIJDd98ODBAFBQUPDw4UO1ZAE8ffpUzRLkIpVKJ06cmJqaWh2FVxMq9dGuXbsAoE+fPszEnj176ujoHDlypLCwUMPiBC8PVFFYK/JYCFatYIWppA0E0MuCVStYYQQhWyBB+AqZCFytsJ6Wsra2Jh8KCgqY6cnJyRcvXrx//35paansWREREQAgkUguX74cFxeXl5f35s2bV69ekXLevHnz5s2brKws7gUCQE5OTnBw8MWLF0k5hMrKym+++ebGjRvl5eWk2JKSEvVqLCwqKipCQkIAoGvXrsx0c3NzNze3goKCP//8s3aUAQDK0yiCVStYYQSBy2MhWLWCFQbC1kYQvkImtaVW3aelNEtcXBwAiEQien+epKSkb7/91tzc3MjI6OzZs+Xl5YcOHRo+fDgAJCYmBgUF/fHHH+np6ampqQMHDnzw4IFIJNq8efO9e/devHgBAOHh4UuXLgWAXr16zZ8/X3mBhPz8/O+//z4+Pn7w4MEZGRmjRo0aOnToH3/8YWZmdu7cOaIwPT2dFLtixYoqtxKqQ0RFRZFwzcrKinXI0tISAGSfdKtJUJ4GEaxawQojCFweC8GqFawwELY2gvAVMqkttQIKbtLT03fv3g0AEyZMaNKkCQAkJyf36dPn+vXrrVq1AoClS5e6ubmNHDkyIiKiU6dOKSkpaWlpL168MDEx+eGHH1auXHn48OHQ0NDx48cvXrx4y5YtS5cu9fLyOnToEH0J5QUCQGVl5cCBA7t06XLt2jUydxYTE/Pnn38uXLjw4MGDY8eObdCggY+Pj4uLy+nTp2ullaqV9PR08qF+/fqsQ+bm5gCQkpJS05oYoDwNIli1ghVGELg8FoJVK1hhIGxtBOErZFJbamt5Wio+Pj45OTksLMzf3799+/Y5OTlDhw7ds2cPObp06dLu3buTQAQAnJ2dvb29KYr65ZdfAKBfv35z584FgKKiokmTJo0YMeL8+fNZWVmNGjVSdDnlBQLAxo0bk5KSNm7cSK8KmjdvnkgkqpkpzFonJycHAHR0dMgyeCbELmt3sRHK0yCCVStYYQSBy2MhWLWCFQbC1kYQvkImtaW2lkduxowZU1JSYmpqamlpOX78+C+++KJHjx7kUEVFxV9//eXu7j5p0iQ6f3JyMgD8888/5CtpLGNjYzLuAoqXKnMpUCqV+vv7Dx482MTEhM4wcODA1NRUOzs7DdVY0BgZGQEARVFSqZS1oWJlZSUA6Orq1o4yAEB5GkWwagUrjCBweSwEq1awwkDY2gjCV8ikttTWcnATGxur6FBCQkJFRcXQoUP9/PyUF8JxX+MqC0xMTCwqKnJ0dGSlN27cmEv5WgDZXJGiqIKCAtYQYl5eHvw7RVpboDwNIli1ghVGELg8FoJVK1hhIGxtBOErZFJbagW05oZFfHw8AFRWVpLNhWugQBJpZWRkaORydZE2bdqQD3l5eSwr/PjxIwA0b968FmT9C8rTIIJVK1hhBIHLYyFYtYIVBsLWRhC+Qia1pVZYj4IzIa1w//79GivQwsICqm2DnDqBnZ2dg4MDMJaA0ZAUsmtTbYHyNIhg1QpWGEHg8lgIVq1ghYGwtRGEr5BJbakVbnDTrFkzAAgLC0tISGAdOnfu3O3btzVeoJubGwBER0ffunWLleHAgQNFRUX0V4qiVL16XWHcuHEAEBYWxkxMS0t7/fq1nZ1dt27daknX/4HyNIhg1QpWGEHg8lgIVq1ghYGwtRGEr5BJrahVN7iRSqU8ziorKyMfJBKJojzOzs6enp5SqdTX1zc3N5dODw0NPXz4MHkNKQky5IYaZKUS+cuxQDs7u/79+wPAtGnTYmJi6AxnzpxJTEwkq4zJ2igyU1hXUNJHDx8+vHr1KrMBZ8yYoa+vzwrvyNdvvvmmOt6pLnB5KimsFXksBKtWsMKUaxOCPBaCvWUEK0xVebXVxcJXyEToatV5d4NUKnVxcQGAgIAAlU4cMWIEuXpsbKySbMHBwWSxsI2NzYIFC9avXz9y5MgmTZqkpqaSDI8fPyblyL7JkmzZR5705l5gTEyMsbExABgZGQ0cOHD+/PleXl5du3YtLi4mGd69e0dKuHHjxosXL/z9/VWqeM2jpI/S09PJMnVihTTr1q0DgMuXL5OveXl5Tk5OHTt2LCsr+9Tk8VBYw/LqilrBClOuTQjyuKut3VtGsML4yav5Lha+wrqllmdwU1paGhgYOGbMGBJbNG7ceOPGjbRuJZw/f37kyJH0A9uOjo6LFi168eKFovy3bt1ycnIimUUi0fjx41NSUsih3377jd6xpmfPngEBAaSZIiMjly9fTp4SF4lEs2fPPnjwIJcCCU+fPvXw8CAZdHV158yZk5eXx8wwe/Zscm7v3r3fvn2rUrvVJFX2UU5OjpmZma6ubkREBOvcAwcOODg4LF++fNeuXR06dJg4caL6rzKtW/LUUVgz8uqKWsEK46KtduWpqra2bhnBClNTXo11sfAV1kW1IqouLB9JT0//8OFDixYtZHcBqqYCs7KyUlJS3NzcyEAOi+fPn1tYWNja2mpETC2Sm5tbUlIid9tDiUQSExOTkZHRtm1bJfsiVisClweKFQpEHgvBqhWsMILA5TER7C0jWGEE4Xex8BUyEYLauhHcIAiCIAiCcES4T0shCIIgCILwAIMbBEEQBEG0CgxuEARBEATRKjC4QRAEQRBEq8DgBkEQBEEQrQKDGwRBEARBtApObwUvKipq3759dUtBEARBEASpkk2bNtGvOpALp+BGLBavWLFCQ5IQBEEQBEH407p1a+UZcBM/BEEQBEG0ClxzgyAIgiCIVsFpWkouWVlZQUFBjx49MjQ07Nixo6+vb3W8uLyiouLmzZshISEpKSkAYG1t7enp2bt3bxcXF39//ylTplhbW2v8oloDRVEnT56MiIjIzs52dXWdPn06j/dhhYeHk1egu7u7r1q1Sl9fnz507dq17Oxs+mtpaen79+9XrVqlUvlSqTQoKMjGxqZfv34cT+FSL43UXR0BcuF+1/BolqysrI0bN4aFhRkYGBgbG//www+9e/eu8qxz584dPnzY0NAwNTVVT09v4cKFo0ePls2WmJi4adOmkJCQ1NRUGxubXr16rVmzpmnTplWWr05HqGRgycnJCxYs2Lt3r52dHcfylaO+CSmR9OHDhwsXLjx48KCysrJHjx6+vr5GRkbVIam4uPj8+fOKjo4ePdrQ0FA2XcldrylhKl0UXU11uJqCgoLDhw9HRUVRFOXp6Tlt2jS5xiC3cFVdDUVR58+f37dvX2VlpUQiSUtLc3V1nT9/fv/+/ZnZ4ThZJwAAIABJREFUOLojTvB73+b169dZTezu7p6QkKDeWzzZBAcHu7u76+vr+/r6Hjhw4OzZsz/++GOfPn0AwMTEBADi4+M1e0VtIjMzs2fPnl5eXunp6eXl5evXrzc3Nw8ODuZeQnBwcJs2bRwcHM6cOVNaWso6mpKSoqfHDo5v377NvXzia9zd3QFg//79HM/iUi/1666mALlwvGv4NUtycnKTJk3EYvGrV68oiurWrZuuru6RI0eUnCKVSmfMmAEAAwYMoCiqvLy8bdu2ALBw4cKKigpmznPnzsl6PTs7uw8fPihXpU5HqGRgEomkW7duAJCYmMil8CpR34SUSLpx44aTk9OxY8cKCwsjIiK6devm6emZlpZWHZL27dunyPk3bNiQ1dFUVXe9BoVxvyi6mupwNWFhYY0bN27SpEmrVq1I8zZr1iw7O7vKwnm4mvLycm9vbwCYNGmSRCKhKOrKlStE2E8//UTycHdHHOET3MTHx9va2gYEBERHR4eFhS1fvpyE2J6enuXl5TwKlEUikUyePBkAbG1tw8PDWUePHDlC3ub9+PFjjVxOJT5+/Cj8kqVS6YABA0xNTTMzM+lEb29vMzOzpKQkLiWsXr0aACZMmJCbmys3w6JFi7y8vGYzWLlyJXeFHz582L59e0BAAOlKjh6HS73Ur7uaAuTC8a7h1yzl5eUdO3YEgB49epCU7du3A4BYLI6Li1N01uHDh4l/Wb9+PUn56aefSMpvv/1GZwsPD/f29o6KiioqKvrnn3/IfwhCQECAElVqdoRKBrZu3TpdXV1NBTcaMSFFkl6+fGlgYLBs2TI6JTMz08bGxtHRsbi4WOOSOnbs2KlTp2XLlv3C4OeffxaLxVOnTmVlrvKu16Aw7hdFV6NS4VxcTVpaWocOHe7du0e+JiQkNG/eHADmzp2rXBU/V7Ns2TLiMe7fv08ndujQAQBEIhGpIEd3xB0+wc2wYcOuX7/OTDlx4gQRERoayqNAWWbPng0AxsbGb968kZshKCgIAGTjnuomKytr2LBhwi/58uXLADB+/Hhm4qVLl7iYL0VRJIIePHiwVCqVmyE3N9fOzo5LmF8lvXr14u5xuNRLzbqrL0Auqt41KjXLkSNHSFEzZswgKbdu3WKlsKisrLSxsSF5tm/fThLPnTtHUuzs7Mg/WqlUOnHixJKSEvrE8PBwOrhRXmV1OkIlA7t///6gQYM6d+6sqeBGfRNSImn48OEAEBISwkycM2cOAGzZskWzkh4/fiwbwVAU9fDhQwC4fPkyM7HKu16DwrhfFF2NqoVzcTUrV65kmSWZu+zcubNyVTxcDUVRJHICgPPnz9OJ48aNI4k3btzg6I5UQuXg5uPHj2PHjpVNb9GiBVOWOty9e5dUafny5UqyeXt737hxQ/3LcaeysnLAgAEeHh61UvKuXbu4D6gOHjwYAHbv3s1MzM3N1dHRMTU1LSgoUHLuoUOHAMDe3j4rK0tRnp9++mn48OFVzkpwwcfHh7vH4VIvdequEQGy8LhrVGoWMlcLAEuWLCEpjx49IinGxsY5OTmypyQmJtIxyq5du0ji33//TSeePXuWJLL+6xQVFdF5du7cqUSVOh3B3cAKCws7d+6clpbWtWtXTQU3apqQEkkVFRXkZ3RqairzlL/++gsAbG1tNSvp6dOnhYWFsunffvutmZkZcwKIy12vQWHcL4quRqXCObqaZ8+esTI8e/YMAIYMGaJcFQ9XI5VK6VnFjh070qNHZLWNSCRKTEzk7o64o3JwU1BQIHdueOTIkQBw+PBhZmJhYWFYWNipU6ceP35cVlbG8RLkl42+vj5zOE6WkydPygY3eXl5oaGhFy9elDvkI5FI6B9MsbGxp06dkjuS9vLly0uXLj158qSkpIR2DRKJhIwntWzZ8vXr169fv2bGksprqvy6ykumcXNz69q1q5IGoSkvLyeLE588ecI61LJlSwA4duyYonM/fPhQv359ANi2bZuiPKWlpfSEbvPmzb/99ltFA2xc4O5xuNRLnbprRIDcE1W6awjcm6W4uJj2HatXryaJz58/p/3C0aNHZc8iPwEJ/v7+JPHJkyd04q+//ir3clFRUSRD586d5f7jJKjTESoZ2LRp04KCgiiK0lRwo74JKZFE/oUAAOufU3R0NEmX+19c41bdpEmTiRMn0l+53PVyQVejBa6GcPz4cT09PdaAIgt+robWTBg0aNDHjx8zMzNJ769atYpSwx0pQeVHwevVq9e4cWPZ9KysLADo3r07nbJjx46uXbtGRUWZmZmtXLnSzc2NvrGVUFpaGhwcDADOzs6WlpZKcn7xxRfMhdb5+flfffXVsGHDYmJiHjx40KNHj9atW0dGRpKjERERs2bNaty4sY+PT3Fx8aRJk1q3bj1u3LhWrVr98MMPdCGVlZW+vr6rV68WiURPnjxxdXX98ssvyaFz587FxcUBQHp6+tKlS5cuXUpXR0lNuVxXScn8iIqKKikpAQArKyvWIdKkSUlJis49duxYXl6eSCQaMWLE6dOnV69e/euvv968eZNi7If04MGDiooK8vnly5f+/v7NmzffvXu3Opq5wKVe6tRdIwLknsj9ruHBmzdvJBIJ+Uy7HuaTJq9evZIrif5cUFBAPkilUjqR+VuKJicnZ+7cuQDg7Oz8119/kXX9clGnI7gb2Pnz58vLy+nxbY2gpgkpl0SPe71//56Z3rBhQ/Lh5cuXGpfE4tGjR8nJycyHULjc9XJBV6M8T7UKkHsiP1dTUFCwadOmU6dO0QMzcuHnagBg6dKl9Odr1665ubmNGzeuZcuWly5d2rBhA/B1R1WgajQkl4KCAhMTk/79+9MpZALvxx9/JF9JcNepU6cqi6J/Fw4aNIi7gKKiohYtWgwcOJBeVv369Wt7e3s9PT0yupOTk3Pq1CkA0NHRGTVq1IULFwoLC4ODgw0MDHR0dOhl5Nu3b3d0dKTH4W/duuXj40NfhURdrMkj5TXleF25JbPgPnJDP/kpO3RJRsWmT5+u6FxPT08AsLCwGDRo0OTJkz///HMLCwsA6Nev39u3b5k509PT//rrr9GjR5NVkwBw4MABLvJYcP85xaVe6tRdIwK4lyZ71zDh3izXr1+nb+e1a9eSRKYv+Oqrr2TP+vDhA51h1KhRJDE0NJRO9PX1ZebPy8tbs2YNPS8OAI0aNYqOjlakSv22qtLA3r5926FDB3oZvqZGbtRRXqWkvLw8UvipU6eYJ9IO/eLFi5qVJMuKFSuMjY2LioroFO53vQaFoatRUwD30pS7mocPH7q5udnZ2f3+++/Kl1vxczWERYsWwX+ZM2cOvZhPVXfEBc1s4nf8+HGJRLJjxw465fHjxwBA26Kbm5ulpeXDhw/puE8RGRkZ5IOTkxN3AevXr09ISFizZg0dTjo5OW3YsEEikcyaNau4uNjCwoLYhFQqJe+kMDEx8fb29vHxkUql9CqfO3fu5ObmlpWVka/9+vWjV0IpQnlNOV5Xs+Tk5ACAjo4OMxwmkJHA1NRUuSdSFBUbGwsAw4YNu3z58uHDh8+dOxcbG9u6devbt2+TuTOaRo0aDRky5MyZMzExMaSVFi5cSC5dTXCpF++6a0oA99Jk7xp+vH37VnmGtLQ02URra+tJkyaRz3fu3Pn48SMAMLcScXBwYOYXiUSGhobMoZq3b99OnDixsrJS7kXVbyvlBkZR1NSpU7du3UpK0yDq3D5VSjIzM+vZsycA/P7778x0OuiR+7Nbs4Z3+vTpwYMHGxsb07K53/WaEoauRn0B3EtT5GqysrJmzJgxaNCg+Pj4d+/ezZ49e968eUrK4edqCFu3bj169Cjz1ggMDOzZsyexfFXdERc0ENwUFBSsW7du+/btbm5udOLixYuPHTtGtxRZRAIARDQX6AijSiiK+u2330QiEevtnuPGjTMzM3v16tXNmzeBMYzG/PVJXAndZ7a2tgUFBZ999hmdsmbNGuVXr7KmXK4ri0QiyfsvZO8j2UTZc8lkLUVRzGE9AslPh2IsMjMzSbNPnTpVR+f/bKNRo0bkrvjzzz/ptWNMWrZs+c8//1hYWBQUFNy7d09RjdSHS714111TAjgWJfeu4Yfy2VsAID+IZdm8eTN5nCc7O/uzzz7bsmVLQEAAfZQ5TQ4ApqamK1asSEhICAgIoPe8iYuLIythZdFgW8k1sB07drRt21b5KDo/eCvnKCkgIEAsFt++fXvevHlZWVkVFRWhoaG+vr7kqNwfdRpszCdPniQlJTHnpPjd9WoKQ1ejvgCORSlxNZaWlvv27cvKynry5Amx28DAQHothyy8XQ0AxMXFXbx40crKql27dnTio0ePRo0aRT6r5I64oIHgZsmSJb6+vrNmzWImmpubT5w4sV69ei9evFi+fPl3331Hpk4V/c6joZeP0UM4VfLmzZvCwkIDAwPWPmNGRkakO2NiYhSdS0yENqAlS5Y0aNDg77//dnV1/fXXX8vLy5kRiVz41ZR1XVnu3Llj/l9evnwZGRnJSqRn8ZiQ+XuKMdZNQ8JkRTZK62Ht++zl5WVvbw8AzBVeTKysrBYvXgwAT58+VVQj9eFSL951ZyKVSo/JIJFINFI4Qe5dww9HR0flGRQNglpbW//zzz8HDhyYOXOmjY3Nu3fv6IUgRkZGct+4q6uru2DBgqtXr4pEIpKi6ObSYFuBjIHFxsaeOHHixx9/5F4CC0VdzFs5d0menp5k4749e/ZYW1u7uLicP39+yJAhANC1a1e5hWuwMU+fPi0Wi8nlCLzvenWEoashCMTVeHh4XLt2zdPTk2JsrycLb1cTHBzcqVOns2fPrlu3LiIigjkyd/v2bTLbxcMdKYf/6xcIZHedX375RfZQUlLSsmXLzM3Nf/31Vysrq1OnTuXn51dZoLu7O3nOjezEwAUyFFZWVpaVlcXqcnt7+wcPHjBHt5TTpEmTsLCwiRMnRkdHr1ix4vDhw8ePH2cNCMnCr6bKcXBwWLhwITPlyJEjYrF4/PjxzES5b59o06YN+ZCXl8caISfjSYrm2mxtbUnj5+bmsg65uLikpaUpWi8GAJ06dQIOwas6cKkX77ozqaiooH9J04wcOVIjhYPSu4YHTI9D/bsYkxk3Ozs7KzpXT09v6tSpU6dOBYDU1NRt27aR9EmTJpmamio6q2/fvn5+fmTHC0rBmlNNtRUN08DWrl1bUlLC2pc9Pj4eAGbMmGFiYtKjR48VK1YoKU1RF+vp6fFTrpKkdu3a3b17t6ysrKCggLisLl26AAD9+AILDTbm6dOn+/fvb2ZmRqeoc9ejq1Gep8oLCcfVGBoarlixYuzYscnJyYry8HM1ZWVlU6ZMKSkpsba2njBhgkgk2r17t76+/s6dO0mG4ODggQMHAl93pAi1gpsLFy5EREQcPnyY/hlHc/fu3UGDBk2fPn3r1q2qCdLTGzt27MGDBzMzMx88eEDGqZRDd/ObN29YwQ1ZyN2qVSvuAlq2bBkZGblz587169fHx8d7eXk9evRIyTt0eNdUOS1atKC7lnDt2jVzc3NWolzs7OwcHBxSU1PT09NZsXZ6ejoAkM2sFF330aNHrEc54N8fCuRHlVyI8fEYPOQOl3qpU3caAwMD2bFZIyMjExMT9QtXctfww9zcvHXr1mQFQ2lpKUlk/uAjizyqZN++fcRPNW7c2N/fX3nmPn36kOCGbJEui0Y6ggnTwOrXr5+fn0+qTEPqnpCQoK+vX+UMvaIu5q2chySxWCwWiwHg3r17Dx48cHFxIW5dFk01ZlRUVGJi4sqVK1npvO96dDXa5Go8PDxAadjEz9XExsYSza6urrSSjRs3Hjp0qLCwEP59kouFSu5ILvynpW7evHny5MmDBw/SM6YE0lVff/11QUEB2X2SoOgXniwbNmwg6xarjDfJAImNjQ15Lx3Z0pEJaVMS6XOB+Gs9Pb1FixY9e/asffv2eXl5Bw8eZOZhVUSdmrLgfaIs5EnUsLAwZmJaWtrr16/t7OzIK2/kQp4VfPDgASs9MzMTlDqU58+f6+vrkycgqg8u9eJddxqRSOQpA7FzNQtXftfw5ptvviEf6CeN6bHD3r17k/jjxYsXn332Wc+ePW/fvi1bQlRU1KZNmwDA3Nz8zJkzzB+LSUlJrP/Z8O9/ICcnJ7LVmFzU7wgmTAM7cODAKxnIo0l37tx59epVYGCg8tKUdDE/5bwl5ebmTpw4USQS7d27l17kK4tGGvP06dN6enrkEQcmvO96dYShqwGBuRrS8uTtCorg4Wro5bPMh8b/H3tnHtfEtf7/hx1FEBBkKy4oCkSxBVQsaOuCoqigqLVc1IpaaYt1aVFELxXqctVbRL7uFsUFF6hKq7gAWgqKsiOioogggggEAgZJgJD5/XF+ndfcLJPJJMFo5/1XcuacOZ+zzJMnZ85iaGg4dOhQ9Jk4CwdBYo7kQN7lVYg7d+7MmTNH5ISzrq6uuLi4+Ph4Ho+HHLSrV6+iS+3t7ehIUopbMO3YsQPJi42NlRiBx+MtXrwY37UQLT0YOnQoMU5TU5O+vv4XX3yBy0P3JO48hpySrVu3oq++vr6tra34VbSx9L///W+81AAwaNAgogyZJaWSr/idxaG+FBzDsLKyMh0dHXQCGQ46vAPPFMOw3Nzcq1evEpf/PXz4UEtLy9bWlhjY0dHRr18/FouFVtp3dHSIrxgcO3ZsREQERXlE0Am9EtdnisujUi6KZacH9ZuLiyd/akQyIqkWcbhcLnr+8Q1GT506hXpdUlISCsFtlpGREXEZMIZhtbW16O+atbU1OiIY57fffkOpfHx8iGefRURE6Onp5eXlkaiiXVf0Otjnn38OStqhmPbjI68kHo83Y8YMTU1NmQ2tFEn29vbEvS1wqDz1ShfGmBpyFGlxuUwNzsaNGydNmtTd3U2iioap4fF4aIRSpK3Rpsm6uroiW+mSmCO5oOPcFBYW9u3b18rKatD/YmBgYGxsjJYLodVAY8eOzcjIOHny5Lx589DM3OjoaLwKyNmyZQvyG3x9fYmnf7e3t589e9bZ2fnUqVN4YHd3N3pphy++xzAsJCRk6NChtbW16Cs+/onOMkWgiXXr169HX729vfFdpTEMS0tL09XVxeu3rq4OecGpqalPnjxBGynKLCmVfCXeWQS5nBsMwyIjI4FwfExra+vAgQPd3NzwDZRra2vRvOZr164RE27ZsgX+3jgSceTIER0dHXQMb319vYGBgZmZ2b59+9BjIBQKw8LC5s6dS30TahyhUDh48GCQdASjNHkyy0UxDm2o3FxcPJWnhkq1SOPcuXMAYGZmhm6Fpuz5+/vjEfBt4gCgqqqKmNDU1FRLSysoKEh893RUWMSwYcMePHiAYditW7cGDBhw9uxZVdQV7Q6mROeGinJp/ZO6pJKSkhEjRlhYWFDcWl5BSWjxgch2/jjkT72KhDGmhhx6FUvF1AQGBrq6up45cwb3NtLS0lgsFvm2RggapgbfdxH/9S8oKEC/7yL7U5ObI7mQ27mprq4W3zMRZ9WqVSja77//jhbo6+vrL126lMPhoD18dHR0qO+/VFxc7O/vj4ZqTUxM3N3dP/74Y1tb26+//lrkZBYMw7q7u7dv325ubj516tSIiAhfX9+vvvrqzZs36GpWVhbyfgDAy8srJSWlpaUlNDQUrdM2NTXdsWMHhmE+Pj729vZffvnliRMnNm/e/Mknn1y8eJGYC2pIDQ2NCRMmoH5AXlKK+Uq8swjyOjcYhsXFxdna2m7YsGHfvn0uLi4BAQHEM1yam5uNjIy0tLRycnJEEp4+fdrY2NjX13ffvn1r1qxhsVi5ubnoEo/HQ6e5AsDIkSPRrtA0Dv7g8/kHDhyYN28eupWNjc22bduIJ/mRyCMvF/U4tJF5cxHxFJ8aKtVCQlJSkqWl5cyZM7ds2dK7d++QkBCihcV3xPb19cUwrKGhYc2aNYMHD3Zzc4uIiCB63kQ4HI7Iiydra+uvv/66oaFBRXVFu4Mp17mRqZykf5JL4vF4ycnJixcvtrKyioqKIjnCQrmSNm3apKmpWVdXJ+3mJE+96oQxpoYceSuWoqkJCAhAISwWa+XKlYsXL46NjaXukMllahCnT58eMmSInp7e8uXL165da2pq6uTkdOXKFXSVojmSCw1MefM8RGhtba2oqHBycsJXaJeXl5ubmxsbG8t1Hz6fX1JS8vr1a11dXWtraycnJ3znGImgleGOjo4i7xqpwOPxevXqxefznz9/3t3d7ejoKJ7X48ePTUxM8CXroLySit9ZcQQCQUlJSUNDg7Ozs7W1tchVDofD4/HEwwFAKBSWlZVVVVWxWCyRBX4YhhUVFVVXV1tYWLBYLOLKC+VCIo+8XNTj0EbmzUnEq47Ozs68vLy2trZRo0aJd6SCgoL29nZPT08NDY3m5ubKykoWiyWygYJEXrx48eTJk+7ubhaLJXM5qDjy1lWPdTCZ0H58SLh69WpdXZ2zs7OLiwuNrVBoSyovL+fxeNImgCNInnrVCWNMDTmq6IQAUFpaWlFRYWJi4ujoSOIPSYO6qcEDhUJhdXX1s2fPdHV1hw8fTtxmRS5zRBEVOjcMDAwMDAwMDD2Pco5fYGBgYGBgYGBQExjnhoGBgYGBgeGDgnFuGBgYGBgYGD4oGOeGgYGBgYGB4YOCcW4YGBgYGBgYPigY54aBgYGBgYHhg4JxbhgYGBgYGBg+KBjnhoGBgYGBgeGDgnFuGBgYGBgYGD4oyM4xIIfNZp8/f76goEBfX9/NzS0wMBCdhg1/75n9xx9/VFdXHzt2TEGJXV1daWlpGRkZ1dXVANC/f39XV9cJEyYMHjx4165dX331Vf/+/RXM4kMFw7Bz587l5OQ0NTUNHz58+fLlFM92aG9vP3XqVElJCYfDsbe3DwgIGD58uHi069evNzU14V/5fP7r1683bdokl0ihUHj+/HkLCwt0Zi8VqJSLdtkVv0l9fX1ycnJubm53d7eHh0dgYGCvXr3Eo3G53Pj4eHQsq6ur67JlyxTcepzNZm/bti0rK0tXV7d3794RERETJkyQmerixYvx8fH6+vovX77U1tZes2aNv78/eZK8vDxPT8/Ozs7i4uJRo0aRR1bzTkhbHpVWVnoTq7oycZ4/f7569eojR45YWVmpgzDG1EiEoqkh+bGmR8+YGrnsjAToHUl148YNkap3dHR8+vQpurp9+3Z0ZLm8Bz2Kk56e7ujoqKOjExgYGBcXd+HChZ9//vmzzz4DAAMDAwAgHhjOQKSxsdHT03PixIm1tbWdnZ1RUVHGxsbp6ekyE2ZnZ9va2kZHR7PZ7Obm5sOHD/fp0yc2NlYkWnV1tfjBW1TOEMZBtsbR0REAfv31VyWWi3bZFb9JamrqwIEDExIS2tracnJyxo0b5+rqWlNTIxItKyvLxsbGzs6OxWKhahw6dGhTU5NcCok8f/7czs5OT08PnTk3btw4LS2tEydOkCQRCoUrVqwAgKlTp2IY1tnZiQ4eWrNmTVdXl7RUTU1N+AFA6GebBDXvhLTlUWllpTexqisTRyAQjBs3DiifQqrmrYz9s00N+Y81DXrG1MhlZyRCx7kpKyuztLSMiYm5f/9+VlbWhg0bdHR0AMDV1bWzsxPFSUxMVNC5EQgES5YsAQBLS8vbt2+LXD1x4gQ6i7uwsJB2FrRpaWlR8zsLhcKpU6caGho2NjbigZMnTzYyMqqoqCBJyOFwrKysgoODiYHh4eFaWlqPHz8mBq5du3bixInBBMLDw6krrK+v37t3b0xMDGpHihaHSrlol13ejMQpLy/X1dUNDQ3FQxobGy0sLAYMGNDe3o4H1tTUuLi43L17F319+vQp+jMQEhJCUZ4InZ2dbm5uAODh4YFC9u7dCwB6enoPHz6Ulio+Ph7ZjqioKBSyfft2FLJ//36JSYRCoY+PD24lyY2OmndC2vKotLLSm7gHKhMnMjISnehJxblR81bG/tmmhsqPtVz0jKmRy85Ig45zM2vWrBs3bhBDzp49i0RkZmaikCtXrijo3AQHBwNA7969X7x4ITHC+fPnAUDc71E1bDZ71qxZan7nlJQUAFi4cCEx8PLlyzLNa3JyMgAcOnSIGHjjxg0AOHjwIB6CDJMif0Nxxo8fT93iUCkX7bLLm5E4s2fPBoCMjAxi4LfffgsAv/zyCx4SHh4u8rNx6dIlABgzZgxFeSKcOHECPYArVqxAITdv3hQJEaG7uxs/lXfv3r0o8OLFiyjEysqKaCJxduzYgX6kqRgdNe+EtOVRaWWlN7GqKxPn3r173t7eY8aMoejcqHkrE/kHmhoqP9Zy0TOmRi47Iw25JxS3trbq6+tPnTqVGLhw4cJhw4YBQFFRkbw3lMjdu3cPHToEAKtWrRowYIDEOAsWLJg8eXJ7e7tScqSIUCgMCAh4+fKlmt953759AIDe3+F4enpqamqeOHGira1NWsIXL14AQH5+PjEQxSdOFzh48ODo0aMFAoHiUvX09KhHplIu2mWXNyMRBALBtWvXAGDIkCHE8BkzZgDA7t278ZDAwECROGiegbm5ORVt4uAz24yMjNAHY2Nj9CEhIYHD4YgnqaysrK+vR5/R33QAMDExQR/q6upQWYhkZmYmJiZSn+ig5p2QnjyKraz0JlZ1ZSLevn37/fff//rrr5qaVH8a1LyVifzTTI0qfqx7wNTIa2ekIq83xOVyxd/qYRjm5+cHAPHx8egrceSGz+enpaVduXKFuveN3FIdHR3iSJ04586dS01NFQlsbW3NzMz8/fffJQ75CAQC3NstLS1NTEyUNphWXl5++fLloqIiHo/X1taG0qLxJCcnp6qqqqqqKqLL2dbWlpWVlZiYWFhY2NHRIVe+5HeWl87OTjStrKioSOSSk5MT6oXS0mZmZgKAtrZ2VlYWHujn52dqatrc3Iy+8vl8/CWuvb39+vXrpY2uUWGdsmU2AAAgAElEQVTKlClA7e8UlXIpUna5MhJP9ejRI1QnXC6XGH7//n0UXl9fLy3HM2fOaGtri/wPo0h7ezs+I2Hz5s0o8PHjx/gzfvLkSfFU6K8hYteuXSiQaO927txJjM9ms4cMGVJSUnLu3Dk8Dsk/KjXvhLTl0W5lRZpY1ZWJs2zZsvPnz2MY5u7uDhRGbtS8lUX4p5kaij/W1OkBUyOvnSFB7pGbPn362NjYiIez2WwA+PTTT0XCU1NTBwwY4OXlNXPmTDMzM/TKjTwLPp+fnp4OAIMGDTIzMyOJ+cUXX3h5eeFf37x5s3Tp0lmzZpWUlOTm5np4eIwYMQL/Z5CTk7Ny5UobG5spU6a0t7cvWrRoxIgRCxYsYLFYERERxNt2d3cHBgZu3rxZQ0OjqKho+PDh//rXvwDg4sWLDx8+BIDa2toff/zxxx9/xDtZbGysu7t7cXGxkZFReHi4g4MDfolKviR3pkFxcTGPxwNJfxNRfVZUVEhLO378+Dlz5ggEghkzZqBOuWvXrtu3b1+7dg33tXNzc7u6utDn8vLyXbt22dvbHzx4kLZgilAplyJllysj8VRv375FH16/fk0M79evH/pQXl4uMTsul7t79+7ExESRf28UefHiBf6/Fjc96M06orKyUjwVmn+AC0AfhEIhHvjs2TNi/KVLl4aEhIwcOZKiKjXvhLTl0WtlBZtY1ZWJuHTpUmdn54IFC9RHGGNqFDE18v5Yy6QHTI28doYE5exz09bWVlRU5OXlRXxPBgB1dXU7duzYv39/amrq8uXLMQz76aef8JlE0njy5Al62SQy5kZOe3v76NGj6+rqbt68+d13323duvX27dutra3jxo1LS0sDgGHDhk2ZMqW+vl4oFC5atGjevHltbW3p6em6urrbtm0jmqT9+/dnZWWdPXvWx8dn6dKlx48fR51p/vz5P/30EwAMHjw4KSkpKSnJ1dUVAJKTk1evXv3FF1+EhIRMmzZtz549lZWVX331FboblXyl3ZketbW16EPfvn1FLqEhRLSoXhqnTp2aMGECl8udPXv26NGj8/PzHz16hN7BI8aPH89ms2tra69cueLv76+lpdXZ2fntt98qvuyfHCrlUrDs1DMST4UGe0FsvBe/CXEtK05+fv6YMWNev37d0NAg0++XiMwSVVVViQei/4UI5FgDwWgCALK5iMOHD/N4vNWrV1NXpeadkLY8Gq2seBOrujIBoK6ubuvWrf/3f/+nVsIYU6NEU4OQ9mNNBVWbGhp2hgTlODdnzpwRCASxsbEi4Vwu9/Lly/PmzfPy8jp69CgSvXPnTuQ5SqOhoQF9wFeCUSEqKurp06c//fQT7lEOHDhw69atAoFg5cqV7e3tJiYm6G2XUCjcvXu3r6+vgYHB5MmTp0yZIhQKs7Oz8Vv99ddfHA6no6MDfZ00aRJ5PygsLATC20QHBwczM7O8vDzk5FLPV1k0NzcDgKamJtFlRqDeTz6zx8DA4MaNGxMnTgSA/Pz8kpISdEMRrK2tfXx8fvvtt5KSElQ/a9askRhTWVApl4Jlp56ReCojIyNPT08AQNPFcFpbW9EHkX9RbDZ7xYoV3t7eZWVldXV1wcHBq1atkqlNnFevXpFHqKmpEQ/s37//okWL0Oe//vqrpaUF/tcm2traog+VlZXbt2+Pj4/X0NCgrkrNOyFteXK1srKaWNWViWFYUFBQdHS0+E/suxWGYEyNCPKaGiLSfqypoFJTQ8/OkKAE54bL5UZGRu7du9fBwUHkkr29PbHNwsLCdHR0uFwuetsqE9y9kAmGYfv379fQ0Pjkk0+I4QsWLDAyMqqsrESDN7jfg0/ehr/7AbHZLC0tuVzujBkz8EA0rCKNdevWJSQk4GYLTZcBANSK1PNVFuglLoZhxKE/RHd3NxD8MGmkpKSw2eyNGzdqa2s/efJk7Nix9+7dkxbZycnpzp07JiYmXC737t27CsuXCpVyKV52ihlJTBgTE6Onp3fr1q1Vq1ax2eyurq7MzMzAwEB0VcRZNzMzO3r0KJvNLioqQm8rDhw4IDK/kgrkr26BMHdPhP/+97/oX3JTU9OMGTN++eWXmJgY/Cr6v4Vh2NKlS//73/+SmEuJqHknVEQe9VZWVhOrujJjY2OdnZ1pvDJT81amzQdmanBIfqypoDpTQ9vOkKAE5+aHH34IDAxcuXKl+CURF8zS0vLjjz8GAOIUJHHwGWT4EI5MXrx40dbWpqurKzL/v1evXqgVS0pKpKVFvYfYt3744QdTU9M///xz+PDhO3fu7OzsJDol4hgbGwcEBPTp0+fJkycbNmzYuHEjek+Meif1fEUQCoUJYlBZNYDevGIYhr/gxEGuPXkfPXLkSFBQUHJy8vbt2zMyMqytrVtbW318fJ4/fy4tibm5+bp16wDgwYMHMuXRhkq5FCw79YwkJnR1dUW7aR0+fLh///6DBw++dOkS2rDB3d1dWqqPP/74+vXrrq6uGIZdvXpVpjwRpC0nxJFm6fr373/nzp24uLivv/7awsKirq4Of4Xfq1cvX19fAIiLi2ttbe3du3fK36BxSkRmZmZOTo7Em6t5J1REHo1WVrCJVVqZpaWlZ8+e/fnnn+VVpWphEmFMDYKeqSH5saaC6kwNbTtDAv3jFxBoB57//Oc/FOPb2trm5eWJbzdJxNHR0dDQkMvl5uXlUbwtGg3r6Ohgs9ki7frRRx/l5uaSvIMUx87OLisrKyAg4P79+2FhYfHx8WfOnBEZExKhoqIiNDTU2Nh4586d5ubmiYmJb968oZ6jRLq6unBPHMfPz4+89gAAn43V2toqMs6MBpNI3rKVlJR88803QUFBdnZ2AODh4ZGfnz9+/PiKioqIiIjTp09LSzh69GiQ5c8pCJVyKVJ2uTKSlnbUqFHZ2dkdHR1cLhd1xbFjxwIAmpMuDX19/bCwsPnz55OYdWkQLQ4+pYPoNA8aNEhaWm1t7aCgoKCgIAB4+fLlnj17UPiiRYsMDQ3h74mTM2fOlJj8+++/nzJlChoWFUHNO6GC/YRGKyvSxCqtzC1btvB4PJGN8MvKygBgxYoVBgYGHh4eYWFhPS9MWkLG1CDk7YTy/liLozpTQ9vOkKDQyE1ycnJOTs7hw4epvyRDM6vR1svS0NbWnj9/PgA0Njbm5uZSuS3eA9DeCeI5slgsigoRTk5O+fn50dHRxsbGZWVlEydOJJn6np2d/cknnwwaNOjYsWO097EQR1dXN18MiUeHiGBlZYXeYuKz1XBQCNrMSiLnz58XCoVo83X8bsjQoCVs0kC/hcS5Y0qHSrkUKbtcGZHfQU9PD5mbu3fv5ubmDh48GD3VJKBBTRqz/IyNjUeMGIE+8/l89IH4RxC9npfJ0aNHkZ2ysbHZtWuXvDJEUPNOqJR+Im8r025ilVZm375937x5U/q/oI709OnT0tJSkmmkat7KtPnwTA2NH2tx1NPUSIO+c5OWlnbu3Lljx46JbPdE/ka5urq6V69eaP9mErZu3YqOjpLpZqIBEgsLC3TAG9rtkQjqIsjZpwjahFFbW3vt2rWPHj365JNPWltbifPzRZY8fPPNN1wuF52dITECdYgJNTQ0XMWguLkWWs+ZlZVFDKypqamqqrKysiIaFBHQPCd8gyaEu7u7iYkJviZTIo8fP9bR0VFkkRcVqJSLdtnlzUgmHA4nICBAQ0PjyJEjvXv3Jo/c2NgIADIfDYl899136AO+BgEfOJwwYQL6L/HkyZMZM2Z4enreunVL/A7FxcVo7y9jY+PffvsN/xM5c+bMmP8F/fFAhIaGfvPNN9JUqXknVEoTgzytrEgTq64y4+LiKsVA+9z89ddflZWVBw4ceCfCpMGYGnHIOyG9H2uJqMjUKGJnpEJjbxwMw+7cuTNnzhw+n08M7OrqiouLQ1sDSTx+oba2Fq1/ppLFjh07kEJpB7zxeLzFixdfuHABfUXzxocOHUqM09TUpK+v/8UXX+AK0T3RpnwI5JRs3boVD/H19W1tbcW/ou2l//3vf6OCA8CgQYOIMpAvfPXqVRTS3t6OzlzF95uikq/4nRWhrKxMR0cHnVKGgw74IJY0Nzf36tWrQqEQDzlz5gwAhIWFERMKBIJevXp5eXmhrx0dHcQkiLFjx0ZERNCQik7olbizlrg8KuWiWHZyaFcgDo/HmzFjhqamJsXt3jdu3Dhp0qTu7m6KColwuVxkI3x8fFDIqVOnUJdLSkpCIfhvqpGR0du3b4nJa2tr0XCCtbW1zP2yiAs0yCNTbwiRauyZTkhbHhG5WlmRJlbpEy3O559/DtSOX2BMjZqbGpk/1nLRY6aGup2RBh3nprCwsG/fvlZWVoP+FwMDA2NjY7RWCI0r2tra4lso8vn8uXPnTps2TXz3Xmls2bIF+Q2+vr7E07/b29vPnj3r7Ox86tQpPLC7u3vatGkAsGXLFjwwJCRk6NChtbW16Cs+iQkdZ4pAk7DWr1+Ph3h7e//www/417S0NF1dXVS/dXV1yPlNTU198uQJ2m8RTfAeO3ZsRkbGyZMn582bhyYgR0dHo/amkq/EOytCZGQkAKSkpKCvra2tAwcOdHNzw+u/trYWTWq+du0anqqjo8PNzQ29BMUDjx8/rq2tnZ2djWFYfX29gYGBmZnZvn37kJkWCoVhYWFz586l3rI4QqFw8ODBABATEyNySaI8KuWiGEcm9CoQUVJSMmLECAsLC9z5JhIYGOjq6nrmzBncVKWlpbFYrFevXlGXJwLa0NPMzAw9gGjDa39/fzwCvsEXAFRVVRETmpqaamlpBQUFiW9ZK45cRodKQ4hXY491QnrycEhaWRVNrKInWiLUnRvVCWNMjeKmhsqPtbz0jKl5B85NdXU1ybSSVatWoWhCoXDbtm2Ojo6Wlpa+vr5Lly6dMGHC7t27JTqeJBQXF/v7+6NxNhMTE3d3948//tjW1vbrr79++fKlSOTu7u7t27ebm5tPnTo1IiLC19f3q6++evPmDbqalZWFvB8A8PLySklJaWlpCQ0NRfNzTU1Nd+zYgWL6+PjY29t/+eWXJ06c2Lx58yeffHLx4kU8F9SWGhoaEyZMQKbq999/Ryve9fX1ly5dyuFw1q5dCwA6OjpxcXHU8xW/s4LExcXZ2tpu2LBh3759Li4uAQEBbDYbv9rc3GxkZKSlpZWTk0NM9erVq4CAAFNT07CwsF9//TU4OHjkyJH4uBSPx3NxcUHFGTlyJNoSWuJzRQ6fzz9w4MC8efPQrWxsbLZt24Y/3iTyZJaLehyZyFuBPB4vOTl58eLFVlZWUVFRxIE6IgEBAajULBZr5cqVixcvjo2NpWGvRUhKSrK0tJw5c+aWLVt69+4dEhJCvCe+Hbavry+GYQ0NDWvWrBk8eLCbm1tERATR7SZHXqMjsyEkNnTPdEJ68qi0soqaWBVPtETkcm5UJIwxNSQKqXRCij/WNOgBU6O4c6OB0Z0dQhE+n19WVobPiaF9k5KSktevX+vq6lpbWzs5OZGvGEIrwx0dHakf/0aEx+P16tWLz+c/f/68u7vb0dFRJLvHjx+bmJjgS9YBoLW1taKiwsnJCV+LXl5ebm5ujh8qRhHxOyuIQCAoKSlpaGhwdna2trYWucrhcHg8nng4ADQ0NDx+/Li9vX3o0KFDhgwh1iSGYUVFRdXV1RYWFiwWS+StuRIhkUdeLupxZCJXBV69erWurs7Z2dnFxYV8l4vS0tKKigoTExNHR0clTkLv7OzMy8tra2sbNWqUeC8qKChob2/39PTU0NBobm6urKxksVjipycqHZkNIa2he6YTyiuPYiurqIlV8USrrTDG1EhTSN3UqAj1NDVEVO7cMDAwMDAwMDD0JEp23hkYGBgYGBgY3i2Mc8PAwMDAwMDwQcE4NwwMDAwMDAwfFIxzw8DAwMDAwPBBwTg3DAwMDAwMDB8UVA/OZBZVMTAwMDAwMKgDsg/JorIZjuIHXDMwMDAwMDAwKIWTJ0+S+y2URm4MDAxu376taq0MDAwMDAwMDDIZNmwYeQRmEz8GBgYGBgaGDwpmQjEDAwMDAwPDBwXVCcXicLnc+Ph4dKKVq6vrsmXLlHJyREZGRm1trUjg5MmTSY5b2rhxY25ubkJCghKPZPowwDDs3LlzOTk5TU1Nw4cPX758OY0qun37Njqo3NHRcdOmTTo6OvTiKFFee3v7qVOnSkpKOByOvb19QEDA8OHDReLU19cnJyfn5uZ2d3d7eHgEBgb26tWLys1VqhwhFArPnz9vYWExadIk8atUSqdEVTKza29vv3TpkrTk/v7+Mh982tV1/fr1pqYm/Cufz3/9+vWmTZvkjUMPxR+f58+fr169+siRIxJP1qOhnIYkKs33DpuYiLqZGopP4vtramgrV119stns8+fPFxQU6Ovru7m5BQYG6urqUpEkWSUNsrKybGxs7OzsWCwWOlRy6NChTU1N9O5GpLq6+vTp0/gBaUuWLMnJyeHxeNLiCwQCAwMDADh37pziuX9INDY2enp6Tpw4sba2trOzMyoqytjYOD09nfod0tPTR44caWtr+9tvv/H5fNpxlCsvOzvb1tY2OjqazWY3NzcfPny4T58+sbGxxDipqakDBw5MSEhoa2vLyckZN26cq6trTU0NdXmqUI5hGLI1jo6OAPDrr7/SK50SVVHJ7ujRo9KsR79+/bq6ulQhDMOw6upq8fNxb926JW8ceij++AgEgnHjxoGUs7VpKKcniUrzvasmxlFDU0PxSXx/TQ1t5aqrzxs3bog4SY6Ojk+fPqVSXnHoODc1NTUuLi53795FX58+fWpvbw8AISEh9ESIs2TJElQ2LpcrM/KlS5ciIyPb29uVlfsHgFAonDp1qqGhYWNjIx44efJkIyOjiooKKnfYvHkzAHz55ZccDkeROMqVx+FwrKysgoODiYHh4eFaWlqPHz9GX8vLy3V1dUNDQ/EIjY2NFhYWAwYMULyTKFKx9fX1e/fujYmJ6dOnj0SLQ6V0SlRFMTs3N7fRo0eHhob+h8COHTv09PSCgoLIi6xIda1du3bixInBBMLDw2nEoYHijw+GYZGRkei4ZonOjbzKaUui0nzvqokRamhqKD4a76+poa1cdfVZVlZmaWkZExNz//79rKysDRs2oGE5V1fXzs5O8vJKhI5zEx4eLvK4oiHNMWPG0LibRNatWwcAenp6yrrhP42UlBQAWLhwITHw8uXLFH3QFStWAMD06dOFQqEicZQuLzk5GQAOHTpEDLxx4wYAHDx4EH2dPXs2AGRkZBDjfPvttwDwyy+/yCtVWcqJjB8/XqLFoVI6Jaqikl1hYaHEn7e8vDwASElJIVFFWxj2tzUkHwymEoceirfyvXv3vL29x4wZI9G5oaGcniQqzfeumhihnqaG4pP4/poa2spVV5+zZs26ceMGMcLZs2fRGEdmZiaJJGnQcW4ePXokHgIAPj4+NO4mkR9//BEA9PX1lXXDd8u+ffskDgyqjunTp4v/InI4HE1NTUNDQ/LxsOPHjwPARx99xGazFYmjCnl79+4FgOXLlxMDL1y4AADHjx/HMKyrqwv5+y9fviTGuXLlCgBYWlrSUKsU5USmTJki0eLILJ1yVVHJ7sGDB21tbeJp169fb2RkJPPtAO3q2r59++zZs+vr60luTiUOPRRs5ba2tjFjxtTU1Li7u0t0bmgopyeJSvO9qybG1NjUUHk03l9To4hyFdVnS0vL/PnzxROi9d579+4lK6QUaM65EeHMmTPa2toibiCGYW1tbVlZWYmJiYWFhR0dHdRvKK9zU1dXJzImJhAIcD2lpaWJiYkPHz6UmLaioiI5Ofnu3bsSZ/bILMK9e/cwDOvq6rpy5UppaanELBwcHNzd3SmWRXE6OzvRvLCioiKRS05OTgCQkJAgLW19fX3fvn0BYM+ePYrEUZG8zMxMANDW1s7KysID/fz8TE1Nm5ubsb/9bPEXmvfv30fhivwWKqKciDTnRmbplKuKXnYIOzu7gIAA8ji0hfH5fPzVu729/fr161+8eEEjDj0Ub+Vly5adP38ewzCJzg0N5crqeDhUmk+lTYypt6mh8mi8v6aGtnLV1SeXy5U43cfPzw8A4uPjKZRVFCUsBedyubt3705MTPzss8+I4bGxse7u7sXFxUZGRuHh4Q4ODnidKgsul3vy5Mlp06Z99NFH165dQ4E5OTkrV660sbGZMmVKe3v7okWLRowYsWDBAhaLFRERQUxeUVHh7++/bdu2tLS0OXPm2NjY/PHHHxSL8OzZs23btjk4OEyZMqWlpcXDw2PmzJkjR4588eKFcstIg+LiYh6PBwDm5uYil8zMzACgoqJCWtqEhITW1lYNDQ1fX9+kpKTNmzfv3LkzLS0NI+yHRCWOiuSNHz9+zpw5AoFgxowZaCx0165dt2/fvnbtmomJCQC8ffsWxXz9+jUxYb9+/dCH8vJyKiKVrpwKMkunXFX0sgOAgoKC58+f+/v7kxeHtrDc3Nyuri70uby8fNeuXfb29gcPHpQ3Dj0UbOVLly51dnYuWLBAWgQaypXb8ag0n6qbGNTb1FB5NN5fU0Nbuerqs0+fPjY2NuIJ2Ww2AHz66adUy0aEhkNEJC8vz8HBwcrK6tChQ8QXomgWzs8//4y+Pn78GABGjx5N8bYUR24ePXqUmJiIKnrfvn0osLm5OTExEQA0NTXnzp2bnJzc1taWnp6uq6urqamJT72uqKiwsbHBx1oqKyv19PQ0NDRyc3OpFOHmzZvBwcEAYGBgsGrVquTkZOSH1tbWiuvs4ZEbfFWn+CAhetUqMjxIxNXVFQBMTEy8vb2XLFkyZ84c1PkmTZr06tUr6nFUJA/DsLa2tgkTJqA7uLm5zZ8/v6GhAb/a2tqKLiUmJhJTcblcFP7777/LVKgi5TjSRm4wWaVTuioa2WEYFhYW1rt377dv36pOGIZhtbW1V65c8ff3R9NyASAuLo5GHHlRRParV69cXFxaWlrQV2mvpeRVrqyOh6DSfD3QxGpuamQ+Gu+vqaGtvIdNDZfLNTAw8PLyIo8mDfrOTWNj4/Lly3FfDwC+++47/Oq///1vANi+fTsegjw7masKEXK9lpo5cyYQnBsMw/h8PpJEfFc1Y8YMIAxwzZkzR+QlH4owd+5cikUoLS1FueD+kLT5bj3s3MTFxQGApqam+KVFixYBwLRp0yQmFAqFenp6ALB48eLu7m4UWFtbO2LECACYPXs2xTgqkofD4/EmTpyIKn/48OFlZWXEq56ensj8EQNrampQ/Pz8fJkKVaccQeLcYLJKp3RV8maHYdiQIUP8/f1lRlNWdT18+BCtxzQ0NJQ2CZdKHIoo8vh4e3sT386TODdyKVdWTSKoNJ+qm/i9MDUyH43319TQU97Dpubw4cN6enrkC0VJoP9ayszM7OjRo2w2u6ioCL2QOnDgQH5+Prq6bt26hISEVatWoa9odRkAtLS00M5RGmi1GxF8AwkLCws8EI16vXr1CgDQFJknT54sIvD8+XMAuHPnDsUioHx79+49evRoFILOKRUIBK3/S3d3t8RApVcFAr0WxTBMKBSKXEKZ4n8WRWhsbOzo6ACAoKAgTc3/3zesra1jY2MB4I8//igoKKASR0XycFJSUths9saNG7W1tZ88eTJ27Nh79+7hV2NiYvT09G7durVq1So2m93V1ZWZmRkYGIiuDhw4kPzmKlVOBfLSKV2VvNkVFRWh97kyC6Ks6nJycrpz546JiQmXy7179y7tOBShLTs2NtbZ2Vnk7bxMqChXYsej0nw90MTvhamR+Wi8v6aGnvKeNDVcLjcyMnLv3r0ODg5yFQ2H/g7FOB9//PH169c9PT0LCgquXr3q5uYGAMbGxgEBAQDw5MmTY8eO8fl89JpZdb/oMkH1jlrl6dOnXV1dM2fOXLx4sbT4FIuAP3U4f/31F/KXxW9I/Jqfn48GXZUOGk7DMIzL5aLpeDhoQBINQYmDd9n+/fsTwydOnPjRRx/V1NQUFRXhb0ZJ4pCXi7Y8xJEjR0JDQ4uKiuzs7Hx8fBYsWPDq1SsfH5+8vDw7OzsAcHV1zcnJ+eabbw4fPrx//35ra+v58+f7+PhkZGS4u7uT3xyvB3wVIs4XX3yhoHIqyCydOIqoopFdUlKSnp6ej4+PzLIosbrMzc3XrVv373//+8GDB9KyphIHR1oTa2tr05NdWlp69uxZNHFSXmQqV2JNUmm+Hmhi9Tc1VB6N99fU0FPek6bmhx9+CAwMXLlyJe0yKsG5AQB9ff2wsLD58+ejwQ9ERUVFaGiosbHxzp07zc3NExMT37x5o5TsFKesrAwAuru7yTe2p1cEW1vbNWvWEENOnDihp6e3cOFCYqDIE6tERo4ciT60traKdEE07ISGwcWxtLREy/k4HI7IpcGDB9fU1FRWVlKJoyJ5AFBSUvLNN98EBQWh58HDwyM/P3/8+PEVFRURERGnT59G0UaNGpWdnd3R0cHlctHzNnbsWAD417/+Ra4N0dXVhf+JwfHz81NEORUolk4E2qroZZeUlOTl5YXvIU6CcqsLjY+S/zuiEgchrYm1tbXpyd6yZQuPxxMZ7UB2ZsWKFQYGBh4eHmFhYfSUK7EmqTRfDzSxmpsa6o/Ge2pq6CnvMVOzf/9+DMP+85//0C+espwbAPj444+BULbs7Gxvb+/ly5dHR0crKwsRCgsLXVxc6KVFDUM+/E67CMOGDduzZw8x5Pr168bGxiKBqsPKysrW1vbly5e1tbUDBgwgXkLndqGdnSQybNiwgoICkVn08LdL/tFHH1GMoyJ558+fFwqFaFd7/G6nT58eN25cenq6SGQ9PT30zv7u3bu5ubmDBw8OCgoi14bQ1dXFX7Di9OrVy8DAgLZyKshVOmIceqpoZFdcXPzs2bPw8HAqxVGkocUxNDQEALTiVJE4CGlNTFt2375937x5g8/DQ1N6boYAACAASURBVKDJf0+fPtXR0bG1taWtXFk1SaX5eqyJ1dnUyPtovHemhp7ynqnP5OTknJyc+Ph4NM2DNko7FbyxsREA0DspAPjmm2+4XC7aWRKBUVu8R5G//vpL2j9LKgwdOhQAsrKynj59KnLp4sWLt27dAtUXQaWglahZWVnEwJqamqqqKisrK2InEwEtusvNzRUJR+2LjC+VOCqSh97Bi/yndHd3NzExwZfXisDhcAICAjQ0NI4cOdK7d2+Z2gBAQ0PDVQz0/pG2cirQKB2Cnioa2SUlJWlra6OVEVRQYnU9fvxYR0eH/DUElTgIkiamJzsuLq5SDDSh+K+//qqsrDxw4IAiypVSk1Sar8eaWJ1NDb0n8T0yNbSVq7o+09LSzp07d+zYMZH5HuIuoEyU5txcvnx50qRJXl5eAMDn8x88eAAAVVVV6CqPx0NDi6iQMuns7CS5WldXFxwcPHXqVPQVjeUSpzhJ9EKIQ76DBg1ydXUVCoWBgYHEMc/MzMz4+PhJkyZRKQLKRT09nhUrVujo6Ny8eZMYiL5+9913+DmreXl5165dIxYhODhYS0vrzJkzxMDOzs7Hjx+zWCwPDw+KcVQkD1l/kYmE3d3dfD5f4g8Dn88PDAysrq4+evSoxIlQ8kJRuUTxOOLT8RDylk5eVSKSaGSXlJT0+eefE9dIkkNPGDpKRuRWR48e3bhxI/5/kUoc2tDun1Sgp1wpkqg0X880Mai3qaHxaLxfpoaIXMpVWp/Z2dkHDx48ceIE8UxZgUBw7Nixhw8fyiyIKDRWWAUGBrq6up45cwZf+ZyWlsZisYgbD6C5YGPHjs3IyDh58uS8efPQwqXo6OikpCSZWSAnCQCIe/5yOJyCgoI9e/b07dtXT08PP98LrZ6PiIjAY+LDmJWVlXggmh+3fv169DU9PR35hhYWFqtXr46KivLz87Ozs8N3pJZZhMLCQpQLvq2FNHp4KTgiMjISCEfDtLa2Dhw40M3NDd9nuba2Fk2yRr0QZ8uWLQCwadMmPOTIkSM6OjrEI4upxFGFvI6ODjc3N0NDQ+Ii/+PHj2tra2dnZ4tkUVJSMmLECAsLiwsXLlBUpRTl0sQjhELh4MGDASAmJkbkklylk1eVuCR5sysuLgZZp1wpLqy+vt7AwMDMzGzfvn1oAbBQKAwLC5s7dy6ehEocBaH9+BD5/PPP4X+XgiuiXEFJVJqvZ5oYR21NjbyPxntnahRRrqL6LCws7Nu3r5WV1aD/xcDAwNjYmMZBpHScG7SGCABYLNbKlSsXL14cGxsr8mT+/vvvaKW0vr7+0qVLORzO2rVrAUBHR4d8l62TJ0+i0ytwtLS09PX1iY4qAKCNfTIyMkJCQpCP0q9fv8jIyLq6uqysrGnTpuHRUlJSWlpaQkNDkTNoamq6Y8cOlNfNmzfxNW8aGhoLFy6srq6mWIT9+/ezWCyU1tPTMyYmhsQ2vRPnBsOwuLg4W1vbDRs27Nu3z8XFJSAggHg+S3Nzs5GRkZaWVk5OjkjC06dPGxsb+/r67tu3b82aNSwWC9/LR644qpD36tWrgIAAU1PTsLCwX3/9NTg4eOTIkVevXsUj8Hi85OTkxYsXW1lZRUVFSTw3R0HIlUsTz+fzDxw4MG/ePNRtbGxstm3bJnIwoczS0VYlUZJc2W3atElTU7Ouro6KGNrCeDwePpdu5MiRS5cunTVrlojlpRJHcWg/Pjjizo2CyhWRRKX5eqaJiaitqaHyaLy/pkZB5Uqvz+rqavFdj3FWrVollzyEBkbrrUppaWlFRYWJiYmjo6M0Ta2trRUVFU5OTvr6+iikvLzc3NxcZEX0O6e2tra+vn7YsGHi++W8L0UgQSAQlJSUNDQ0ODs7W1tbi1zlcDg8Hk88HACEQmFZWVlVVRWLxZK27QGVOCqS19DQ8Pjx4/b29qFDhw4ZMoT4gvbq1at1dXXOzs4uLi5K2XiGhnJy8TIhKZ0iqqRJophdeXk5j8dzdnaWtzjyCsMwrKioqLq62sLCgsViSVy2QyWO4tDunyQoqJy2JCrN12NNTESdTQ35o/H+mhrFlavU1CgFms4NAwMDAwMDA4N6okK/iYGBgYGBgYGh52GcGwYGBgYGBoYPCsa5YWBgYGBgYPigYJwbBgYGBgYGhg8KxrlhYGBgYGBg+KBgnBsGBgYGBgaGDwrGuWFgYGBgYGD4oGCcGwYGBgYGBoYPCm3ZUaTA5XLj4+OLi4sxDHN1dV22bBm+jS/agvOPP/6orq4+duyYvHfOyMhA56cTmTx5sqWlJUmqjRs35ubmJiQkkEf7R4Fh2Llz53JycpqamoYPH758+XKKldPe3n7q1KmSkhIOh2Nvbx8QEDB8+HCS+M+fP1+9evWRI0esrKx6QF59fX1ycnJubm53d7eHh0dgYGCvXr1E4pD0T1UrpCJPBHoVqBS1FNuaRqF6RhiOGnZCxeUpSy2VymSz2efPny8oKNDX13dzcwsMDBQ59OZdCSPSk61MsYnV39QoRSERNpu9bdu2rKwsXV3d3r17R0REoBMeScAw7NKlS0ePHu3u7hYIBDU1NcOHD//+++/xcyQRFy9ejI+P19fXf/nypba29po1a/z9/WmqpHFkA4ZhWVlZNjY2dnZ2LBYLndk0dOjQpqYmdHX79u329vYAQO9Aperq6tOnT+O7ki9ZsiQnJ4fH45EkEQgEBgYGAHDu3Dk65fkQaWxs9PT0nDhxYm1tbWdnZ1RUlLGxcXp6usyE2dnZtra20dHRbDa7ubn58OHDffr0iY2NlRZfIBCgk+6JZ+ioTl5qaurAgQMTEhLa2tpycnLGjRvn6upaU1NDjEPeP1WqkIo8EehVoFLUUmxrGoXqGWE4atgJFZenLLVUKvPGjRsiv6aOjo5Pnz5958KI9GQrU2xi9Tc1SlFI5Pnz53Z2dnp6euhc6nHjxmlpaZ04cYIkSWdn5+TJkwFg0aJFAoEAw7CrV6+ibrZ9+3YURygUrlixAgCmTp2KkqBjQNasWdPV1UVDJx3npqamxsXF5e7du+jr06dPkSsTEhKCx0lMTKTt3CCWLFmCCs/lcqnEv3TpUmRkJI2zQz9IhELh1KlTDQ0NGxsb8cDJkycbGRkRz2UVh8PhWFlZBQcHEwPDw8O1tLQeP34sMUlkZCQ6nYS6xaEtr7y8XFdXNzQ0FA9pbGy0sLAYMGAA3vRU+qeKFFKRJw6NClSKWoptTa9QPSCMiLp1QsXlKUstlcosKyuztLSMiYm5f/9+VlbWhg0bdHR0AMDV1bWzs/MdChOhx1qZYhOrv6lRikIinZ2dbm5uAODh4YFC9u7dCwB6enoPHz6Ulio0NBT9mt+7dw8PRCfIamhooILHx8ejOFFRUSjC9u3bUcj+/ftpSKXj3ISHh4v0rUuXLgHAmDFj8JArV64o6NysW7cOVRntO/yTSUlJAYCFCxcSAy9fviyzWycnJwPAoUOHiIE3btwAgIMHD4rHv3fvnre395gxY+SyOLTlzZ49GwAyMjKIgd9++y0A/PLLL+grlf6pIoVU5IlArwKVopZiW9MoVM8Iw1HDTqi4PGWppVKZs2bNunHjBjHC2bNn0e9KZmbmOxRGpCdbmWITq7+pUYpCIidOnEAdY8WKFSjk5s2bIiHiII8KAC5duoQHLliwAAWmpqZ2d3dbWFigr3v37kURLl68iEKsrKxoDFvQcW4ePXokHgIAPj4+eIjizs2PP/4IAPr6+rTv8E9m+vTp4jaCw+FoamoaGhqSDIYhN3z58uXEwAsXLgDA8ePHRSK3tbWNGTOmpqbG3d1dLotDT15XVxf6Q/ny5UtiOOpslpaW6CuV/qkKhRTlEaFdgYqrxai1NY1C9YwwHPXshIrLU4pajEJltrS0zJ8/XzzhsGHDiL80PS+MSE+2MvUmVn9ToxSFRD777DPkcPzwww8opKCgAIX07t27ublZPIlQKESvwwDAzc0NHwtEs200NDSePXv27Nkz+Jt9+/ahCH/++SceeOHCBXml0pxzI8KZM2e0tbWJXiTRueHz+WlpaVeuXJHrPR8N56auro44jicQCHBJpaWliYmJJONmFRUVycnJd+/elTi5p62tLSsrKzExsbCwsKOjQzwCGm3r6uq6cuVKaWkpdc2qoLOzE00rKyoqErnk5OQEAAkJCdLSZmZmAoC2tnZWVhYe6OfnZ2pqKt5xly1bdv78eQzD5LI4tOWhxxLE3lTev38fhdfX10tMKN4/VaGQhjx6FagUtRi1tqZd56oWhqPmnfDdNjFGoTK5XK7E2UJ+fn4AEB8f/66EEenJVlakz6utqaGtkEh7ezvupmzevBkFPn78GHdBTp48KTEhKgvC29u7paWlsbGxb9++ALBp0ybs75EqxK5du1CqoqIiPHDnzp3yqlXCUnAul7t79+7ExETcpyOSmpo6YMAALy+vmTNnmpmZoddpimcqIuDkyZPTpk376KOPrl27BgA5OTkrV660sbGZMmVKe3v7okWLRowYsWDBAhaLFRERIZK8oqLC399/27ZtaWlpc+bMsbGx+eOPP4gRYmNj3d3di4uLjYyMwsPDHRwc8L717Nmzbdu2OTg4TJkypaWlxcPDY+bMmSNHjnzx4oVyyygXxcXFPB4PAMzNzUUumZmZAUBFRYW0tOPHj58zZ45AIJgxYwbqcLt27bp9+/a1a9dMTEyIMS9dutTZ2YkPLfaAvLdv36IPr1+/Job369cPfSgvLxdPRd4/lahQXnm0K1ApaoFaW9Or8x4QhlDzTvjOmxgoVGafPn1sbGzEE7LZbAD49NNP35UwnB5uZdp9Xm1NjSIKibx48UIgEKDPuJeDxpAQlZWVEhOioQrE9evXHRwcFixY4OTkdPny5a1btwJAnz59iCLRB6FQiAcSh3Yooqhzk5+fP2bMmNevXzc0NIh7LXV1dTt27Ni/f39qaioafvzpp5/wWULKoqamplevXkVFRd3d3Shk2LBhU6ZMqa+vFwqFixYtmjdvXltbW3p6uq6u7rZt24gN//z5888++ywqKiouLm7fvn137959+/atn59fXl4eipCcnLx69eovvvgiJCRk2rRpe/bsqays/Oqrr9DV6urqmpqaJ0+eYBgWERERHh7u5+dnYmJCbO+eB19Ij1xjIsbGxgBQXV1NkvzUqVMTJkzgcrmzZ88ePXp0fn7+o0eP0KtunLq6uq1bt/7f//1fT8pD4+QAQPToifdpamoSSULeP5WrUC55ilSgUtQiZLY1jTrvGWGg9p1QTZoYqFWmCG1tbUVFRV5eXvhsiXclrOdbmV6fV1tTo6BCIuStCQBVVVUSw5cuXbp27Vr86+vXr//8889PPvlkypQpKIQ4tPPw4UP0AffhAAC5gHJB37lhs9krVqzw9vYuKyurq6sLDg5etWqVSBwul3v58uV58+Z5eXkdPXp09erVALBz5070n0BZODo6zp8/f+zYsXiIiYkJmm8lFAp3797t6+trYGAwefLkKVOmCIXC7OxsPOaPP/746aefslgs9HXQoEGTJ0/GMOw///kPCiksLAQANEUfABwcHMzMzPLy8pADO2nSpJCQEAB4+/btokWLfH19L126xGazra2tlVhAeWlubgYATU1NojuMQL3/5cuXJMkNDAxu3LgxceJEAMjPzy8pKUE3xMEwLCgoKDo6WvyBVKk8IyMjT09PADh06BAxvLW1FX0g/gGl0j+Vq5C6PAUrUClqETLbWq4670lhat4J1aeJgUJlinPmzBmBQBAbG/tuhb2TVpa3z6uzqVFcIZFXr16RR6ipqZF2KTo6+uTJk8R2PHDggKenJ9Lcv3//RYsWofC//vqrpaUF/tdFs7W1lVctfefGzMzs6NGjbDa7qKgIjXEdOHAgPz+fGMfe3p7YZmFhYTo6OlwuF71tVS4inQMfNMPnYMPfTY63EJoi8+TJk0UEnj9/DgB37txBcdatW5eQkIB3BTRnGwBQ7eP59u7de/To0ShEQ0ND6aWTC/QSF8Mw4rAeAg1u4b6aNFJSUths9saNG7W1tZ88eTJ27Nh79+7hV2NjY52dnekNbCooLyYmRk9P79atW6tWrWKz2V1dXZmZmYGBgejqwIED8ZhU+qfSFVKUp2AFKkstgrytqReqh4WpeSdUqyYGCq1MhMvlRkZG7t2718HB4d0Ke1etLFefV2dTo7hCkfuQRxB5n0jk4cOHv//+u7m5+ahRo/DAgoKCuXPnos///e9/0aBdU1PTjBkzfvnll5iYGDwmcWiHKvJO0pEIj8dzdXUFgMjISBQibbUU8gC2bt0q857yTiheuHAhECZa468G29ra8DjBwcHE3EtLSwEgPDy8TBIi9y8rK1u/fv3333+Pdhd8/fo1CkcDcX369MFjdnd3nxaD3jZE9EDLKQGgpaVF5JKPjw8ALF68mCT54cOH8S0Wbt++jUahTE1NUciDBw/Gjh0rMqtarll+CsorLi4eN26cjo6OhoaGjY3NmjVrdu/eLbGz4Yj3T9UplClP8QpUolrytqZeqB4WpuadUK2aGKPcyjgrVqxYv379Oxf2bluZXp9XK1OjFIVE8AnLALBlyxYUSJwNQ9x3h0haWhpy4xISEvh8Pvohxrl+/TqK1tXVFRcX9/XXX/v5+f3www/4XtW9evV68+aNvGrpH79ARF9fPywsbP78+WjYgwRbW9u8vDx8WOXdUlZWBgDd3d3kG35XVFSEhoYaGxvv3LnT3Nw8MTHxzZs3JPG7urpwDxrHz8+vx0o9cuRI9KG1tVVkOBcNOJG8Ry8pKfnmm2+CgoLs7OwAwMPDIz8/f/z48RUVFREREadPn96yZQuPxxPZEhvV5IoVKwwMDDw8PMLCwlQkDwBGjRqVnZ3d0dHB5XLRPwn0RvJf//qXtCTU+6fiCmXKU7wClaVWZltTL1QPC1PzTqg+TQzytDICbZiGv5d/h8LebSvT6/NqZWqUopDIgAED8M/Y37N2iGNOgwYNEk/V0dHx1Vdf8Xi8/v37f/nllxoaGgcPHtTR0cHnUaWnp0+bNg0AtLW1g4KCgoKCAODly5d79uxBERYtWmRoaCivWqX93H788ccgyyLA3zOr0bbKilNYWIh2OaQH6kwkw7MAkJ2d7e3tvXz58ujoaIq31dXVFR/xo34Qj+JYWVnZ2tq+fPmytraW2B3h7/lr48ePl5b2/PnzQqEQ7XGO3+306dPjxo1LT08HgL59+7558wYNeuHw+XwAePr0qY6OjsyXo4rIw9HT09PT0wOAu3fv5ubmDh48GD0S0qDYP5WlkESe4hWoLLUy25p6oXpYmJp3QvVpYpCzlZOTk3NycuLj4ym+W//gTY28fR7UydQoRSERY2PjESNGoBZBDQGExU0AgGYCiVBaWorKMnz4cLxfbdu27fjx421tbfD3ujwRjh49itwmGxubXbt2ySsVQEmvpTAMQ7N08fElaa+lxo0b16tXLzRbmxyZr6UyMjLWrl2Lf6XxWgqtW9PU1ETLnYhcuHDh5s2bGIYhP4y4FRKaxEPyWkod+OGHH0BsbwA0N83KykriVj3EhElJSSLhJiYmpqam0lJ9/vnnIM+QO215IjQ3Nw8aNEhDQyMtLY08pkj/7BmF1OXJW4FKUUuvrakXqoeFqXknfCdNjMlTmampqV988YX4C/S8vLx3K4zIO2llufq8mpsaGgqJHDx4EP2w4rsn41vtTZgwAYWUlZVNnz7dw8MD/YbiE1gnTZpEvBXysQBgz549IrkUFRWhoz2NjY3xsyPkRQn73CAuX748adIkkRM+RXj16lVBQcHmzZvF1/SL09nZSXIVTfmeOnUqHoKmX+FDZJikpW74WnHEoEGDXF1dhUJhYGAgh8PBwzMzM+Pj4ydNmsTn8x88eACEFW48Hg/F7OjoIGYkMbt3yIoVK3R0dPCNsRHo63fffYcf9puXl3ft2jWiePQ6Ft90EtHd3c3n89GldyuPCJ/PDwwMrK6uPnr0KL6kUBpU+qdyFcolT0HoqaXR1vIWqseE0YCiNnF5RHqslVX9RGdnZx88ePDEiRPEt+cCgeDYsWP40tx3IkxBev5BVn9TI69CIoGBgeiNB76lDb5CCl92ExgYeO3atTt37syZM6e9vd3FxQWNLZWXlxP1t7e3A4Curi7xdxwAXr16tWDBAj6fb21tnZGRgWZZ0YGGQxQYGOjq6nrmzBmhUIhC0tLSWCzWq1ev8DhoXNHW1hbfQpHP58+dO3fatGkUXVG86okb/nI4nIKCgj179vTt21dPT4943gQ6cj0iIgJ9xXc3QieXItAULeJcufT0dE1NTQCwsLBYvXp1VFSUn5+fnZ0dvq01WmA1duzYjIyMkydPzps3D43cREdHo/8caK04SJoR9m6JjIwEgJSUFPS1tbV14MCBbm5ueP3X1taiqfjomUF0dHS4ubkZGhoSJxseP35cW1s7OztbWl40/pXSk4dTUlIyYsQICwsL8W25qfRPVSskkScRBf/W01Mrb1vLW6geE4ZQRSeUKA9Hrgp5J02MUavMwsLCvn37WllZDfpfDAwMjI2NZR7r8wGbGvImVn9ToyyFRM6dOwcAZmZmqGOg9yH+/v54BHwvQQCoqqrCCOM9+EBdQUEBekUlMmxz7tw5U1NTLS2toKAgiYc5UIeOcxMQEICEslislStXLl68ODY2VsRlEQqF27Ztc3R0tLS09PX1Xbp06YQJE3bv3o1XMQknT55Ex23gaGlp6evrE/9LAYCXlxeKn5GRERISgnyUfv36RUZGJiUloQlKKFpKSkpLS0toaCj6U2Jqarpjxw48u5s3b+IL5zQ0NBYuXFhdXY1f/f3339Fib319/aVLl3I4HLQZkY6OTlxc3P79+/E9cjw9PWNiYqiPZvcAcXFxtra2GzZs2Ldvn4uLS0BAAJvNxq82NzcbGRlpaWnl5OQQU7169SogIMDU1DQsLOzXX38NDg4eOXLk1atXSTKiZ7hpyOPxeMnJyYsXL7aysoqKiiK+c8Sh0j9VpJCKPIko/stHQy1Gra1pF0rVwkRQRSeUKI9ehbyrJsZkVWZ1dTXJUPqqVavelTCJ9IypodjE6m9qlKiQSFJSkqWl5cyZM7ds2dK7d++QkBDiPfFjAHx9ffHA06dPDxkyRE9Pb/ny5WvXrjU1NXVycrpy5Qq62tDQsGbNmsGDB7u5uUVERBCHJGijgdF6n1JaWlpRUWFiYuLo6Ej+jonP55eVlVlYWFhZWdHIqMeora2tr68fNmyY+GZKra2tFRUVTk5O6C0gAJSXl5ubm6MdJNUcgUBQUlLS0NDg7OwsvrUgh8Ph8XgStxxsaGh4/Phxe3v70KFDhwwZgnzHdy7v6tWrdXV1zs7OLi4uJFtoUO+fylVIUZ7qoNfc5G2tlEKpQpiyINcmLu/dtrLaPtFqK4yGPOpNrP6mRokKiXR2dubl5bW1tY0aNcrS0lLkakFBQXt7u6enJ3FmulAorK6ufvbsma6u7vDhw4lb0DU3N1dWVrJYLPxHVnFoOjcMDAwMDAwMDOqJSnxkBgYGBgYGBoZ3BePcMDAwMDAwMHxQMM4NAwMDAwMDwwcF49wwMDAwMDAwfFAwzg0DAwMDAwPDBwXj3DAwMDAwMDB8UFA6OFMoFD558kTVUhgYGBgYGBgYZGJjY2NkZEQWg8pOf2/evOkpwQwMDAwMDAwMZJw8eVI5OxQ3NTWpWisDAwMDAwMDg0wMDQ1FTmQSgdmhmIGBgYGBgeGDgplQzMDAwMDAwPBBQWlCsUyeP3++evXqI0eOKP10zLdv36ampmZmZr569UpbW9vW1nby5Mmff/65jo6OcjOSRnt7e0ZGRnJysqur68qVK3smU2WBYdi5c+dycnKampqGDx++fPly8RPOZHL79u3U1NQnT544Ojpu2rRJR0envb390qVL0uL7+/tTPPyMhjx6WYsXgYo85SonIhQKz58/b2FhMWnSJPGrbDb7/PnzBQUF+vr6bm5ugYGB5KOvtFXJVZn19fXJycm5ubnd3d0eHh6BgYG9evWiooqGMJzr168TX4jz+fzXr19v2rSJWIRTp06VlJRwOBx7e/uAgIDhw4dTVKUi2VwuNz4+vri4GMMwV1fXZcuWyXwcqPdPlT4yilTmB2ZqaOfLmBqJyFWfMp96qtA5Svx/EQgE48aNA/mPoZfJ/v37zczMrK2to6KiUlJSUlJSwsLCDAwM7OzsLl26pNy8JPLixYslS5b07t0bALZu3doDOSqRxsZGT0/PiRMn1tbWdnZ2RkVFGRsbp6enU79Denr6yJEjbW1tf/vtNz6fj4cfPXpUWnfq169fV1eX6uTJm7W0IiiCIhWLbI2joyMA/Prrr+IRbty4IWImHB0dnz59qgpV1CszNTV14MCBCQkJbW1tOTk548aNc3V1rampoVJk2tVVXV2trS367+vWrVt4hOzsbFtb2+joaDab3dzcfPjw4T59+sTGxlJRpSLZWVlZNjY2dnZ2LBYLiR86dGhTU5O0+HL1T5U+MopU5odnamjky5gakiTU61PmU08dJTg3kZGR6Mh1JTo33d3dS5YsAQBvb+/GxkbipRcvXrBYLACIiopSVnbkLF68GN4350YoFE6dOtXQ0JBYe5MnTzYyMqqoqKByh82bNwPAl19+yeFwRC65ubmNHj06NDT0PwR27Nihp6cXFBSkUnlyZU1SBNooUrH19fV79+6NiYnp06ePRItTVlZmaWkZExNz//79rKysDRs2oH9+rq6unZ2dSldFsTLLy8t1dXVDQ0PxkMbGRgsLiwEDBrS3t5MXWZHqWrt27cSJE4MJhIeH41c5HI6VlVVwcDAxSXh4uJaW1uPHj8nvLBN6smtqalxcXO7evYu+Pn361N7eHgBCQkIkxperf6r0kVGkMj9IUyNvvoypUVZ9kj/1cqGoc3Pv3j1vb+8xY8Yo17n56aefAGDgdSGvsQAAIABJREFUwIFcLlf86rNnz/T09ADgzJkzysqRhODg4PfOuUlJSQGAhQsXEgMvX75MYmqJrFixAgCmT58uFApFLhUWFkp8vPPy8gAgJSVFdfLkypqkCIqgYMUixo8fL9HizJo168aNG8SQs2fPov8umZmZylVFvTJnz54NABkZGcRo3377LQD88ssvJKroCUOgn1uSMY/k5GQAOHToEDHwxo0bAHDw4EFyVTKhJzs8PFzEBqKh+DFjxohHlrd/qvSRUaQyPzxTI2++jKlRVn3KfOrlQiHnpq2tbcyYMTU1Ne7u7kp0bp4/f44Gpvbs2SMtDupP5ubmbW1tSsmUBJnOzb59+ySO+71Dpk+fLm6YOByOpqamoaGhRJcR5/jx4wDw0Ucfsdls8asPHjyQWOfr1683MjKiOB5LTx71rMmLoAiKVCzOlClTxC1OS0vL/PnzxSMPGzYMAPbu3atcVRQrs6urC/2le/nyJTHalStXAMDS0pJEFT1hiO3bt8+ePbu+vl5ahL179wLA8uXLiYEXLlwAgOPHj5Orkgk92Y8ePRIPAQAfHx+RcBr9U6WPjCKV+eGZGrnyZUyNTFXU61PmUy8XCjk3y5YtO3/+PIZh0pybtra2rKysxMTEwsLCjo4OirddvXo1ciFfvHghLc7NmzdRnAMHDmAYVldXV1VVVVVVVVtbiyI0NTVV/Y3I4DkVVS0tLSkpKRkZGTweT6Zz4+Dg4O7uTrF0PUBnZyea7FlUVCRyycnJCQASEhKkpa2vr+/bty+5ZykROzu7gIAAVcujkjXtIshEWcolWhwulytxFoufnx8AxMfHq1oVQqQy0c8zAIiYrfv376NwEktEWxifz8dnA9jb269fv17cFGRmZgKAtrZ2VlYWHujn52dqatrc3EyxsMqVLc6ZM2e0tbVFBr1o9E9VPzK0K/MfZWrE82VMDT1VCJH6pPLUywX9peCXLl3q7OxcsGCBtAixsbHu7u7FxcVGRkbh4eEODg64oSTn6tWrANCrVy9bW1tpccaOHYsm+ly7dg0AKisrly5dOmjQoGnTpqEIVVVV8fHxdnZ2gwYNSk1Npa6qo6MjKCho+vTp5eXl9+7d8/LyKikpoSJbfSguLubxeABgbm4ucsnMzAwAKioqpKVNSEhobW3V0NDw9fVNSkravHnzzp0709LSMNL9kAoKCp4/f+7v769qeVSypleEnlcuQp8+fWxsbMTD2Ww2AHz66ac9oEq8Mt++fYs+vH79mhizX79+6EN5ebnSheXm5nZ1deH337Vrl729/cGDB4lxxo8fP2fOHIFAMGPGDDQqvmvXrtu3b1+7ds3ExER2UaWjrPrkcrm7d+9OTEz87LPPiOE0+qeqHxnalfnPMTUS82VMDW1V4vVJ5amXC5pLwevq6rZu3Xrr1i1pEZKTk1evXv3zzz+HhIQAwMCBAx0dHb/66qvc3FzyO7e3tyNzOWTIEA0NDWnRDAwMzMzM6uvri4uLAWDcuHHr16//888/8QguLi4uLi5//PFHYWEhdVXd3d1eXl5aWlp//vknmtazcOFCZ2dnClWiRtTW1qIP6F8FEWNjYwCorq6WljYhIQFF+/bbby0sLN68eZORkcHhcCZNmnT69GlpS/1/++233r17e3t7q1oelazpFaHnlVOhra2tqKjIy8sLTU1VtSrxykQj1QBQVFQ0dOhQPBzPi2TvctrCxo8fz2azX716VVRUdPz48eTk5M7Ozm+//RZNP8SjnTp1asaMGZmZmbNnz3Zzcxs8ePCjR4/Eza68KKU+8/PzFy1a1Nra2tDQgGEY0ZTR6J+qfmSAbmX+c0yNxHwZU0NblXh9UnzqqUNn5AbDsKCgoOjoaPES4iCXAg2uAICDg4OZmVleXp5AICC/eWNjI/pgZ2dHHtPU1JQYX+KuG2gVN3VVx44dy8rKioyMRJ4NAAwcOBAfDXpfaG5uBgBNTU00VZ4IarKXL19KTIhhWGlpKQDMmjUrJSUlPj7+4sWLpaWlI0aMuHXrFno9J5GkpKTp06eL1LbS5VHJmnYRel45Fc6cOSMQCGJjY3tGlXg7GhkZeXp6AsChQ4eIMVtbW9EHiX8BlSLM2trax8fnt99+KykpQQZ3zZo16J4IAwODGzduTJw4EQDy8/NLSkqIV2mjoGw2m71ixQpvb++ysrK6urrg4OBVq1bhV+n1T5U+Mgh6lfnPMTXi+TKmRhFV0tpR5lNPHTrOTWxsrLOzs8hYqwjr1q1LSPh/7L15QBPH//8/QCAcgoAgVyOHomAEfXMIingVPPBARasfirYiVvStBbUIYt9UeQut9l1F33ihKB54oTUeoIK2CApyCaUqIJdyyBUugwln9vfHfLu/fedYNpsEkO7jr2R2dvY5r5l95ZXZ2Zl49K6Gs14AAG1tbfiFo++49xsGwTE0gos4EVQVHh6urq4+c+ZM7FnoCDwqrP1/6evrE5lIXJhsgXEegiB8Pl/gEFSFhncCNDU1dXV1AQB8fX0VFf9f3zA2NoY9/s6dO3l5ecJn5efnl5eXExwolkYekUuTq8LAKycCh8PZt2/fkSNHrKysBkCVuHaMioqi0+m//fbbtm3b2Gx2T09PWlqaj48PPGpqaipvYRMnTnz27JmOjg6Hw8nMzMQeSkxMZLPZu3fvptFoJSUlTk5Oz58/J1ImDlLK1tPTO336NJvNzs/Ph07y+PHjubm58Ci5/inXWwaFhDH/Jq5G5HUpV0NaFZF2xLnrCSLxY6mXL19euXIFTkDDQVtb29vbGwBQUlJy9uzZzs5O+Dit3598PT09JSWlvr4+/K06ORwOHLORaLlGfFX19fU1NTX9Lsr55MkTOEtLuHDs19zcXHt7e+LaZAiMxhAE4XA4AqNr8A83fD4qDNplR48ejU2fM2fOZ599VlNTk5+fL1yphIQEOp2+aNEiecsTRvjS5KogAJ/PR1+MRFm9erUMlRNh586dPj4+/a6LLStV4trR3t4+Kytr8+bNp06dOnbsmLGx8apVqxYtWpSamurs7IxTuAzNpa+vv2PHjn/9619//vknqjAmJiYoKCg/P9/CwmLRokVffPHF+/fvFy1alJOT0++4r7gmptFospI9ZcqUBw8ezJgxIy8vLykpycHBAZDtn3K9ZSDkjPk3cTUir0u5GtKqCLajyLueOBIHN3v37uXxeAIxV3FxMQBg48aNGhoaLi4uISEhAIDy8vKgoCBtbe0DBw7o6+tfv379w4cP/ZZPp9Pt7OxycnJev37d19cnLhJEJy7BMXPi4KgqKioCBMIvBoMRGBiITTl//jydTl+zZg02UaDHDyQ2NjbwQ3t7u0AXhGNU4p6qGhoawtf5WltbBQ6Zm5vX1NRUVlYKn5WQkODu7q6lpSVveUQuTa4KAvT09KAjEyjLli2TofJ+OXbsGIIgP/30U785ZaUKpx0nT56ckZHR1dXF4XCg/3JycgIAfPnllwMgDOLo6Agwt2dhYeHmzZt9fX3hT6+Li0tubq6rq2t5eXlYWNilS5fwSxPXxDQaTYayVVVVQ0JCVq1aVVFRAVPI9U+53jJACmP+TVyNyOtSroa0KuLtKHDXS4TEwc3IkSM/fPgAnzWidHZ2AgDevHmjrKwMX3HKyMhYsGCBn5/foUOHJL3EqlWrcnJyOBxOQUGBuMgXziMGAKxYsYJ4yfiqYCAF1/PAmcs8fvz4w4cPY1MePHigra0tkDiIGBkZMRiM6urq2traMWPGYA/BGWFwZSeRjB8/Pi8vT+DVGPBXSP7ZZ58JpBcUFJSVlYWGhg6MPCKXlrQKwqioqKDPEVDU1NQ0NDRkorxfWCxWVlZWXFwcTj9EkYk9ibQjnU6Hc9EyMzOzs7PNzc3xJ/rJqqEhmpqaAAD4xikA4Nq1a3w+H278gl7u0qVL06ZNe/ToUb+liWtimcueMmUK+F+nT6J/yvuWIW3Mv4Orwbku5WpIqJKoHQXueomQeM5NbGxspRBwnZsnT55UVlYeP34cALB582YOhwOX2oMQfzvO398fDnvgbEhx8eJFAMD06dPhmkLiriIQ8eGrgg+kurq6njx5QlDqkAW+op+eno5NrKmpefv2rZGREdaLCQDfAxR+qQ0+BBTuZAkJCTQaDS5iOwDyiFxa0ioIo6CgYC8EfKwuE+X4pKSkXL169ezZs+iDfIiwE0SRXhXxdmxtbfX29lZQUIiJiel3XqcMzVVUVKSsrIz+24HTHQT+/Dk7O+vo6KAvlOKA08SylQ17HXwmBSHXP+V6y0hjzGHvanCuS7kaEqokakeBu14ypFkkB2X27NkAs4gfj8eDYWBSUhJM4XK5cLtRgsvyJCcnKyoqqqqq5uXlCR+FC+GMGjWquLgYTYSr0ejo6KDr8nV0dMAgKSEhgaAq2Dbz5s3r6+tDS165ciUAICwsTJzaobaIH4IgxcXFysrK8+bNwybGxcWB/12NMDs7OykpCbtq+KtXr5SUlBgMBjaxq6tr1KhRTCZTeMc4S0tLNze3AZNH5NKSVkEeyvHFwx16Ra5q/ezZs+XLlwusgtrT0xMbG4uzuJb09iTYjjwez8PDQ1FRkeCS3OSEdXV1CYt0cnLC3oOXL18GAISEhGDz9Pb2qqmpubu7E9Emc9ki2b1799y5c7H+hFz/lOstI40xh72rwbku5WrEqSJhTyJ3vUTIJbhBEAS+IOrk5JSamnrhwoWVK1caGBgAAA4dOgRDjX65c+fOiBEjjIyM7t69i00/ceKEqqrqmDFjsrOzseldXV1wXYE1a9akpaWdPXt2wYIF8G2FJUuWwN3s+lWVmZkJX9fy8vLKzs6uq6s7dOgQLNbc3PzgwYNtbW3CUodgcIMgyL59+wBm54729nZTU1MHBwc0+KutrUUXQsSeuHfvXgDAnj170JSYmBhlZWXhrVnhw0FyW/mQlkfk0sSrIA/l+OL5fL65uTkAICoqSuDQixcvRo4caWRkZPa/aGhoaGtr4+9SKY09CbZjYWHhpEmTDAwMbt68iZ9TGmENDQ1wFavo6GgYE/D5/JCQkBUrVmAt3NXV5eDgoKmpid2u79y5czQaLSMjg7g8WclGEMTHx8fe3v7y5cuoj05JSWEyme/fvxconFz/lN8tI6Uxh7Gr6fe6lKuRiT0J3vUSIa/g5vbt2/BVeFVV1fXr17e2tm7fvh0AoKysHBsbS7DY0tLSr7/+Wl1d3dbW9uuvv161apWpqSmDwdi+fXt7e7tw/pSUFHS29sKFC2tra318fMzMzHbu3AkjISKqnj17hi5WpqGhER0d7e/v/9lnn3333XcvXrwQqXNoBjcIgsTGxjIYjODg4OjoaDs7O29vb+wGKC0tLVpaWkpKSllZWQInXrp0SVtb29PTMzo6OjAwkMlkCoSSkD179igqKtbV1Q2wPCKXJlgFeSgXJ76zs/P48eNwIBAAYGJiEhERgfqIqqoqnDXTtm3bJqUqHHviG5PH47FYrHXr1hkZGYWHh5PYzU0iYTwez87ODtbaxsZm/fr1S5YsERlOvX//3tvbW1dXNyQk5MyZM/7+/jY2Nui4rPRIak/4JiYAgMlkbtq0ad26dUePHhXnmsn1T/ndMlIac7i6GiLXpVyN9PYkftcTRwGReqFocbS3t5eXl0+cOBFdiqa0tFRfX1/glel+qaiocHZ2hk8xJ0yYkJeXp6GhIS5zZ2dnUVGRkZERfEW8oaEBjs1Iqqqurq6pqYnJZCopKdXV1RkaGhKZbzUE6e3tLSwsbGxstLW1NTY2Fjja2trK4/GE0wEAfD6/uLj47du3TCZT3FompaWlPB5PmhWcScsjcmkiVSANvnKAK15+kLMnvjGTkpLq6upsbW3t7OxIr64hkTAEQfLz86uqqgwMDJhMJv5bFY2NjUVFRVwud9y4cWPHjhWYPSAlktrz5cuX5eXlOjo61tbW/S7vS65/yvWWkcaYw9LVELwu5WoISsKxp0R3PRHkGNzIkJycnIULF8KVbzw8PFgsFtypmIKCgoKCgoJCAFn+y5Efjo6OmZmZ8KXKpKSk6dOnl5WVDbYoCgoKCgoKiqHIpzFyA0EQ5M6dOzExMU+fPu3q6lq+fPnq1avHjx8/btw4+NITBQUFBQUFBcWnFNyg9PX1vXr1qq6urqWlpaOjY968eTJ/zElBQUFBQUHxifJJBjcUFBQUFBQUFOL4NObcUFBQUFBQUFAQhApuKCgoKCgoKIYVVHBDQUFBQUFBMaygghsKCgoKCgqKYQVNJqVUVFQEBATExMTAbZjgUoN37typqqo6e/aslIV//PgxOTk5LS3t/fv3NBqNwWB8/vnns2fPHsh1/LhcbmpqKovFsre337Rp04BdV0oQBLl69WpWVlZzc/OECRP8/Pzgws04cLncW7duiTvq5eWFruzc0NDAYrGys7P7+vpcXFx8fHzU1NSGjjwul3vx4sXCwsLW1lZLS0tvb2+467u8FQJJLPPgwQO4NCWks7Ozvr5+z549kuokp5agMYnbfICFgUHqhBJdenCbGEjYfKTVDjNXI5HRPglXgyLwY00O+dlTJsb8/1VKSW9vL9xMG91bKjIy0tLSEgAg/Y5Lx44d09PTMzY2Dg8PT0xMTExMDAkJ0dDQsLCwuHXrltTaCfHu3buvvvpKXV0dCG3HOpRpamqaMWPGnDlzamtru7u7w8PDtbW1Hz16hH/W6dOnxXWVUaNGofvcJicnm5qaxsfHd3R0ZGVlTZs2zd7evqamZojIy8jIYDAYhw4dYrPZLS0tp06dGjFixNGjR4nLI62QuGWqqqrgLq1YSO+3R0ItQWMSzDbwwgarExK/9KA3MSJJ85FWO/xcDXGjfRKuBkX4x5oE8rOnTIyJIoNXwcPDw8PDw/v6+srKysaOHQsTExISvvjiC2dn58zMTHLF8vl8X1/f8+fPL1iw4OLFi+iOmACAqqoqDw+PV69ehYeH/+tf/5JSP0G++uqrCxcu7N+/n/S/roEEQZAFCxZkZmZWVFSgpnNzc8vJycnPz7ewsBB3oqOjo4KCwuzZs0eNGoUtbe/evV9++WVsbCwAoKysjMlkBgQEHDx4EGZgs9mTJk2i0+nFxcVE/lTJVV5bW9vEiRM9PT1PnDiB5tmzZ8+BAwdevnxpZWXVrzzSCiWyzI4dOwoKCrD/S3R1dSMiIojIk4laIsYknm2AhQ1iJyR+6UFvYiBJ85FTOyxdDUGjfSquBkXkj7VEyM+eMjGmoFZpeP78+YIFC6ZOnQr+Nxi8d+8ekG7k5ocffgAAmJqacjgc4aNlZWV0Oh0AcPnyZdKXkAh/f3/w6YzcJCYmAgDWrFmDTbx79y4AYOvWreLOevHiha+vr3B6Tk4OwOxxv3TpUgBAamoqNs+WLVsAAL/88sugy2OxWACAkydPYvM8fPgQAHDixAki8kgrJG6Z1tZWIyOj5uZmgnpkrpagMQlmG3hhg9UJiV960JsYkaT5SKsdfq6GuNE+CVeDIu7HWiLkZ0+ZGBOLVMFNR0fH1KlTa2pqnJ2dZRvcVFRUwAHSw4cPi8uzceNGAIC+vn5HRwe5q0jEpxXcLFy4ULhPtLa2KioqampqiowXEQT5888/RRpz165dWlpanZ2dCIL09PTA2U7V1dXYPLDFDQ0NB1cegiBHjhwBAPj5+WHz3Lx5EwBw7tw5IvLIKZTIMpGRkUuXLm1oaCCoR+ZqCRqTYLYBFjaInZD4pQe9iRFJmo+02uHnaogb7ZNwNRCcH2uJkJ89ZWJMLFIFNxs2bLh27RqCIPjBTWdnZ0pKyr1794j/LQgICIADS+/evROX5/HjxzDP8ePHEQSpq6t7+/bt27dva2trYYbm5ua3f8HlcgVO7+joSE9Pv379+osXL7q6ukReoq2tLTExMTU1lcfjfULBTXd3NxyWzM/PFzg0ceJEAEB8fLxEBVpYWHh7e8PPr1+/hmYX6Md//PEHTO/XP8pVHoIgaWlpAAAajZaeno4mLlu2TFdXt6WlhUiB5BQSt0xnZyc6/87S0nLXrl04/VxOasUhYExpsslP2CB2QoKXHspNjAg1H2m1fytXI9znh76rQcH5sSaOXO0pvTEFIP8q+K1bt7q7u7/44gv8bMnJyWPGjHF3d1+8eLGenl54eDhCYJZPUlISAEBNTY3BYIjL4+TkpKSkBAC4f/8+AKCysnL9+vVmZmbz58+HGd6+fRsXF2dhYWFmZpacnIw99+jRo87OzgUFBVpaWqGhoVZWVmh3gXR1dfn6+i5cuLC0tPT58+fu7u6FhYX9yh4iFBQU8Hg8AIC+vr7AIfiUtLy8nHhpeXl5FRUVXl5e8OvHjx/hh/r6emw29GFqaWnpIMoDALi6ui5fvry3t9fDwwOOlx48ePDp06f379/X0dEhUiY5hcQtk52d3dPTgyYePHjQ0tIS+6RZImRoT2FjSpNNfsIGsRMSvPSQbWIgqvlIq/37uBqRfX7ouxoIwR9rOakViTz8tgAkg5u6urr9+/f/97//7Tfbjz/+eOzYseTkZDjc9MMPP0RGRuKfxeVyYduMHTtWQUFBXDYNDQ1o0IKCAgDAtGnTdu3ahc1gZ2f3ww8/TJkyReBEFosVEBCwevXqrVu3zp8///Dhw5WVlV9//TWaoa+vz93dvbKy8vfffw8ICAgODr506dLLly/xZQ8damtr4YeRI0cKHNLW1gYAVFVVES/txo0b6urqCxYsgF/Hjx8PP+Tn52OzodfCvko68PIgFy9enDlzJofDWbp0qaOjY25u7uvXr+HDZiKQU0jcMq6urmw2u7a29t69e15eXkpKSt3d3Vu2bCG3boIM7SnSmKSzyU/YIHZCgpcesk0MRDUfabV/H1cjrs8PcVcDCP9Yy0+tSOThtwUgE9wgCOLr63vo0CHhGgrA4XDu3r27cuVKd3f306dPw4dNBw4cYLPZOGc1NTXBDzgz7SG6urrY/CKniMNXuLG8ePECAABHfQAAVlZWenp6OTk5vb29MOXs2bPp6en79u2Dc5YBAKampuiA0NCnpaUFAKCoqDhixAiBQ7DJqquriZeWkJCwcOFC1IxaWlozZswAAJw8eRKbrb29HX4wMTEZRHkQDQ2Nhw8fzpkzBwCQm5tbWFgIL0oQcgoltYyxsfGiRYtu3LhRWFgIl04IDAyUSKc0akUi0piks8lP2CB2QokuPQSbGIhvPhJq/z6uRpzRhrirIf5jLT+1IpGH3xaATHBz9OhRW1vbWbNm9ZvT0tISa4WQkBBlZWUOhwOfrokDXWsBjTbEAYOkftcQE2DHjh3x8fHbtm2DX+F0HABAW1sbTAkPD1dXV585cyb2LOw7bEMcGOQhCMLn8wUO9fX1AUxg1y/5+fnl5eUCg7FRUVF0Ov23337btm0bm83u6elJS0vz8fGBR01NTQdXHiQxMZHNZu/evZtGo5WUlDg5OT1//pxgsaQVkrPMxIkTnz17pqOjw+FwSCydICt74hiTRDZ5CxvETkji0kOkiQGx5iOu9m/iavCNNpRdDfEfa7mqFUBOflsAiYObly9fXrly5d///jeRzAIPlQwNDeFDoqKiIpyz9PT0oI3wRx05HA4csyG4oiiKtra2t7f3iBEjSkpKgoODd+/eDZ83w+apr6+vqanBmesDAODz+fFC9BuKDRgwDkMQhMPhCByCoT120SB8EhIS6HT6okWLsIn29vZwzahTp06NHj3a3Nz81q1bMI+zs3O/hctbHgAgJibG19eXxWJFRkampqYaGxu3t7cvWrSooqKCSLGkFZK2jL6+/o4dOwAAf/75JxGFMlErgDhjkssmb2GD2AnJXXooNDEg3HwE1f5NXA2O0Yayq5Hox1quagWQk98WQOLtF/bu3cvj8QRiruLiYgDAxo0bNTQ0XFxcQkJCxJ3OYDBycnKE18HEQqfT7ezscnJyXr9+3dfXJy4YROcuwQE6iSgvLw8KCtLW1j5w4IC+vv7169c/fPgAD8HACwY64ujp6UFjZJRly5bh12vAsLGxgR/a29sFRiPh6BQccyZCQkKCu7u7lpaWQPrkyZMzMjK6uro4HA7s0E5OTgCAL7/8ctDlFRYWbt682dfXFz7WdHFxyc3NdXV1LS8vDwsLu3TpklwVkraMo6Mj6K/jyVwtFnFtTS7bAAgbxE5I7tKD3sRAkuYjovZv4mrEaRvirkbKH2vZqsUiJ78tgMQjNyNHjvzw4cPL/6WzsxMA8ObNm5cvX+JPKYJv59va2uJfZdWqVQAADocDJwuLBD20YsUKiaqQkZHxj3/8w8zM7OzZs8KzvmEsBdcPEFeCiopKrhCSbnciP4yMjODIEzr/CwWmuLq6EimnoKCgrKwMx7x0Oh3eVJmZmdnZ2ebm5r6+voMu79q1a3w+H64yjl4R3huPHj0iUrL0CklYRlNTEwAA36iUCJnYs9+2lijbQAobxE4o6aUHt4mBhM1HRO3fwdXgaBvirkbKH2t5qAXy9NuCkHh9XJjZs2cDYov4TZs2TU1NrbGxEb/ADx8+jB49GgCwadMmcXnmzp0LAJg+fTqakpqaCgBgMpkCVwQAsFgsNAWGVq9fv0ZTDAwMAAD19fUIgqAv1/3+++/Ycj6hdW4QBNm5cycA4MCBA9hEONvLyMhI3Lo+AoSGhtJoNDabjZ+tpaXFzMxMQUEhJSVlKMiDhSckJAik6+jo6OrqDqRCiSxz5swZZWVlcquhSK+WYFsTzDbwwgarE0p06cFtYkTC5iOodti7Ghxtn6KrEf6xlgj52VMmxsQyoMFNbW2tiopKREQEkTKTk5MVFRVVVVXz8vKEj8KFcEaNGlVcXIwmwqVodHR0UBN3dHTAIAk1GY/HgzOBkpKSYAqXy1VRUQGYBQNhPDRv3ry+vj608JUrVwIAwsLCiIgfdIqLi5WVlefNm4dNjIuLE4jPsrOzk5KS+Hy+yEIsLS3d3NzwL8Tj8Tw8PBQVFc+cOTNE5F0T2EoWAAAgAElEQVS+fBkAEBISgk3s7e1VU1Nzd3cfMIU4lunq6hI+xcnJiXTvkl4tkbYmnm2Ahcm1E+LLE3fpIdjEiHhjSqN22LsaHG1D39UII2VwIz97ysSYWOQV3MBxJAaDgS6h2NnZuWLFivnz5xP/S3Tnzp0RI0YYGRndvXsXm37ixAlVVdUxY8ZkZ2dj07u6uuA27mvWrElLSzt79uyCBQvgRPElS5ZkZmbCbPA1OScnp9TU1AsXLqxcuRKO3Bw6dAjGQJmZmXD2jJeXV3Z2dl1d3aFDh2DJ5ubmBw8ebGtrI22rAWPfvn0As3NHe3u7qampg4MDav/a2lp0FUTh0+FTP/xNPQoLCydNmmRgYHDz5s2hI6+rq8vBwUFTU7O8vBxNPHfuHI1Gy8jIGBiFOJZpaGiASzRFR0fD6JnP54eEhKxYsYL4rSFbtUTamni2ARYm106IL0/cpYdgEyPijSm92mHsavC1DXFXIxIpgxsp1Q6A30aRV3DD5/MjIiKsra0NDQ09PT3Xr18/c+bMn3/+WVzkLo7S0tKvv/5aXV3d1tb266+/XrVqlampKYPB2L59e3t7u3D+lJQUdML2woULa2trfXx8zMzMdu7ciUZCt2/fhi+oq6qqrl+/vrW1dfv27QAAZWXl2NhYmOfZs2fjxo2D5WhoaERHR/v7+3/22WfffffdixcvyNppoImNjWUwGMHBwdHR0XZ2dt7e3tjBwJaWFi0tLSUlpaysLOFz9+zZo6ioWFdXJ3yIx+OxWKx169YZGRmFh4eT3ttLTvIQBHn//r23t7eurm5ISMiZM2f8/f1tbGzQsTr5KSRiGR6PZ2dnB7uWjY3N+vXrlyxZQsJlS68WBd+YkmYbGGED0wlFyuv30kOwiRHxxpSJ2uHqavrt80PZ1YhE+uCGhFqUgfHbEAWEwGYI0tDZ2VlcXGxgYABHPshRUVHh7OwMX/yeMGFCXl6ehoYGzhWLioqMjIzgK+INDQ1wYAZLe3t7eXn5xIkT0TVySktL9fX14TKLKHV1dU1NTUwmU0lJqa6uztDQEGfF5KFJb29vYWFhY2Ojra2tsbGxwNHW1lYejyecDgAoLS3l8Xgip34nJSXV1dXZ2tra2dkRX8diwOShNDY2FhUVcbnccePGjR07VlGRzKpOEikkaBkEQfLz86uqqgwMDJhMJpFXV+ShFoWIMYlnGxhhA9YJheURufRQa2KAa0yZqB2WroZgnx+yrkZ+yM+eMjEmAEDuwY2syMnJWbhwIVz5xsPDg8ViwRevKCgoKCgoKCiwkN84c4BxdHTMzMyEawAmJSVNnz69rKxssEVRUFBQUFBQDDk+mZEbCIIgd+7ciYmJefr0aVdX1/Lly1evXj1+/Phx48bBN54oKCgoKCgo/uZ8YsENSl9f36tXr+rq6lpaWjo6OubNm9fvPiMUFBQUFBQUfwc+1eCGgoKCgoKCgkIkn8ycGwoKCgoKCgoKIlDBDQUFBQUFBcWwgtAu1r29vXA7BQoKCgoKCgqKwcXe3h7u4ikOQnNuPn78SE3XpaCgoKCgoBgKnDhxYtWqVTgZqAnFFBQUFBQUFMMKas4NBQUFBQUFxbCC0JwbcTx48ADuhwDp7Oysr6/fs2ePNGWmpqbW1tb2m83BwWHChAnSXOjvAIIgV69ezcrKam5unjBhgp+fH9xviwj9Nm5DQwOLxcrOzu7r63NxcfHx8VFTUyMhks/nX7t2zcDAYO7cuQRPIVIvaeouEwEi4XA4cXFxBQUFCILY29tv2LAB3d0MC7k7i81mR0REpKenq6ioqKurh4WFzZw5s19Jv/76a1xcnKqqanV1NY1GCwwM9PLyEs7W0NAQGhqalpbGZrNtbGz8/PzWrVvXb+FARg1RUVEREBAQExODs0UdkTwSIalyLpd769YtcUe9vLwE2ppEK8vEmE+fPk1OTi4pKbG2tt6zZw+6j400dzTlaj4tVyNpX5WJKi6Xe/HixcLCwtbWVktLS29vb+yPuJSSRKskR1VVFY0mGBv99ttvpAtEi7106RK6c5uXl9fWv/jmm29Wr14N9+I6fPiwlBca9jQ1Nc2YMWPOnDm1tbXd3d3h4eHa2tqPHj0icm6/jZucnGxqahofH9/R0ZGVlTVt2jR7e/uamhqJFEJfY21tDQA4c+aMDOslTd1lIkAk6enpJiYmFhYWTCYTmnfcuHHNzc0C2cjdWRUVFRYWFnQ6vbKyEkGQadOmKSkpnT9/HucUPp+/ceNGAMC8efMQBOnu7oYb2gUGBvb09GBz5uTkjBo1SkDShg0b+q2yTBqit7d32rRpAHcrYyJ5JIKE8tOnT4tzs6NGjRIwKYlWlt6Yjx49srGxYTAYN27c6OzsxB6S5o6mXM0n52ok6qsyUZWRkcFgMA4dOsRms1taWk6dOjVixIijR4/KRJJIyAc327dvnzNnjj+G0NBQ0qUJ8NVXXwEAlJWV+/r6BA719vbOnj374MGDsrrWsITP58+bN09TU7OpqQlN/Pzzz7W0tMrLy/s9Hb9xS0tLVVRUgoKC0JSmpiYDA4MxY8ZwuVyCChsaGo4cORIVFTVixAjiHodIvaSsu/QCRFJTU2NnZ5eZmQm/vnnzxtLSEgCwdetWgZwk7qzu7m4HBwcAgIuLC0w5cuQIAIBOp7969UrcWXFxcdB3hIeHw5TIyEiYcuzYMTRbU1MTg8FQV1e3sLBQUFDAOp2kpCQcVbJqiH379sF9j3ECFyJ5iENOuYODg6OjY1BQ0E8YfvzxRzqd7uvrK5BZ0laW3pjff/89AOD//u//WltbBQ5Jc0dTruZTdDUS9VXpVbW2thoZGfn7+2MTQ0NDlZSUioqKpJQkDpLBDdQq/KdTVuzYsQMAoKqqKvLorVu39u/fL6dLDw8SExMBAGvWrMEm3r17V+SvqQD9Nu7SpUsBAKmpqdjELVu2AAB++eUXSaW6uroS9zhE6iVN3WUiQCShoaECv7twDHbq1KnYRHJ31vnz52G0sXHjRpjy+PFjgRQB+vr6DAwMYJ4jR47AxF9//RWmGBkZoT8e//znP/38/DgcDoIgbDZ73rx5aHCzefNmHFUyaYjnz58vWLBg6tSpOIELkTwSQUL5ixcvRLrgnJwcAEBiYiI2kUQrS2lMOES3cOFCPp8vfFSaO5pyNZ+cq5Gor8pEFYvFAgCcPHkSm/jw4UMAwIkTJ6SUJA6SwU1kZOTSpUsbGhrInd4v3333HU5w09XV1djYKKdLDwzR0dHER0dJsHDhQrTfoLS2tioqKmpqasIfKnHgN25PTw98SF9dXY1NhyshGRoaSirVzc2NuMchUi9p6i4TASJ5/fq1cAoAYNGiRdhEcnfWrFmzYLSxc+dOmJKXlwdT1NXVW1pahE8pKytDY5To6GiY+Pvvv6OJN2/eRBCkra3N3d0d+4v48eNHdXV1mGfu3Lk4qqRviI6OjqlTp9bU1Dg7O4sLXIjkkRQSyv/888+Ojg7h9F27dmlpaQk8AyLRytIY89y5cwCAzz77jM1mCx+V8o6mXM0n52ok6qsyUQUHkv38/LCJN2/eBACcO3dOSkniIBPcdHZ2orOHLC0td+3a9e7dO5E5Ozo60tPTr1+//uLFi66uLuKXwAlu0tLSBIrq7e1FQ/uXL19ev35d3FB8eXk5i8XKzMzk8XjCR58/f44gSE9Pz717916+fIk9VFNTc+fOnSdPnrS1tQmc1dTU9BbDhw8fYHpzczNMqa+vF76WlZWVs7OzSJHS093dDSfc5efnCxyaOHEiACA+Pl7cuf02LrxPAAAC/fiPP/6A6ZL+MBP3OETqJU3dZSKAeGmXL1+m0WjYf6XE7ywsXC4XnbXw/fffw8SioiI0TLlw4YLwWfDPFgR9yJufn48mHjhwAEEQPp/f29srcO6iRYtgntWrV4tTJRNbbdiw4dq1awiC4AQuRPJIhGxb2cLCwtvbG5tCopWlkdTQ0DBy5Eggfp6iNHc05Wo+UVcjEuG+KitVaWlpAAAajZaeno4mLlu2TFdXV+RfL+KScCDzKnh2dnZPTw/8XFpaevDgQUtLyxMnTghkO3r0qLOzc0FBgZaWVmhoqJWVFdpZpSEiIoLH48HPWVlZmzZtMjExcXNz43K5a9eunTRp0hdffMFkMsPCwrBnlZeXe3l5RUREpKSkLF++3MTE5M6dO/BQWVlZRESElZWVm5tbW1ubi4vL4sWLbWxs3r17BwDg8XibN2/+6quvGhsbY2JidHR0nJ2dN27cuH379itXrsDTPT09zczMzMzMLl++jE77r6mp2bx5M5PJzM3Nlb7WElFQUABNpK+vL3BIT08PAFBeXi7u3H4b9+PHj/BDfX099kR0wmlpaam0FRADkXpJU3eZCCBYFIfD+fnnn69fv44OugDCd5YA79696+3thZ/RKAd9BQYAUFlZKXwWnH+AioEf+Hw+mgiHdhQUFOBcFiwqKirwA/wbJxLpbXXr1q3u7u4vvvhCyjySIsNWzsvLq6ioEHj7jEQrSyMpPj6+vb1dQUHB09MzISHh+++/P3DgQEpKCvLXCmfS3NGUq8HPI1cBBIsS6WqEEdlXZaXK1dV1+fLlvb29Hh4e8G/VwYMHnz59ev/+fR0dHWkk4UAmuHF1dWWz2bW1tffu3fPy8lJSUuru7t6yZcvZs2fRPCwWKyAgYPXq1Vu3bp0/f/7hw4crKyu//vpriS6EIEjDX9TX17969eqXX35JSUlBM4wfP97Nza2hoYHP569du3blypUdHR2PHj1SUVGJiIhAu35FRcWsWbPCw8NjY2Ojo6MzMzM/fvy4bNky+DyvqqqqpqampKQEQZCwsLDQ0NBly5bp6OjAn4egoKCrV6/evn17w4YNly5dWrVqVVZWVn5+vpWVFXzj1NnZOT4+Hk60XLFihZmZGbyora3tmDFjAgIC0L+5Awb6Lj38x4ZFW1sbAFBVVSXu3H4bd/z48fAD9l8+9lrYtzplC5F6SVN3mQggUk5ubu7UqVPr6+vh01U0ncidJUy/F3379q1wIvynBXn16hX8gP6cAADQvxDCwGdeFhYWOFGFlLaqq6vbv3//f//7XynzkECGXejGjRvq6uoLFizAJpJoZWkkxcfHw2xbtmxJTEx8/fr1gQMH5s2b5+bmVldXB6S7oylXg59HrgKIlCPO1Qgjsq/KUNXFixdnzpzJ4XCWLl3q6OiYm5v7+vVrOE9OGkl4kBvwwfLq1Ss4GVtTUxOdGvavf/0LABAZGYlmg5EdwRe64GMpAIDeX4waNYpOp8NE7LOhzs5OmIidqu3h4QEAiIuLg1+XL1++atUqbPkww4oVK+DXly9fwkKys7NhCpxk0NraqqCggH1+lJ6eDgAwMjISEAwjmF27dqEp3d3denp64iaQy/WxVGxsLABAUVFR+NDatWsBAPPnzydYlMjGnTFjBhCab1FTUwNtmJubK5Fa4mPFROolw7qTE4BfQlNTk5+fH/a16n/+85/iMos0vjBwRgVk7969MBE7pcbd3V3kiVAzAGDUqFHwDRrsOhO7d+8WeRac8aCsrPzkyROcmkpjKz6fv2DBAuwouvAjJyJ5yCHDLjR27FgvLy/8PERambQkPp8P3ea6devQN09ra2snTZoEAFi6dClMIX1HU65meLgahFhflVIVj8ebM2cOFDNhwoTi4mL8yxGRhIMMViieOHHis2fPdHR0OBxOZmYmTNyxY0d8fPy2bdvgV/jmBQCgra2NeMmqqqpNf8Fmszs7O1NTU9EhcQg6Do+++gEAMDExAQC8f/8eAADn0JSUlKzFUFFRAQB49uwZzA+H6NXV1R0dHWEKHIn5448/EARpb29HS3Z2dlZSUhKOgoODgwEAp06d+vDhA0xJTk5mMpkWFhYAgN7e3vb/pa+vT2QicePgAB+LIgiCfcoAgZcQftAgDpGNGxUVRafTf/vtt23btrHZ7J6enrS0NB8fH3hUftuQEamXDOtOTgB+CXp6eqdPn2az2fn5+XCU+Pjx4+IeXIo0vsgy8S8qbuD3P//5D/zn1Nzc7OHh8csvv0RFRWGvLnwKn8/fu3evoqIi/B+Gc1FpbHX06FFbW1v8UXQiecghqy6Un58Pn4bjZyPSyqQlNTU1dXV1AQB8fX0VFf+ftzc2Nj569CgA4M6dO3AQjvQdTbma4eFqCPZVKVUlJiay2ezdu3fTaLSSkhInJ6fnz5+Ly0xQEg6y2X5BX18fvrz9559/whRtbW1vb+8RI0aUlJQEBwfv3r0bPl6V8vd71qxZRJ7yQBPDBnjz5k1PT8/ixYu/x8BisYqLi588eYI9C735UeCvQmVlZUdHB0yh0WhaWlpjx44VWPDD1dXV2dm5vb39zJkzMOXKlSvr16+Hn588eaL9v5SWlubm5gokFhQUkLCJMDBaRxAEnUuBAgO1fn8OsQg3rr29PVxN69SpU6NHjzY3N7916xZsF2dnZ4kKlwgi9ZJJ3fl8frwQvb29MjTslClTHjx4YG9vjyBIUlKSuGzCxhdmzJgx+NcS9xswevToZ8+excbGfvPNNwYGBnV1dejkBjU1NU9PT+FTwsPDCwoK4uPjV69ejX9R0rZ6+fLllStX/v3vf+MUTiQPPuKaWBrlAiQkJNDpdCL+qt9WJi0J/REaPXo0Nn3OnDmfffYZ+OuJD+k7mnI1w8PVEOyr0qiKiYnx9fVlsViRkZGpqanGxsbt7e2LFi2CAw2kJeEg1fYLWOCYBzZ2KS8vDwoK0tbWPnDggL6+/vXr19FRDWmIjIzU0NAgnr+4uBgKI7Fdg62traura3p6+okTJ4KCggAA+fn5ra2te/fuFc68a9euFStWREVFffvtt93d3Y8fPz516hQ8xGAwAgMDsZnPnz9Pp9PXrFmDTRRwQKSxsbGBH9rb2wUejsKRMzj8Sxzhxp08eXJGRkZXVxeHw4Ed2snJCQDw5ZdfSqcdDyL1kknde3p60H+HKMuWLZOtYVVVVUNCQlatWiXu9oYIG18AbHCDDihi/1qh88CEodFovr6+vr6+AIDq6urDhw/D9LVr12pqagpkTk1N/fnnn2/cuIGNe+DKyMIlk7bV3r17eTyewD82eBdv3LhRQ0PDxcUlNze33zwhISHiag3ENzGNRpNVKyckJLi7u6OLreOD38qkJRkaGsIXdFtbWwUOmZub19TUoJPNyd3RlKvBz9PvhYaIqyHYV0mrKiws3Lx5s6+vL/QV8BZ2dXUtLy8PCwu7dOkSaUk4yCy4ga4QHcrOyMhYsGCBn5/foUOHZHUJiJWVFfzw7t07IsOSsA1whr/wuX379qZNm3bv3g231ImNjd2/f/+3334rnNPT03PChAklJSXXrl2j0WgeHh5oEDZ+/Hj0ZwPy4MEDbW1tgURZYWRkxGAwqqura2trBf7WwxlhcDEr4gg0LgqdTodP9DMzM7Ozs83NzeHPpJwgUi+Z1F1FRUV4/FZNTU1DQ0O2hp0yZQroz0+JMz6Ktrb2pEmT4LwxdAoa9q8VnLjQL6dPn4YhkYmJycGDBwWOVldX+/n5sVgsd3d3NLG0tHTfvn0ifRPphhg5cuSHDx/QaXAQWK83b94oKyszGAwiefArK66JpVGOpaCgoKysLDQ0tN+cEPxWlkbS+PHj8/LyBF44An/9yYbjNyiS3tGUqxkGroZ4XyVd5WvXrvH5fLhBClrUpUuXpk2b9ujRI2kk4UF6to4AZ86cUVZWRhcqgJvUYFcTgnNiRC76Igz+In4Igty4cePbb79FEAR9CRa7BJC/vz8AAK5iDP+aKCoqwvehsNy8efPx48cIgsDXSUaMGCF8IT6fHxYWdvr06ZSUlNTUVOF1brDA3TGmTJmyZMkS7Av9wsh1QjGCIDt37gR/LVWCUl1dDXuVRGsOIUKNK0BLS4uZmZmCggJ8v1RSJFpZi0i9ZFt3EgKIk5GRAQB48OABTh5840PQF2jRRULR5fhmzpwJU4qLixcuXOji4gL7vAD5+flwXzptbW104XaUtra2SZMmhYaGPnjw4MGDB/fv3799+/axY8fGjRt36NAhcapkaKvZs2eD/iYLE8lDEOmVh4aG0mg0kYvmiaTfViYtCU58DA4OFkiHIa/ItU8kuqMpV/OpuxqJ+io5VfCshIQEgXQdHR1dXV0pJYmDTHDT1dUlvIa3k5NTWFgY/Mzj8eCUFHTrGS6XCycCE1mUDEEQODQiLripra01NTW9c+cOgiDoSgnY4AauNY5u0WBvbw8AcHR0xK4X9OTJkyVLlsDPMADS0NAQqeSnn34iohlBkO7ubnNzcwCApaUlfk55BzfFxcXKyspwQ0QUuJcQdueK7OzspKQkbGv227gC8Hg8Dw8PRUVF0gsuwx16RZ4uLI9IvQjWnRzECxcWL8zu3bvnzp2LvsYiqfFROBwOHKFEFyG9ePEivC9QhwI3nwIAaGlpffz4EXt6bW0t/EtnbGwMtxHGwuPxcObtPn36VJwqGdpqgIMb0rcPiqWlpZubm8jCybUyaUmvXr1SUlJiMBgCt/moUaOYTKbw66uS3tGUqxlcV0PEzyBCrgYLTl+VlarLly8DAEJCQrBn9fb2qqmpiXyXUyJJ4pA4uGloaNDQ0NDT04uOjoaW4vP5ISEhK1aswEZt8H0lJyen1NTUCxcurFy5Eo7cHDp0SDh8EwYOfSsoKGCDIT6fX1dXFxsby2AwaDRae3s7giDocCvcDBki8GL2o0eP4GRhAwODgICA8PDwZcuWWVhYoKt6v3jxAhYiMDADh9r09fW//PLLgICAPXv2REZGnjhxIicnR5zymJgYIj1b3sENgiD79u0DmF052tvbTU1NHRwc0Gaqra2FM6/v378PUwg2LkphYeGkSZMMDAzgUv0k4PP5MByMiooSOCQsj2C9COYhDZHChcX7+PjY29tfvnwZveFTUlKYTOb79+/hV0mNL8DVq1cBAHp6evDNRDh4iX2REvtS6Nu3b7En6urqKikp+fr6Cq8W2tPTA/f3EQmNRsPfv5CcrYQZ4OCGiHIc2fDNAIEl6iHStDJpSXCO4J49e9CUmJgYZWVl4U3Iyd3RlKsZLFcjUnm/rgYLTl+Voaquri4HBwdNTU3s2ijnzp2j0WgZGRnSSxKJxMENj8ezs7ODrs3Gxmb9+vVLliwR7nC3b9+G71erqqquX7++tbV1+/btAABlZeXY2Fic8i9cuCCw7CmdTtfV1R05ciT2babp06cjCJKenj5//nyY4u7unpiY2NbWFhQUBN8P19XV/fHHH2Gxjx8/RifoKCgorFmzpqqqCh46duwYk8mEh2bMmBEVFYU2Ep/P9/f3F3gxCuLj4yNSf1VVlaKiIlq4OAYguEEQBAaCwcHB0dHRdnZ23t7e2IG+lpYWLS0tJSWlrKwsmEKwcXk8HovFWrdunZGRUXh4uMg9Qfqls7Pz+PHjK1euhJczMTGJiIjAbpAmLI9gvYjnIU2/hQuL9/b2hjVlMpmbNm1at27d0aNHsR6QoPFxSEhIMDQ0XLx48d69e9XV1bdu3YotH12z29PTE0GQxsbGwMBAc3NzBweHsLAw7H8DLOHh4eIiGwDAP/7xD3nYSpiBD276VY4je8+ePYqKinV1dcJlStnKpCVdunRJW1vb09MzOjo6MDCQyWSia3ohsrijKVczKK5GpPJ+XQ0WnL4qW1Xv37/39vbW1dUNCQk5c+aMv7+/jY0N+mxHeknCKCC4qxaKBEGQ/Pz8qqoqAwMDJpMpbj5ze3t7eXn5xIkT4bN8AEBpaam+vj5cynBQqK2tbWhoGD9+PHbteRz4fH5oaOj06dMtLCzq6uo4HE5HR0dHR8e7d+8uXLhw/fp14flTt2/fPnny5P379+Ugnwy9vb2FhYWNjY22trbGxsYCR1tbW3k8HjadSOMmJSXV1dXZ2tra2dlJs5ZDvwjLQ8GvF/E8pOm3cGHxL1++LC8v19HRsba2Fl6/HBC+s3Do7u7Oycnp6OiYPHkyunEPSl5eHpfLnTFjhoKCQktLS2VlJZPJRG9P+UHCVkMESW8fSGlpKY/Hg/MOhZGylclJAgDw+fzi4uK3b98ymUyBVzFkckdTrmZQXI1I5f26GhT8vipbVQCAxsbGoqIiLpc7bty4sWPHCi+/Io0kAcgEN38f/Pz8ent74QNFAeLi4nR1dYVH7OfPnx8YGIiz5w4FBQUFBQWFXJHNIn7DkhcvXsTGxopclaivry8tLQ0dtuFyufClrZSUlOrqavJ7YVBQUFBQUFBIjczWuRl+6OjoKCgoHDlyhE6nr169Gq6E1tDQkJGRcePGjeDgYLh+cX19/YQJE3p6eiZPnlxQUHDv3j2Rc3QoKCgoKCgoBgbqsRQecG9z7E6nI0aM+Pbbb3ft2oWuz1hTU2Ntbd3R0aGgoBAZGYm/LioFBQUFBQWFvKGCm37g8/l5eXmVlZVqamoTJ040NzcXngPV2tqamppqZWVlbW09KCIpKCgoKCgoUKjghoKCgoKCgmJYQU0opqCgoKCgoBhWUMENBQUFBQUFxbCCCm4oKCgoKCgohhVUcENBQUFBQUExrJBqnZsHDx40NzejXzs7O+vr6+H2bPn5+Xfu3Kmqqjp79qykxaampsIdK/FxcHCYMGGCpIX/rUAQ5OrVq1lZWc3NzRMmTPDz8xNekl8ALpd769YtcUe9vLzQ1fq5XO7FixcLCwtbW1stLS29vb3JNQefz7927ZqBgQHcs5cIROpFou7kLiRMQ0MDi8XKzs7u6+tzcXHx8fFRU1MTzsbhcOLi4uAu3Pb29hs2bJByJwS5qpXGnpKeO5CdkHS9iNhtKDQxcWMC8S59cIUNlqshWKmh72rYbPa1a9fy8vJUVVUdHBx8fHxUVFQkVShQYERERHp6uoqKirq6elhY2MyZM/s969dff42Li1NVVa2urqbRaIGBgV5eXjIpWTSkd6WqqqqC+1NigdvMRv9X8OMAACAASURBVEZGWlpaAgDI7Q1ZVVV16dIldKsRLy+vrX/xzTffrF69Gu5YcfjwYdLi/w40NTXNmDFjzpw5tbW13d3d4eHh2trajx49wj/r9OnT4rrKqFGjenp6YLaMjAwGg3Ho0CE2m93S0nLq1KkRI0YcPXpUIoXQ18D358+cOSPDepGrO4kLCZOcnGxqahofH9/R0ZGVlTVt2jR7e/uamhqBbOnp6SYmJhYWFkwmE95H48aNa25ulkjhgKmVxp4kzh2wTki6XkTsNkSamKAxEVyXPojCBsvVEKzU0Hc1Dx8+FIiTrK2t37x5I5FCLBUVFRYWFnQ6He62O23aNCUlpfPnz+OcwufzN27cCACYN28egiDd3d1w66jAwEBsDyRRMg7kg5vt27fPmTPHH0NoaCh69Pr166SDG8hXX30FAFBWVu7r6xM41NvbO3v27IMHD5IufNjD5/PnzZunqanZ1NSEJn7++edaWlrYTeeFcXBwcHR0DAoK+gnDjz/+SKfTfX19YZ7W1lYjIyN/f3/siaGhoUpKSkVFRQQVNjQ0HDlyJCoqCm5iStDjEKkX6bpLeiFhSktLVVRUgoKC0JSmpiYDA4MxY8ZwuVw0saamxs7OLjMzE3598+YN/DOwdetWgvIGUq009iR37sB0QtL1ImK3IdLECDFjQvBd+qAIGyxXQ7BSQ9/VFBcXGxoaRkVF/fHHH+np6cHBwcrKygAAe3v77u5uggqxdHd3Ozg4AABcXFxgypEjRwAAdDr91atX4s5C92cMDw+HKZGRkTDl2LFj0pSMA8ngBvY5nH8h9+7dkzK42bFjBwBAVVVV5NFbt27t37+fdOHDnsTERADAmjVrsIl3797Fd68vXrwQ8HeQnJwcAEBiYiL8ymKxAAAnT57E5nn48CEA4MSJE5JKhVt0EQxuiNSLXN1JXEgYuJFqamoqNnHLli0AgF9++QVNCQ0NLSsrw+aB4/NTp04lKG8g1UpjTxLnDlgnJF0vInYbIk1M0JgIAZc+KMIGy9UQrNTQdzVLlix5+PAhNs+VK1dgVJGWlkZQIZbz58/D0zdu3AhTHj9+LJAiQF9fn4GBAcxz5MgRmPjrr7/CFCMjIxiNkSgZH5LBTWRk5NKlSxsaGsRlkD64+e6773CCm66ursbGRtKFD3vgtuQC939ra6uioqKmpiaHwxF51p9//tnR0SGcvmvXLi0trc7OTvgVBtR+fn7YPDdv3gQAnDt3TlKpbm5uxIMbIvUiV3cSFxKgp6cH/iuqrq7GpsN7wdDQEE15/fq1wLmvX78GACxatIiItgFWK409SZw7YJ2QXL0I2m0oNDFC2JgIAZc+KMIGy9UQrNQQdzVtbW2rVq0SPn38+PHYOEMiZs2aBQOOnTt3wpS8vDyYoq6u3tLSInxKWVkZ+Ivo6GiY+Pvvv6OJN2/eJFcyPmSCm87OTvQZnqWl5a5du969eyeQBxvcdHZ2pqSk3Lt3T6K/BTjBTVpaWldXl0Bib28vGsa+fPny+vXr4sayysvLWSxWZmYmj8cTPvr8+XMEQXp6eu7du/fy5UvsoZqamjt37jx58qStrQ2b3tTU9BbDhw8fYHpzczNMqa+vJ1RnGdHd3Q2nleXn5wscmjhxIgAgPj5eogItLCy8vb3Rr2lpaQAAGo2Wnp6OJi5btkxXV5dEFyTucYjUSyZ1J1cI/PUCAAj4oz/++AOm4/xyXL58mUajCfwPI4hc1UpjT9n2Q9l2QtLaSLfywDcxDgLGJOLSB0XYoLgagpUa+q6Gw+EIT8FBEGTZsmUAgLi4uH7lCcDlctFZWd9//z1MLCoqQsOUCxcuCJ8FR6Eg6GSS/Px8NPHAgQPkSsaHzKvg2dnZPT098HNpaenBgwctLS1PnDghMnNycvKYMWPc3d0XL16sp6cHH7mRuCiWiIgIHo+Hfs3Kytq0aZOJiYmbmxuXy127du2kSZO++OILJpMZFhaGPbG8vNzLyysiIiIlJWX58uUmJiZ37tyBh8rKyiIiIqysrNzc3Nra2lxcXBYvXmxjY/Pu3TsAAI/H27x581dffdXY2BgTE6Ojo+Ps7Lxx48bt27dfuXKlrKzM09PTzMzMzMzs8uXL6OsGNTU1mzdvZjKZubm5UlZZIgoKCqB99PX1BQ7p6ekBAMrLy4mXlpeXV1FRgZ3W7urqunz58t7eXg8PD9hxDx48+PTp0/v378Od0uUEkXrJpO7kCvn48SP8UF9fj00fNWoU/FBaWirychwO5+eff75+/Tr630Ui5KpWGnvKsB/KvBOS1kaulQelicUhbEyJXPpAChsUV0OwUkPf1YwYMcLExET4dDabDQCYPn16v/IEePfuXW9vL/yMxiJwDAlSWVkpfBac6gThcDjwA5/PRxPLysrIlYwPmeDG1dWVzWbX1tbeu3fPy8tLSUmpu7t7y5Ytwm9919XV/fjjj8eOHUtOToZDiz/88AM6k4gICII0/EV9ff2rV69++eWXlJQUbJ7x48e7ubk1NDTw+fy1a9euXLmyo6Pj0aNHKioqERERqK+pqKiYNWtWeHh4bGxsdHR0Zmbmx48fly1bBp/yVlVV1dTUlJSUIAgSFhYWGhq6bNkyHR0daN+goKCrV6/evn17w4YNly5dWrVqVVZWVn5+vpWVlZGRkbOzc3x8vIKCAgBgxYoVZmZm8Iq2trZjxowJCAhYtGgRCTuTBn2RHt26HEVbWxsAgN3nvF9u3Lihrq6+YMECbOLFixdnzpzJ4XCWLl3q6OiYm5v7+vXrqVOnSie8H4jUSyZ1J1cIHOwFAGD/lGALwb5ki5Kbmzt16tT6+nr4mLVfbQOsVhp7yrAfyrwTktZGopUHq4nFIWxM4i59gIWBwXA1BCv1ybkaSEdHR35+vru7O5zhLhH91ujt27fCiXAICvLq1Sv4AY3PAAA8Ho9cyfiQX8TP2Nh40aJFN27cKCwshGYKDAxsaWnB5uFwOHfv3l25cqW7u/vp06cDAgIAAAcOHICRIxG6uromYbC3t//uu++wQR8AQEdHB86u4vP5P//8s6enp4aGxueff+7m5sbn8zMyMmC27777bvr06UwmE341MzP7/PPPEQT56aefAABz587dunUrAODjx49r16719PS8desWm802NjZua2s7fvy4lZWVhoYGPHfbtm0AgPfv32/atGn27NkAACaT6eHhAQDAuoOenp6bN29u2LBBIsNKD2wFRUVFbMgMgb2/urqaeGkJCQkLFy5UV1fHJmpoaDx8+HDOnDkAgNzc3MLCQoGmlwdE6iWTupMrREtLa8aMGQCAkydPYtPb29vhB4F/UWw2e+PGjQsWLCguLq6rq/P394f9SlLkqlYae8qwH8q8E5LWJlErD24Ti0OkMQExlz7wwgbe1RCs1CfkarBcvny5t7f36NGj/WoT5v379/gZampqhBNHjx69du1a+BlO6gD/G34xGAxyJeMjgxWKJ06c+OzZMx0dHQ6Hk5mZiT1kaWmJbbOQkBBlZWUOhwOfpBJBVVW16S/YbHZnZ2dqaqrwAkToQBY6Kxv81cDQanAOTUlJyVoMFRUVAIBnz57B/FCqurq6o6MjTIGDMX/88QeCIGi/AQA4OzsrKSkJ/A8LDg4GAJw6derDhw8wJTk5mclkWlhYEKysrIAPcREEEYgCAQB9fX0AACUlJYJF5efnw2d5wocSExPZbPbu3btpNFpJSYmTk9Pz58+lE94PROolk7qTLiQqKopOp//222/btm1js9k9PT1paWk+Pj7wqKmpKTaznp7e6dOn2Wx2fn4+fFpx/PhxEk8w5apWGnvKqh/KoxNKo414Kw96EwuDY0wUHJc+KMIG2NUQrNQn5GpQOBzOvn37jhw5YmVl1a82YeCTMhzEPSv8z3/+AwfbmpubPTw8fvnll6ioKPToxIkTSZeMg2y2X9DX14dvbv/555/YdBgcoBgaGk6ZMgUAgJ0oJCmzZs0i+JQHdgvYad68edPT07N48eLvMbBYrOLi4idPnmDPUlQUtAk0a2VlZUdHB0yh0WhaWlpjx47FVtDV1dXZ2bm9vf3MmTMw5cqVK+vXr4ef+Xx+vBDoU0bZAp+8IgiCPuBEgSFavz0JJSEhgU6nCxs8JibG19eXxWJFRkampqYaGxu3t7cvWrQIxotygki9ZFJ30oXY29vD1bROnTo1evRoc3PzW7duQes5OzuLO2vKlCkPHjywt7dHECQpKalfeQOpVhp7yqofyqMTSqONRCsPVhMLI86YAohz6QMvbOBdDcFKfYquZufOnT4+Pps2bepXmEjGjBmDn0FcUDV69Ohnz57FxsZ+8803BgYGdXV16GwhNTU1T09P0iXjINX2C1jgaAcMNnFgMBg5OTnC62BKRGRkJPqEiCDFxcUAgL6+PhLrdtva2rq6uqanp584cSIoKAgAkJ+f39raunfvXoGcu3btWrFiRVRU1Lffftvd3f348eNTp07BQz09PWhYjbJs2TIpTSESGxsb+KG9vV3gUS4cEiT+tDUhIcHd3R1dLRpSWFi4efNmX19fOCjl4uKSm5vr6upaXl4eFhZ26dIlGdRBFETqJZO6S1PI5MmTMzIyurq6OBwOdDFOTk4AgC+//BLniqqqqiEhIatWrSLhsuWqVprCZdUP5dEJpdRGopUHq4kFEGlMkRBx6cPS1RCs1CfnauByeXAaBjmwIQj61AI75oTONxWGRqP5+vr6+voCAKqrqw8fPgzT165dq6mpKU3J4pDZxpmamprgf6cOiQTOz4VLL5PGysoKxgTwVSYiwH5DejDz9u3bq1at2r17d3Bw8KVLl3bs2LF///5vv/1WIJunp+eECROqq6uvXbt29+5dDw8PNAhTUVHJFULkPiDSY2RkxGAwAGa2GgpMgYtZ9UtBQUFZWdmKFSsE0q9du8bn86dNm4a9InQ0jx49kkY5PkTqJZO6S18InU6H7iYzMzM7O9vc3Bze1TjAQU0Ss/zkqlaawmXSFnLqhDLRJmkrD2ITQ8QZUyREXPqwdDUEK/VpuRoWi5WVlXXq1CmBxykSoa2tPWnSJPi5s7MTfsCOOcGZQP1y+vRpGLiYmJgcPHhQhiVjkVlwU1RUpKysbG9vj5+tqqpKTU0NrrIsJTdv3jx06BDBzOPGjQMApKenv3nzRuDQr7/++ttvv+Gfrq2tbW1tffLkSXd3dwaDwWKxRG4mp6ioCJfn+c9//hMfH48+kwIAKCgo2Ash/AhMVnzxxRcAgPT0dGxiTU3N27dvjYyMsM4Ch4SEBBqNBidrY+nq6gIACPzHcnZ21tHRQV8olRNE6iWTusukkNbWVm9vbwUFhZiYGOH5mwI0NTUBAMjdGnJVK03h0guTXyeUidGAJK086E0szpgiIejSh6WrIVipT8XVpKSkXL169ezZswK/OCSmf/3zn/+EH9DXndA5pjNnzoTDFiUlJR4eHjNmzBD5w1pQUPDzzz8DALS1tW/cuIGOVxEpWTIkXRgHQZCuri4+ny+Q6OTkFBYWhn4VuUJxbW0tfD2byFXguIi4FYpra2tNTU3v3LkDv6IdHbvqJdypC92lAd6ljo6O2NWfnjx5smTJEvgZvkmvoaEhUsxPP/1ERHZ3d7e5uTkAwNLSkkh+OVFcXKysrAx3KUOBG3xgt63Izs5OSkoSbk2IpaWlm5ubcPrly5cBACEhIdjE3t5eNTU1d3d3SaXCHXpFrqwlLI9IvQjWHR/pDcjj8Tw8PBQVFQkuvrx79+65c+cK76Q26Gqlsaf0wuTXCYnXS1atPLhNjIg3JhGXPijCBsvVEKzUJ+Fqnj17tnz5cuxq1AiC9PT0xMbGkljHj8PhwHAEXWv74sWL8Mc3ISEBpqDhu5aW1sePH7Gn19bWwpFLY2PjgoICSUuWCImDm4aGBg0NDT09vejoaHiX8vn8kJCQFStWYFcNhmOGDAYDXUKxs7NzxYoV8+fPF15cWCTu7u4AAAUFBexamXw+v66uLjY2lsFg0Gi09vZ2mI7OToK7iULg7Kpdu3ahkmDcamBgEBAQEB4evmzZMgsLC3QF6xcvXsBCBBYghsOD+vr6X375ZUBAwJ49eyIjI0+cOJGTkyNSeUxMjESdW07s27cPYHZpaW9vNzU1dXBwQO1fW1sL51zfv39f+PSCggIgZgOXrq4uBwcHTU1N7L5u586do9FoGRkZEonk8/kwFoyKihI4JE5ev/UimKdfpDFgYWHhpEmTDAwM4MriAvj4+Njb21++fBl1VSkpKUwm8/3798TlDZhaIoXLSZi8OyGRepGz21BrYkS8MQm69IEXhgyqqyHY54e4q3nx4sXIkSONjIzM/hcNDQ1tbW3sFpvEuXr1KgBAT08Pnu7v7w8A8PLyQjOgawkCAN6+fYs9UVdXV0lJydfXV+QC0/2WLBESBzc8Hs/Ozg7qtrGxWb9+/ZIlS4TNyufzIyIirK2tDQ0NPT09169fP3PmzJ9//llc5I7lwoULcLsNFDqdrqurO3LkSOyo2vTp02H+9PT0+fPnw0R3d/fExMS2tragoCA4L0dXV/fHH3+EOR8/foxOulZQUFizZk1VVRU8dOzYMXQJnBkzZkRFRaEdi8/n+/v7i3xU6ePjI6y/qqpKUVERLXkQgVFgcHBwdHS0nZ2dt7c3m81Gj7a0tGhpaSkpKWVlZQmfu2fPHkVFxbq6OpElv3//3tvbW1dXNyQk5MyZM/7+/jY2NklJScS1dXZ2Hj9+fOXKldCSJiYmERER2J38cOTh14t4nn6R1IA8Ho/FYq1bt87IyCg8PFzk7jkIgnh7e8NaM5nMTZs2rVu37ujRoxJ5w4FUS6Rw2QpDkXcnJFIvcnYbIk2MRZwxCbr0gRcGGURXQ7DPD1lXU1VVJbzwMcq2bdskFYmSkJBgaGi4ePHivXv3qqurb926Fdu30Y0BPD09EQRpbGwMDAw0Nzd3cHAICwvDDkBIWrJEKCCSr5iJIEh+fn5VVZWBgQGTycSfeN/Z2VlcXGxgYGBkZCTpheREbW1tQ0PD+PHjhddNEgmfzw8NDZ0+fbqFhUVdXR2Hw+no6Ojo6Hj37t2FCxeuX78uMOfr9u3bJ0+evH//vnzkS0Zvb29hYWFjY6Otra2xsbHA0dbWVh6PJ5wOACgtLeXxePhPOhsbG4uKirhc7rhx48aOHSvzKUQ48vDrRTxPv0hkwKSkpLq6OltbWzs7O/xVLl6+fFleXq6jo2NtbY3jgIaIWiKFy1AYysB0wn7rRc5uQ6GJseAYUyKXPpDCUAbL1RDs80PZ1ciJ7u7unJycjo6OyZMnoxuToeTl5XG53BkzZigoKLS0tFRWVjKZTFVVVelLJg6Z4Obvhp+fX29vL3wIKkBcXJyurq7APLj58+cHBgYKDD5RUFBQUFBQDAzyeltn2PDixYvY2FiRayL19fWlpaXBYRsulwtX5EtJSamurhbYHoWCgoKCgoJiwJD9CnLDDB0dHQUFhSNHjtDp9NWrV8OlhBoaGjIyMm7cuBEcHKyjo1NfXz9hwoSenp7JkycXFBTcu3dPmrUEKCgoKCgoKKSBeizVPywWKyAgALtt6YgRI7799ttdu3bBV9dqamqsra07OjoUFBQiIyNDQkIGTywFBQUFBcXfHSq4IQSfz8/Ly6usrFRTU5s4caK5ubnAjLbW1tbU1FQrKytra+vBEklBQUFBQUEBqOCGgoKCgoKCYphBTSimoKCgoKCgGFYQmlDc3d1NfBcnCgoKCgoKCgr5sWTJEnTdXZEQCm76+vrgXlEUFBQUFBQUFIPLP/7xD/zghppzQ0FBQUFBQTGsoObcUFBQUFBQUAwrZLOI39OnT5OTk0tKSqytrffs2aOsrEy6qOfPn5eXlwsk0un0UaNGGRgYWFlZyXxXkcGCy+WmpqayWCx7e/tNmzbJ4xIIgly9ejUrK6u5uXnChAl+fn4ktuqoqKgICAiIiYkR2B2My+VevHixsLCwtbXV0tLS29t7woQJJETy+fxr164ZGBjMnTuX4ClE6iWTuksjQBwPHjxobm5Gv3Z2dtbX1+/ZswdN4XA4cXFxBQUFCILY29tv2LCB4J4s5FQRbEfpm1vShh7IVv60OmFHR0dcXNzRo0dPnz49a9YsIqew2eyIiIj09HQVFRV1dfWwsLCZM2eSyCMOytV8Wq6Gy+XeunVL3IleXl74Pkd+robNZl+7di0vL09VVdXBwcHHx0dFRaXfksWqlIZHjx7Z2NgwGIwbN250dnZKWRqCIPX19Xfv3rWwsIDynJyctmzZsnLlSmdnZ01NTS0trcWLFwtv+/7J8e7du6+++kpdXR0AsH//fnlcoqmpacaMGXPmzKmtre3u7g4PD9fW1n706JFEhfT29k6bNg0AUFZWhk3PyMhgMBiHDh1is9ktLS2nTp0aMWLE0aNHJSoc+hq4MtCZM2cInkWkXjKpuzQCxFFVVQU3q8fy22+/oRnS09NNTEwsLCyYTCbMOW7cuObmZjmpItiOUjY3iYYesFb+tDphWVlZYGAgurFlamoqkbMqKiosLCzodDrckHnatGlKSkrnz5+XNI84KFfzybma06dPiwsJRo0a1dPTI3NVRNrx4cOHAkGStbX1mzdviNRXGKmCm++//x4A8H//93+tra3SlCPMv//9b1g3bEf/8OHDkSNHPvvsMwCAi4tLTU2NbC868Kxbt05OwQ2fz583b56mpmZTUxOa+Pnnn2tpaZWXlxMvZ9++fXDLWWxDtLa2GhkZ+fv7Y3OGhoYqKSkVFRURLLmhoeHIkSNRUVFwb3aCHodIvWRVd9ICcNi+ffucOXP8MYSGhqJHa2pq7OzsMjMz4dc3b95YWloCALZu3SoPVQTbUcrmJtHQA9bKn1AnLC4uXr16tbOzM3bomkhw093d7eDgAH0mTDly5AgAgE6nv3r1ingecVCu5lN0NQ4ODo6OjkFBQT9h+PHHH+l0uq+vr8xVEWnH4uJiQ0PDqKioP/74Iz09PTg4GD4Csre37+7u7re+wpAPbjZu3AgAWLhwIZ/PJ12IOP773//Cu7e+vl7g0Pv37ydPngwAMDIywtr3U8Tf319OwU1iYiIAYM2aNdjEu3fvEvmlRHn+/PmCBQumTp0q4HFYLBYA4OTJk9jMDx8+BACcOHFCUqlw51GCHodIvWRSd2kEiAPe4TjDMKGhoQJ/W+HQ8dSpU+WhimA7yqq5iTf0wLfy0O+EdXV1XC4XQZBt27ZJFNycP38eZt64cSNMefz4sUAKkTz/H3vnHRfFtf7/h64gCArSRITYcEWNgGJAExVsqKBYkIsmEonYrpqIYr3ItQS9sfBFjRIUC0TBKFGxgQZFQYpAEAVEiggsyMqyLrLUnd8f53XnN3cbszOzWF7z/ms588w5nznl4cyZU+TBuppPztXk5OTI7MFkZWUBQGJiIuOqyJTj7Nmzb9++TTT4/fffUSV88OCBAknyoDh/JTo6OjIysn///ufOnVPFIZEK4jQ3N7969WqvXr24XO6GDRsYT/qj4ujRo1FRURRujIiIAACJ7/Gurq7q6upnzpxpamrqMob379//85///O2336QnOb169QoAsrOziYEoTpKzQ4jo6OiQNybzXPSfnaYAeRw/ftzJyQmdHi8TPz+/L774ghiCvkmbmJioQhXJcmSquMkXdPeX8sdfCc3MzHr27An/rRLkOXXqFPqBf8wyNDREP2JiYvh8PkkbebCu5pNzNVpaWuHh4dLh8fHxBgYGU6ZMYVxVl+UoEAh69OgxdepUooGPj8+QIUMAIDc3V4EkuVDoENXV1aEDIw8dOqTYsqmpKTU1NS4uLicnp7W1lXwSKAdB1sgNAv9uJf2pr7S0NCEhIT09XSQSSd/4+PFj9AIkFArv3LmTmJhIFJaZmRkXFydzwFPxs3R0dOBvUQUFBXFxcfKGcxsbGxMTE1NSUkQiUZcjN8OGDXN2dpZ3VR5tbW3ID+bm5kpcGj58OADExMR0Gcn3339/8eJFDMOcnZ3hf1+nHjx4AACampqpqal4oJeXV58+fRoaGpRV6+bmBuRep8g8FyPPTkeAvHtbWlrwz8mDBw/etGnTq1evukwxNjZWU1NT8Qs6ZVUky5Gp4iZZ0B+klD+hSvjrr7/i3rvLkZvm5mZ84sX27dtRYGFhIR7D2bNnydjIi591NZ+Nq8EwzNbW1tfXVxWquixHoVAoc56Jl5cXAERHR5PRLwGVkZuYmBiBQKCmpubp6RkfH799+/awsLCkpCTsf7fMCQ8Pd3Z2zsvLMzAw2Lp167Bhw54/f04hOZn4+vriYvDA0tJSb2/vPXv2JCUlzZ0719LS8urVq+hSfn7+hg0bbG1tnZ2d6+vrw8LCzM3NPTw8PDw8HB0dhUJhTk7OqFGjJk6cuHDhQjs7u19++YXks2RkZKxYscLS0tLNza25uXnJkiUjRoxYuHAhh8PZuXMnMZLW1lZ/f/8ZM2aUlJQ8fvzY3d09Pz+fqQwhkpeXJxKJQNYbv7GxMcooxTFcuXKlra1t4cKFMq9OmDBh7ty5HR0dM2fORAOS+/fvf/jw4c2bN42MjBh4ADmQeS76z05TgLx7MzMz29vb0e+SkpL9+/cPHjz4+PHjCpITCoUHDhyIi4tTvCKGsiqS5djNxf3BS/mTlifBq1ev8Nd3vAdDXM1aXl5OxkZe/KyrUWyjUgHy7qXgagDgyZMnZWVl3t7eqlDVZTn26tXL0tJS+kYejwcAX331lWLxMqHYuQEAQ0PDVatWJSYmPn/+PCwsbOrUqW5ublwuF9kkJCSsW7du0aJFa9asmTZt2qFDh8rLy7/77jsKycnE1tbW1NQUANBnQgAoKyv7+uuvQ0NDo6KiIiIi0tPT379/7+XlhQysrKwWL178+vVrAAgMDLS0tKyurubz+a6urk+fPvX39w8JCblw4UJzc3NeXl6PHj127NjR2NhI5lmGDBni5uZW9DimGAAAIABJREFUV1cnFouXLFkyf/78pqam5ORkbW3tPXv2lJSUILPOzk53d/fy8vK//vpr3bp1mzdvPn/+fEFBAVMZQqS6uhr9QANsRNBoc2VlpYLbuVzu7t278WlPMjl37tzEiROFQuGcOXOcnJyys7OfP3+OPpmrDjLPRfPZ6QuQd++ECRN4PF51dfX169e9vb01NDTa2tpWrVqFfxGQIDs7e+zYsbW1tW/evMEU7rRJRxXJcuzO4v7gpfxJy5Ogy4QqKirI2Mi7xLoaxTYqFSDvXmVdDeLSpUu6urrTp09XkSoK5djU1JSbm+vu7o7WVSiL0p0bDMPQv+TZs2cnJiZGR0dfvny5oKBgxIgR9+7dQ99ZACAnJwcA0Ox3ABg2bJixsXFWVpaCCQfKgvZCqK+vR39u3Ljxq6++wvdjHjhw4JQpUzAM+/nnnwHAyMho7NixaLBu48aNfn5+BgYGenp6P/zwAwBkZGTExcXZ2dmpqamh8RuRSJSamkrmWYyMjObMmQMAYrH4wIEDnp6eenp6U6ZMcXNzE4vFaWlp6K5Tp06lpqbu2rUL/+5rbW09bdo0pnKDSENDAwCoq6uj1QFEUKVEnTyZYBjm7+9/8OBB6epLRE9P7/bt25MmTQKA7Ozs/Px8lKhKIfNcdJ6dEQGKY7CwsPDw8Lh06VJ+fj5qsevXr5fIOh6PFxAQMH369KKiIi6XGxgYSJxDyqwqkuXYncX9wUv5k5YnQU1NjWKDqqoqMjbyLrGu5pN2NUTi4+NnzJiBdidRhSoK5RgbG9vR0SFzehAZlO7c1NfXt7a2AoC/vz8+/8vCwgIpuHr16pMnTwDgxx9/jImJwZ0ymuYCAPhwCH06OzsBAOVye3v79evXi4uLlxAoKysDgEePHuG3oEFXYluysLBAIcTpaf369QMAfBSqy2fBx3LRYBICDbLhjiM0NFRXV1diU6y+ffsS/+zo6BD8L52dnTIDFecM+iyKYZhYLJaZaXhHTZrw8PCRI0eS2RksMTGRx+Nt2bJFU1OzuLh43Lhxjx8/7vIuOpB5LjrPzogAklENHz780aNHRkZGQqEwPT2deMnY2DgyMpLH4+Xm5qKCOHbsmMRcPAZVkSzHbivuD17Kn7Q8CdDHAgUYGRmRsZF3iXU1n7SrwcnNzUWTOlSqSqlyFAqFu3btOnLkyLBhwxSrkofSOxTjT4V6ADiTJk3q379/VVVVbm6ug4ODoaEhmhZTXFx86tSplpYW9BWwy3/M5KmtrQUAa2trAHjx4kV7e/usWbPQzjHkkd7mCA8UCoXoT2rPgooZZVdtbW1VVVWXyxzu37+PprxJgK9cQGRnZzs4OCiIB/WZ0CwtibcigUAA8l1eQUHB77//jiZ/KebkyZNBQUG5ubm2trYeHh4LFy6sqanx8PDIysrCN2BkHDLPRfnZiYjFYnwVIs6iRYsYiRzHxMTkxx9/3LFjx9OnTz08PKQNRo8efevWLVdX1ydPnty4cQPtRCINHVUky7E7i7vbSvmzlCfBgAEDFBtYW1uTsZF3iXU1n4eriY+P19HRkXmJSDe4GpyffvrJz8+Pzt79SnduzMzM9PX1hUKh9PpAGxubqqoqfPZZaWlpUFCQoaFhWFiYiYlJXFzcu3fvKAuV4OXLl+iDFPpGWFRUBACdnZ3UtuXuEprPgpYedNmxs7KyWr9+PTHkzJkzOjo6Pj4+xECJbqU09vb26IdAIJCogmi0Sd4nzJCQEJFIJNF/R3kbEBCgp6fn4uISHBycn5+/cuVKf39/VCldXFyys7MnTJhQWlq6c+fO8+fPK5ZHGTLPRfnZibS3t/v5+UkEenl5MRI5EScnJ1BYMXr06BEcHLxgwQI0DCkTyqpIlmM3F3e3lfJnKU8CYscFn7lFfO0eOHAgGRt58bOuRrFNlwl9JK4mPj7e3d0d3whAHqp2NThHjx7Fp5RQhsrZUkOGDHny5AkaOCGCem1oB+G0tLTp06cvX7784MGDdPTJIzY2FgB69uz5j3/8A/77pUlFY5X0nwWN4rx+/RrDMAVb+AwZMuTQoUPEkFu3bhkaGkoEdom5ubmVldXr16+rq6slXsvQjDC0mZU0vXv3fvfuncQ055aWFgB48eKFlpaWlZUVAFy8eFEsFqO90vEUz58/P378+OTkZKWkKgWZ56L87ES0tbWlPwP17NlTT0+PfuRE9PX1AQCtopTH6NGjQaEvo/zIJMuxm4u720r5s5QngaGh4YgRI1CLRg0ZCGPSAODq6krGRl78rKv5DFxNXl7ey5cvt27d2mUkqnY1iISEhIyMjOjoaJpb6FFZLYXWZWVmZkqEo6EUlH0rV64UCoVoF2OE4hUfSlFSUhIWFgYAW7ZsQZNmBg0aBACpqakvXryQML58+fK9e/foJEf/WdB4Umtr6/379+koIQ9aWonPiUZUVVVVVFSYm5sTKxmRqKiocinQ5hP3798vLy8/duwYAKBJVxLdfGdnZyMjI3wJooog81zUnp2ImpqagxRohhn9yIkUFhZqaWkp/siImpW8b1IIaqpIlmP3F3f3lPInKk+B8ykuLp45c6arqyvR461evRr9eP/+PfqBjzpPnDhx5MiRJG3kwbqaT93VxMfHa2pqomUxXaJSVwMASUlJFy5cOHXqlMSOjgomHcqDSucmMDBQQ0MjNjaW2Mza2toKCws5HI6Li0tLS8vTp0+BsIZQJBKhz1joIbtEQcX9+++/p02b1tzcvHjxYnS4FQAMHDjQwcFBLBb7+fkRv5c9ePAgOjoaPwNW2i+gEInpUUQzMs8i090QBwBNTU1Rqe/bt4+YFlrE39bWJu9hKRMQEKClpYXvoY5Af65evRo/ZzUrKwudQqpU5KiFoJnjOJ2dnS0tLYr/T8tEem4ajrQ8Ms9F8tmpQT5yCfHoeBSJ2CIjI7ds2aJ40sO1a9cmT57s7u5OX5WEJJLlyFRxky/o7i9lBdo+BnlEiGMqaNMRHD8/v5s3bz569Gju3LnNzc14IBrYxicM4Kuf8EUSZGzkwbqaD+tqpJUr62ri4+O/+eYbidUtzKoiWY5paWnHjx8/c+YMcS5sR0fHqVOnnj17Rkbe/0Bh4z8Mw0JCQgBg27ZteMjJkye1tLTwQ0fRWqFx48alpKScPXt2/vz5aCXRwYMH4+Pju4x/1apVSB46bKKtra2mpiYxMdHHx0dHR8fIyOjIkSMSZ1olJyejvp6pqem6detCQ0O9vLxsbW3RxyAMwzo7O1EDvnXrFn4XOrvH2Ni4s7MTD0S7IgYFBZF8FvwLHTpQF4EmZ23atAn9mZ6ejgrM29s7MzOTy+UePHgQrWa3sbHZv39/Y2OjdD5Q26EYsWvXLiAcFCIQCKytrR0dHfHtlaurq9H3MsWnrH/zzTfwv9uGtra2Ojo66uvrE09KO336tKamZlpamlIixWKxjY0NABw+fFjikjx5XT4XSRvKkIlcQnxdXZ2enp6xsXFERASqaWKxODg4eN68ecS7/Pz8HBwcYmNj8bqdlJTE4XBqamroq5LOT5LlyEhxK1vQ3VnKCrR9DPIkpBL3j9ixYwfxKvH/U0VFBR5+4cIF5OXQSk+0YYe3tzfxXjI28mBdzYdyNdLKSboanLy8PFDyoC4VuZqcnJzevXubm5sP/F/09PQMDQ1RtVQK6gdnnj9/3tDQ0NPTMyIiYv369RwOJzMzE7/6559/okXaPXr0WLZsGZ/PR+dAaWlpRUVFKYg2ISHBx8eH2HHr1auXhoZG3759hw8f/u233545c0bec969exef2K+mpubj41NZWYkupaSkLFmyBF1ycnJC2zkfO3YM3xfH19c3JSWlpqZm06ZNaCsaExOTvXv3NjY2Kn6W1NRU3N24u7snJiY2NjYGBQWhR+jTp8++ffuQhkePHqHPZwCgp6cXERERGBjYv3//jRs35uTkyHwiOp0bDMOioqKsrKw2b94cERExZswYX19fHo+HX21oaDAwMNDQ0MjIyFAQibTHwTCspqbG19e3T58+wcHBv/32W2BgoL29/Y0bN8hra2lpOXbs2Pz581GGWFpa7tmzh3hmmwJ5ip+LvA1luoxcQrxIJBozZgx6Unt7+2XLls2ePfuPP/6QiBbfd5vD4axYsWLp0qXh4eHkvSSF4iZZjnSKm3JBd0Mpd6ntw8ojkpmZ6ePjIz31ytXVdfXq1cgG3xLd09NT4vb4+HgzM7NZs2aFhITo6uquWbNGul6RsZEH62o+iKuRVk7S1eBs27ZNXV2dy+WqVBXWVTlWVlYqOEFv7dq1SslDqGE0psKIxeKioqKKigoOhyO9XFAgEJSWlg4fPhzfQqakpMTExERiYTPjVFdX19XVDRkyRHqjIcow+CxcLre+vp7D4WhoaHC5XDMzM1WcPIrT0dGRn5//5s2bkSNHovlJRPh8vkgkkg4nyZs3bwoLC5ubmwcNGvTFF19In3tHEwXyFD8XeRvKdBm5hHgMw3JzcysrK01NTTkcjryFCQUFBaWlpUZGRnZ2dl2el6msKnn5SbIcVVfc8oR98FL+JOQRefLkSXNzs6urq7RXaWtry8rKampqGjVqFH72EAUbebCu5oO4GmnlJF0NoqSkRCQSKZ5WxYgqhKrLkQitzg0LCwsLCwsLy8eGCvtNLCwsLCwsLCzdD9u5YWFhYWFhYfmsYDs3LCwsLCwsLJ8VbOeGhYWFhYWF5bOC7dywsLCwsLCwfFawnRsWFhYWFhaWzwq2c8PCwsLCwsLyWcF2blhYWFhYWFg+K9jODQsLCwsLC8tnhWbXJiR4+PDhnTt3iouL7ezstm3bpqmpmZube/Xq1crKylOnTikb2+PHj0tLSyUCdXR0+vbta2pqOmzYMJXu2dzNNDc3p6SkJCQkODg4rFixgtnIMQy7cOFCRkbG27dvhw4dunz5cpJbqguFwujo6Ly8PAzDHBwcvv/+e/zcCaLyc+fO5efn8/n8wYMH+/r6Dh06tHvk1dXVJSQkZGZmdnZ2uri4+Pn59ezZk4KNihRSSLqsrGzdunUnT55EZ6lSQ1m1zc3N6OBYmXh7exMLnXJh4YjF4osXL5qamk6ePJmMPZkU6auipq2b5UnQ1NQUHR0dHh4eGRn59ddfk7mFx+Pt2bMnNTVVW1tbV1d3586dEydOpGAjDxW5GqWqqCrkfeSuhqQTZkQhHbXky5HJJkPhPCoiycnJ9vb2VlZWly5damlpQYF79+5FB7xRO/Sxtrb22rVrtra2SOG4ceNWrVo1f/58Z2dnfX19AwODWbNmKT5d9lPh1atX3377ra6uLgDs3r2b2cjr6+tdXV0nTZpUXV3d1tYWGhpqaGiYnJzc5Y2pqamWlpa2trYcDgcd/zlo0KC3b98SbdLS0qysrA4ePMjj8RoaGk6cONGrV6/w8PBukHfnzh1ra+uYmJimpqaMjIzx48c7ODhUVVUpa6MihRSS7ujoGD9+PEgdGahqtZGRkfLcQt++fdvb2+lETgR1Hezs7ADgt99+Y+pxaKqirK075Unw8uXL9evX46cFpaSkkLmrrKzM1tZWR0envLwcw7Dx48draGicOXNGWRt5qM7VkK+iqpD3kbsakk6YEYU01ZIsR2abDK3Ozfbt2wFg8eLFfD5f4lJcXBzlzg3i3//+N3p4osd/9+7dkSNH+vfvDwAuLi50SujjYenSpYx3bsRi8dSpU/X19evr6/HAKVOmGBgYEA+dl6aqqmrMmDHp6enozxcvXqB+6po1a3AbPp9vbm4eGBhIvHHr1q0aGhqFhYUqlVdSUqKtrR0UFISH1NfXm5qaDhgwAD8rnoyNihRSS3rXrl0aGhp0OjfU1Do6Ojo5OQUFBf1MYN++fTo6Ov7+/jQjx6mrqzty5Mjhw4fRQbZkOhBkUqSpirK27pRHpKioaNGiRc7OzsRxazKdm7a2NkdHR+QwUciRI0cAQEdH59mzZ+Rt5KFSV0OyiqpC3kfuakg6YUYU0ldLphwZbzLUOzcBAQEAMGPGDLFYLH31+vXrNDs3//d//4cacG1trcSlmpqaUaNGAYC5uTkxIz5RAgMDGe/cJCYmAoCPjw8x8Nq1axK+Q5qtW7dK/ItFw4ljx47FQxISEgDg119/JZrdvn0bAI4fP65SeXPmzJH26atWrQKAX375hbyNihRSSPrx48fTp08fO3Ysnc4NBbU5OTky/z1kZWUBQGJiIp3IZTJhwgSSHQgyKTKlSlltH0QehmFcLhf9N1q7dq1SnZszZ84g44CAABRy9+5diRAyNvJQnashX0VVIe8jdzUknTAjCmmqJVmOjDcZip2b06dPA0D//v15PJ5MA/qdm4iICHmdGwzDXr16hV62/Pz8KCfxkaCKzs2MGTOkuxp8Pl9dXV1fX18oFMq78fnz59IhAODh4YGHoLe65cuXE83++OMPADh9+rTq5LW3t2tpaQHA69evieGospmZmZG0UZFCCkk3NTWNHTu2qqrK2dmZTueGgtqnT582NTVJh2/atMnAwAD/xEwtcpm4ubmR7ECQSZEpVcpq+yDyiOCOkWTnBp+U89NPP6GQJ0+eoBBdXd2GhgaSNvJQnashX0UZl/eRuxqMnBNmSiFNtSTLkfEmQ6VzU1dX17t3bwA4dOiQPBti56alpSUpKen69esS8zYUo7hzgxG+W0l/kystLU1ISEhPTxeJRNI3Pn78GL0DCYXCO3fuJCYmtra24lczMzPj4uJkfl5pampKTU2Ni4vLyckh3oLo6OjAfU1BQUFcXJyCEd3GxsbExMSUlBSRSMR456atrQ3NF8vNzZW4NHz4cACIiYkhH1tsbKympibRjT548AAANDU1U1NT8UAvL68+ffoo9oM05SHfBwASFf3vv/9G4XV1dWRsVKSQQtLff//9xYsXMQyj07lhtrhtbW19fX1VETnJDgSZFJl9ZPLaPpQ8Ir/++iv5zk1zczOaywIA27dvR4GFhYV4DGfPniVjIy9+VbsamUhUUQV8rq4GI+eEGVHIiFqZEMtRFU2GyrKjmJgYgUCgpqbm6ekZHx+/ffv2sLCwpKQkDMOkje/cuTNgwAB3d/dZs2YZGxuHhobKNKOAr68vrgcPLC0t9fb23rNnT1JS0ty5cy0tLa9evYou5efnb9iwwdbW1tnZub6+PiwszNzc3MPDw8PDw9HRUSgU5uTkjBo1auLEiQsXLrSzs/vll1+IyYWHhzs7O+fl5RkYGGzdunXYsGF41cnIyFixYoWlpaWbm1tzc/OSJUtGjBixcOFCDoezc+dOCdmtra3+/v4zZswoKSl5/Pixu7t7fn4+IxmCk5eXJxKJAMDExETikrGxMcolklEJhcIDBw7ExcURF2VMmDBh7ty5HR0dM2fORMOG+/fvf/jw4c2bN42MjFQn7/379+hHbW0tMbxv377oR0lJCRkbFSlUNukrV660tbUtXLiwSz2qUCuTJ0+elJWVeXt7qyJykpBJsftVfSryJHj16lVHRwf6jfdg0Ns8ory8nIyNvPhV7Wqkka6iCvhcXQ2Qc8KMKGRErTQS5aiKJkOxcwMAhoaGq1atSkxMfP78eVhY2NSpU93c3LhcLtGSy+Xu27fv6NGjd+7cQQNo//rXv/bu3UshUWlsbW1NTU0BAH26A4CysrKvv/46NDQ0KioqIiIiPT39/fv3Xl5eyMDKymrx4sWvX78GgMDAQEtLy+rqaj6f7+rq+vTpU39//5CQkAsXLjQ3N+fl5fXo0WPHjh2NjY0o5oSEhHXr1i1atGjNmjXTpk07dOhQeXn5d999h64OGTLEzc2trq5OLBYvWbJk/vz5TU1NycnJ2trae/bsIVagzs5Od3f38vLyv/76a926dZs3bz5//nxBQQEjGYJTXV2NfqABNiKGhoYAUFlZSSae7OzssWPH1tbWvnnzRqJLeu7cuYkTJwqFwjlz5jg5OWVnZz9//hxNHFGdvCFDhqAfubm5xHA8nrdv35KxUZFCpZLmcrm7d+/GJ5bRganiBoBLly7p6upOnz5dFZGThEyK3a/qU5EnQZcJVVRUkLGRd6kbXI0E0lVUAZ+rq0F06YQZUciUWgkkylEVTUbpzg2GYeif8ezZsxMTE6Ojoy9fvlxQUDBixIh79+6hLyw4QqHw2rVr8+fPd3d3j4yMXLduHQCEhYXxeDxl05UJ2hSkvr4e/blx48avvvqKw+GgPwcOHDhlyhQMw37++WcAMDIyGjt2LFo0v3HjRj8/PwMDAz09vR9++AEAMjIy4uLi7Ozs1NTU0PiNSCRKTU1FUeXk5AAAWtICAMOGDTM2Ns7KykJvPEZGRmjellgsPnDggKenp56e3pQpU9zc3MRicVpaGi741KlTqampu3bt0tHRQSHW1tbTpk1jJDdwGhoaAEBdXR1NSyKCqg7q4SmAx+MFBARMnz69qKiIy+UGBgYSpzECgJ6e3u3btydNmgQA2dnZ+fn5KFGVyjMwMHB1dQUA4sg8AAgEAvTD0tKSjI2KFJJPGsMwf3//gwcPSrdkCtAvbpz4+PgZM2agvQkYj5wkZFLsflWfijwJampqFBtUVVWRsZF3qRtcjQTSVVQBn6urQXTphBlRyJRaCSTKURVNRunOTX19fWtrKwD4+/vjixItLCzCw8MB4OrVq/hMNAAYPHgwUWtwcLCWlpZQKETfC+nT2dkJACiJ9vb269evFxcXLyFQVlYGAI8ePcJvQeOuxH8qFhYWKIS4H1S/fv0AAB+I+vHHH2NiYvBWh6bsAAA+tIMP56LBJASqOkTfERoaqqurK7E1Fj5IyBTo4yWGYWKxWOISyjG8lyYPY2PjyMhIHo+Xm5uLRomPHTuWnZ1NtElMTOTxeFu2bNHU1CwuLh43btzjx49VLe/w4cM6Ojr37t1bu3Ytj8drb29/8OCBn58fumptbU3SRkUKSSYdHh4+cuRIktuvqU6tBLm5ueirrioiJw+ZFLtf1aciTwI0pK8AIyMjMjbyLnWPq8GRWUUV8Bm7GkSXTpi+QgbV4kiXoyqajNKdGzxt9O8fZ9KkSWj7GeIImJqaGtHGzMxs9OjRAECcrUYH9CkRldCLFy/a29tnzZq1nUBCQkJRUdH9+/cVRIL3S6QDhUIh+tPQ0NDX17dXr17FxcWbN2/esmVLe3s7/Dff5YHKA8+x2traqqoqKysrBbeIxeIYKfAv4iRBvSUMw3D9OKjP3qU7wxk9evStW7ccHBwwDLtx4wYefvLkSX9//4SEhL1796akpFhYWAgEAg8PD9SbVJ08BwcHtA/ViRMn+vXrZ2Njc+XKFQ8PDwBwdnZGN5KxUZFCMkkXFBT8/vvv+HR4+jBV3PHx8To6Okgt45GTh0yK3a/qU5EnwYABAxQbWFtbk7GRd6kbXA0RmVVUAZ+xqwFyTpi+QqbUEpEuR1U0GaWPXzAzM0Prsvh8vsQlGxubqqoqBbPPAMDKyiorK0tmf0JZXr58iT5Ioe92RUVFANDZ2ansIQAkKS0tDQoKMjQ0DAsLMzExiYuLe/funVIxoC6d4v5Qe3s73q3G8fLyUirH7O3t0Q+BQCDx4QMNNaHNskjSo0eP4ODgBQsW4G0mPz9/5cqV/v7+aBdpFxeX7OzsCRMmlJaW7ty58/z58yqVN2rUqLS0tNbWVqFQiGr8uHHjAOAf//iHUjYqUthl0iEhISKRSOLtE9XegIAAPT09FxeX4OBgMjrpqyUSHx/v7u6O737LbOTkIZNi96v6VORJQOy44HNZiC/HAwcOJGMjL35VuxoJZFZRBXzGroa8E6apkBG1EkiXoyqaDJUJxWiaksQEbPhv3wqN38gDTcIfOXIkhXQliI2NBYCePXuiQkI5QvLLiLKkpaV9+eWXAwcOPHXqlPR0bpKggRy05YA8G21t7WwplD0HxNzcHI0P4bO0cFAI2rKMPGi8Da9eFy9eFIvF6MQAPEXUnJKTk7tHno6ODqpv6enpmZmZNjY2/v7+FGxUpFBB0r1793737l3B/9LS0gIAL168KCgoUHbqHCP5mZeX9/Lly3nz5qkicqUgk2L3q/pU5ElgaGg4YsQI9BvVMSAMSAOAq6srGRt58ava1RCRV0UV8Bm7GmWdMGWFjKglIrMcVdFkqHRuvvrqKwDIzMyUCEfjKGhVujwqKyt79uyJtvqmQ0lJSVhYGABs2bIFTZoZNGgQAKSmpr548ULC+PLly/fu3aOT3MqVK4VCIdqUGUFhQTsaUmptbVXwmUxNTc1BCgoHhaIFxviEaERVVVVFRYW5uTmxSZABlSxeamjSlcT7k7Ozs5GREfpa123y+Hy+r6+vmprayZMn5c0xJGOjIoUyk46KiiqXAu1zc//+/fLy8mPHjpEUyaDa+Ph4TU1NNC+e8ciVhUyK3a/qI5GnwPMUFxfPnDnT1dWV6O5Wr16NfuALg/Eh54kTJ6L3TDI28lCpqyGioIp2g7yPzdVQc8LUFNJXS0ReOTLeZKh0bgIDAzU0NGJjY4nNrK2trbCwkMPhuLi4yLuxpqbmyZMn27dvJzP4oaCE/v7772nTpjU3Ny9evBidbwUAAwcOdHBwEIvFfn5+xE9mDx48iI6Oxg/7lXYNKERiHhPRrKWl5enTp0BYEikSiVASqIbJjBakvkCZmpqiEtq3bx8xObR2rK2tTd7zUiAgIEBLSwvfQx2B/ly9erW2tjYKycrKQkeQKo7t2rVrkydPdnd3R386ODgAAHHmOAB0dna2tLSgS90jr6Wlxc/Pr7KyMjIyEm3CRs1GRQopJ00B+mrj4+O/+eYbmXPbSUbeJdJTBXEkhJFJkSlVXWr7GOQRIY6poK1BcPz8/G7evPno0aO5c+c2NzfjgWhUG58wgK9+wldIkLGRh0pdDREFVVTV8j5CV0PBCTPikVTnaphvMsru+ocICQkBgG3btuEhJ0+e1NLSunfvHvoTjYxZWVnheyO2tLTMmzdv2rRp0nv7ygSdfwEAt294pUcLAAAgAElEQVTfxjCsra2tpqYmMTHRx8dHR0fHyMjoyJEjEsdaJScno0EOU1PTdevWhYaGenl52dra4ptPd3Z2ojZ869Yt/C50oImxsXFnZyce6OXlBQD4eWNo3dO4ceNSUlLOnj07f/58tCrq4MGD8fHxGIbhH+nQmboINGFq06ZNeEh6ejqaPePt7Z2Zmcnlcg8ePIgWtNvY2Ozfv7+xsZFM5pBh165dQDi5QyAQWFtbOzo64vlfXV2NvpQRj1j38/NzcHCIjY3F8zYpKYnD4dTU1OA2ra2tjo6O+vr6xPPMTp8+rampmZaWplJ5OPn5+SNGjDA1Nf3jjz/kJUHGRkUKlU36m2++AXqngtNRm5eXBwrPBesy8i4Ri8U2NjYAcPjwYYlLMoWRSZG+qi61fQzyJKQSd47YsWMH8SrxH0ZFRQUefuHCBeTi0DJPtGGHt7c38V4yNvJQnavB6bKKMi4P5+N0Nco6YZoKaarFUVyOzDYZ6gdnnj9/3tDQ0NPTMyIiYv369RwOJzMzE78qFov37NljZ2dnZmbm6em5bNmyiRMnHjhwQOYpmxIkJCT4+PgQp9D26tVLQ0Ojb9++w4cP//bbb8+cOSPvRNO7d+/ic/vV1NR8fHwqKyvRpZSUlCVLlqBLTk5O0dHRGIYdO3YM3xfH19c3JSWlpqZm06ZNaB8aExOTvXv3NjY2/vnnn2jBeY8ePZYtW8bn8zds2AAAWlpaUVFRqampuMdxd3dPTExsbGwMCgpCj9CnT599+/bhCh89eoS+oAGAnp5eREREYGBg//79N27cmJOTQ7k4ZBIVFWVlZbV58+aIiIgxY8b4+voSzwJraGgwMDDQ0NDIyMjAA/F9nzkczooVK5YuXRoeHi5dt2pqanx9ffv06RMcHPzbb78FBgba29vfuHFD1fJEIlFCQsLSpUvNzc1DQ0NlHllCxkZFCiknTb9zQ0EtzrZt29TV1blcLuXIFdDS0nLs2LH58+ejemVpablnzx7iqYfyhJFJkbIqkto+rDwimZmZPj4+0pNRXF1dV69ejWzw/dA9PT0lbo+PjzczM5s1a1ZISIiuru6aNWukGzUZG3moztUgyFRRZuV95K4GI+eEGVRIUy2iy3JksMmoYTQOQxCLxUVFRRUVFRwOR95ywZaWlqKiIlNTUzQ+0T1UV1fX1dUNGTJEekcgyggEgtLS0uHDh+Pb4ZSUlJiYmKD9E5WFy+XW19dzOBwNDQ0ul2tmZiaxbJ4pOjo68vPz37x5M3LkSDQ5iQifzxeJRBLhBQUFpaWlRkZGdnZ2ij8gvnnzprCwsLm5edCgQV988QWFuUHKyrtx4waXyx05cuSYMWPk7XxAxkZFCplNmgIUihsASkpKRCJRl9P8FUdOB3nCyKSoOlWfijwiT548aW5udnV1lfYnbW1tWVlZTU1No0aNQnuZSkPGRh4qdTUkqyiD8j5yV4Oj2AmrziOpztUw1WRodW5YWFhYWFhYWD42qEwoZmFhYWFhYWH5aGE7NywsLCwsLCyfFWznhoWFhYWFheWzgu3csLCwsLCwsHxWsJ0bFhYWFhYWls8KtnPDwsLCwsLC8llB6qzplpaWlStXqloKCwsLCwsLC0uX/PDDD4oPnCLVuVFTU6OwPxsLCwsLCwsLS/fDbuLHwsLCwsLC8lnBjsewsLCwsLCwfFaQ+iwlQXNzMzpJWybe3t746UvSZGVlvXjxQiJQV1cXnYuhq6tLQQ9lmpubU1JSEhISHBwcVqxY0Z1Jdw8Yhl24cCEjI+Pt27dDhw5dvnx5l+fFKFu4YrH44sWLpqamkydP7gZ5CKFQGB0dnZeXh2GYg4PD999/r6DKAUBZWdm6detOnjyp7AFn1BTyeLyLFy8+efKkR48ejo6Ofn5+2tralM1UrRYAbt269fbtW/zPlpaW2trabdu2EW2UzXNGhOE8fPjwzp07xcXFdnZ227Zt09LSouOFGNSmuP7Tf3D6EZLPqLq6uoSEhMzMzM7OThcXFz8/v549e34MwujUPcryQMkWSscTdoNCMm1c1WqJKPDJjEmlcNhmZGSkvNj69u3b3t6u4N7a2tpLly7hGTFx4sTVq1fPnz9/yJAhADBkyJDDhw93dnZSUKUsr169+vbbb1F3avfu3d2QYjdTX1/v6uo6adKk6urqtra20NBQQ0PD5ORkxXeRL1zUmO3s7ADgt99+6x55GIalpqZaWlra2tpyOBx07vqgQYPevn0rz76jowPNO1P2zG1qCm/fvi3Rzu3s7F68eEHNTNVqMQyrrKxE2Ujk3r17RBtl85wRYYjk5GR7e3srK6tLly61tLTg4XS8ECPauqz/NB+cqQhJZtSdO3esra1jYmKampoyMjLGjx/v4OBQVVX1wYXRqXt05JFvoTQ9YTcoJNPGVa2WiAKfzKBUKp0bR0dHJyenoKCgnwns27dPR0fH39+fTAw//vgjEl1fX48H/vnnnzo6OgDg6+tLQRU1li5dCp9j50YsFk+dOlVfX5+Yw1OmTDEwMCgtLVVwI8nCraurO3LkyOHDh9G568o2acryqqqqxowZk56ejv588eLF4MGDAWDNmjXybtm1axc6Dlepzg01hUVFRWZmZocPH/77779TU1M3b96spaUFAA4ODm1tbcqaqVotYsOGDZMmTQoksHXrVqIBhTxnRBiGYdu3bweAxYsX8/l8iUv0vRAdbV3Wf5oPzqBaMhlVUlKira0dFBSE31VfX29qajpgwIDm5uYPKIxO3aMjj3wLpekJu0EhRqKNq1qtBAp8MoNSle7c5OTkyPQdWVlZAJCYmEgmkn//+9+oc9PU1CQzHK/NqiYwMPCz7NwkJiYCgI+PDzHw2rVriv0ChcKdMGEChSZNTR6GYVu3bpVoD2hke+zYsTLtHz9+PH369LFjxyrbuaGmcPbs2bdv3yaG/P7776hKP3jwQFkzVavFMIzP55ubmyt+D1Y2zxkRhmFYQEAAAMyYMUMsFktcYsQL0dGGI6/+MxI5/QhJZtScOXMAICUlhWizatUqAPjll18+oDA6dY+OPAotlJon7AaFZNq4qtUSUeCTmZWqdOfm6dOnEj0SxKZNmwwMDIjjxgrYvXu3zM7NX3/9hcIPHz6srDBqfK6dmxkzZgDA8ePHiYF8Pl9dXV1fX18oFMq8i0Lhurm5UWjS1ORhGPb8+XPpEADw8PCQNm5qaho7dmxVVZWzs7OynRsKChsbGxcsWCAdjj65HjlyRCkzpaCcn3v37p0zZ05dXZ2CyJXKc6aEnT59GgD69+/P4/GkrzLihShrIyKv/jMSOf0IyWRUe3s7eul//fo10eb69esAYGZm9qGEYfTqHmV51FooNU/YDQrJtHGVqiWi2CczK5XKZymZ2Nrakv+cJK9zgzqA0nmHaGpqSk1NjYuLy8nJaW1tlbja0dGBv3kUFBTExcU9e/ZMZuqNjY2JiYkpKSkikUhe50YgEDx48ODPP/989eqVvKd4/PgxGrMVCoV37txJTEwkqsrMzIyLiyssLJSbCyqjra0NzQTMzc2VuDR8+HAAiImJUSpCBYVLoUkzKy82NlZTU1PipRPx/fffX7x4EcMwZTs31BQKhUKZcxS8vLwAIDo6Wikz8lDOz5aWFvyb/eDBgzdt2qSgthNRkOeMCKurq+vduzcAHDp0iIweHPJeiKlKKLP+M94AVdqiUXcBACT+M/39998oXME/m+50NQiSdY+OPGotlFrnRtUKKbdxBtUSUeCTmZWKYRgzS8GfPHlSVlbm7e1NM55bt24BgLq6OhriIxIeHu7s7JyXl2dgYLB169Zhw4bhbTIjI2PFihWWlpZubm7Nzc1LliwZMWLEwoULORzOzp07iZG0trb6+/vPmDGjpKTk8ePH7u7u+fn5Egm9e/du2bJls2fPzs/Pz8zMdHFxGTFiRHZ2Nm6Qn5+/YcMGW1tbZ2fn+vr6sLAwc3NzDw8PDw8PR0dHoVCYk5MzatSoiRMnLly40M7O7pdffqGZLcqSl5cnEokAwMTEROKSsbExAJSWlpKPjanCVYU8oVB44MCBuLi4r7/+WuLSlStX2traFi5c2G0Ke/XqZWlpKR3O4/EA4KuvvlLKTNVqASAzM7O9vR39Likp2b9//+DBg48fP644OQV5zpSwmJgYgUCgpqbm6ekZHx+/ffv2sLCwpKQkTOGmXEpVVGbbiKojV2mLfv/+PfpRW1tLNOvbty/6UVJS8kGESUO+7tGRx3gL/YAKqbVxZtXiKPbJzEoFpva5uXTpkq6u7vTp0ynH0NLS8p///Ofo0aMAsHPnTg6HQ7yakJCwbt26RYsWrVmzZtq0aYcOHSovL//uu+/Q1SFDhri5udXV1YnF4iVLlsyfP7+pqSk5OVlbW3vPnj14y+zs7HR3dy8vL//rr7/WrVu3efPm8+fPFxQUEBNqbm52cnLicrl3795dvXr17t27Hz58KBAIxo8fn5SUhGysrKwWL178+vVrAAgMDLS0tKyurubz+a6urk+fPvX39w8JCblw4UJzc3NeXl6PHj127NjR2NhIOWcoUF1djX6g118ihoaGAFBZWUk+NvqFqyJ52dnZY8eOra2tffPmjcS/PS6Xu3v37v/7v//7sAoBoKmpKTc3193dHU2EpGnGrNoJEybweLzq6urr1697e3traGi0tbWtWrXq1KlT8tJSkOcMCouJiUE2q1atSkxMfP78eVhY2NSpU93c3LhcrrzklKqozLYRVUeu0haNvmUAQG5uLtEMT4u4Lrc7hUmgVN1jXB6dFvoBFVJo4ypS26VPZlYqAKWl4NJ88cUX3t7e5O3xz1JbtmzZuHHjwoULe/furaWlNXHixBs3bkjb79ixAwD27t2Lh6B+Ir5csKWlBUVInLA9c+ZMIIzRnTx5EgDu379PjHnBggVA+Cy1efNmAEhLSyPaREdHA4CNjc379+/xwP79+wPA3bt38ZCzZ88CgJWVlUgkwgOnTp0KAFevXiWfOfSJiooCAHV1delLS5YsAYBp06aRj01x4VIYjKUvr76+fvny5fibJQCsXr0avyoWi6dPn04cuFb2sxSDGXjixAkdHZ0uv06SNJMJU2qfPXuG3KK+vr70nD7Fec6gMLFYjFZNLl26FN8Vorq6esSIEQAwZ84ceckp5YWYyjSZ9Z/ZBsh4hNIZ5erqCgCTJ08mBlZVVaGCzs7O/lDCEBTqHuPyumyh1D5LdbOrUdzGVaeWgk+mKRVj5LNUbm5uaWkptc8WxsbGAoEgLi5OIBAcPXr0/v37aL6SBD/++GNMTMzatWvRn2imCwDgIyL4ynhTU1P8LjRwV1NTg/4MDQ3V1dWdOHEiMWZig8Ew7OjRo2pqal9++SXRZuHChQYGBuXl5fjgDZ4isQNrYWGBQogbTPXr1w8AFLxuqgL0WRRVKYlLnZ2dAICW4ZGBTuGqTp6xsXFkZCSPx8vNzUUD1MeOHcM/HYaHh48cOZLkwLWKFCKEQuGuXbuOHDkybNgw+maqVjt8+PBHjx4ZGRkJhcL09HSJq4rznEFh9fX1ra2tAODv748faWdhYREeHg4AV69effLkifRdylZUBttIN0Su6hZ9+PBhHR2de/furV27lsfjtbe3P3jwwM/PD121trb+UMIQFOoes/JottCPR6HiNq46tRR8Mk2pwMhnqfj4eB0dHQ8PDwr3rlix4sSJE6hD889//hOtA5TG0NDQ19e3V69excXFmzdv3rJlC/o4hzJUHiijUTHU1tZWVVVZWVkpsH/16lVTU5O2trbE9pc9e/ZENUZ6gg4R6a2H8EChUKjgRsZBPTYMw6TTFQgE8N/vo2SgU7jdIG/06NG3bt1ycHDAMOzGjRsAUFBQ8Pvvv+N7CnxYhT/99JOfn1+Xm1+TNJMHg/lpYmKC9qB6+vSpPBvpPGdWGO430YsBzqRJk9BwqcTXE4SyFZXBTOuGyFXdoh0cHNDGfSdOnOjXr5+Njc2VK1eQjbOzs4LIu9nVkK97zMqj2UI/KoVk2jizain7ZDpSgdrxCxLEx8e7u7sbGBhQu11NTe38+fMODg4VFRVz587Nzs6WuZFzaWlpUFCQoaFhWFiYiYlJXFzcu3fvyKdSWFgIXXWG0DBsa2srj8eTKKT+/ftnZmYq+Pb8UWFvb49+CAQCiY+jaKyL/GdjmoWrankA0KNHj+Dg4AULFpSVlQFASEiISCSSeP8rKioCgICAAD09PRcXl+Dg4G5QePToUQzDfv75Z0bMFMBsfjo5OUFXLUUiz5kVZmZmhtaU8vl8iUs2NjZVVVXl5eXSdylbUZnNNFVH3g0tetSoUWlpaa2trUKhEHm/cePGAcA//vGPDytMApJ1j0F59Fvox6aQTBuXCTW1dHwyZalAf+QmLy/v5cuX8+bNoxNJnz59Ll26pKOjU11dPW/evLa2NgmDtLS0L7/8cuDAgadOnZKep00GNIqDNnKQZ4MXzKtXryQuoX0gJKY5f7SYm5ujMSp8/hcOCpFejCYTRgpXdfJwRo8eDf8tvt69e797967gf0FTsl68eFFQUEBmgh59hQkJCRkZGSdOnFBTU6Nvpmq1RPT19QEALexUADHPGReGprhKLN6B/74XovEbIhQqKuOVUKWRd1uL1tHRQZmcnp6emZlpY2Pj7+//MQgjQqbuMSWPkRb6sSkk2caZUkvHJ1OWCvQ7N/Hx8ZqammiDSzo4ODigedTp6ekrV66UuLpy5UqhUIh2LEUo6KPIZOjQoQDQ2tp6//59eTampqboEC+0CSMRVHKoF/lJgJbbpaamEgOrqqoqKirMzc3RuR5dwlThqkgeTn19PQA4OjoCQFRUVLkUaPLa/fv3y8vLjx07pmqFSUlJFy5cOHXqFD5lBCExS4CkmarVSlBYWKilpeXg4KDYjJjnjAtDa1kzMzNlJirt6ahVVGYroaoj784WzefzfX191dTUTp482eVhxt3vakjWPfryGGyhH5VCkm2cKbV0fDIdqQx0br755hvitFwyoAmDAICvaweAgICAb7/9FgBOnToVERGBh7e0tKBPbhUVFShEJBKhIWs8Hpl9HeJYlqmpKcr3ffv2ESdDoY0B8LGif/3rXwBw7tw5YjwNDQ3Z2dmLFi1CbwzyUkQhEjOtlO2EMUVAQICWltbdu3eJgejP1atX4yfHZmVl3bx5U55IMoUrPbOs2+ThXLt2bfLkye7u7hSUMK4wLS3t+PHjZ86cIc7B6ujoOHXq1LNnz5Q1U6ladAaNRFSRkZFbtmwZMGCA4hRJ5jk1YYGBgRoaGrGxsUR5bW1thYWFHA7HxcVFIhVqXoikNml5ROTVf/KRM6uWfotuaWnx8/OrrKyMjIxEK4A+EmE4SrV3VTdkHGqeUNUK6bRxZtV2CeNSaS0Fz8vLAzm7CSvGx8cHpZ6ZmUkMb25uHjVqFABoamr+8ccfeDha9zRu3LiUlJSzZ8/Onz8frYo6ePBgfHw8hmH4CHZ5eTl+F5qbtmnTJvRneno6qgTe3t6ZmZlcLvfgwYNoqMbGxmb//v2NjY2dnZ3Tpk0DgJCQEDyeNWvWDBo0qLq6Gg/p7OxEXxxv3bqFB6JDT4yNjYmnmqMtI4kn0nUbu3btAsIpLQKBwNra2tHREd9Gubq6Gn2tQ7VQAjKFKxaLbWxsgNJxGdTk+fn5OTg4xMbG4ucNJSUlcTicmpoaBWl98803oPyp4BQU5uTk9O7d29zcfOD/oqenZ2hoiJ9BSNJMpWrr6ur09PSMjY0jIiJQjRWLxcHBwfPmzZPY/ptantPJRgzDQkJCAGDbtm14yMmTJ7W0tKTPB6bshchokycPobj+k4mcWbX0W3R+fv6IESNMTU2J7vcDCqNZ9yjLU7aF0vGEqlNIvo2rWq00Ej5ZFVJpdW62bdumrq7O5XLJ33L9+vV58+bhXwctLCz++c9/EnskL1++RNsBqaure3t7FxcXYxj2559/ojNXe/TosWzZMj6fv2HDBgDQ0tKKiopKTU1FPRIAcHd3T0xMbGxsDAoKQl2ZPn367Nu3D0X+6NGjQYMGIUs9Pb2IiIjAwMD+/ftv3LgxJycH2XR2du7du9fExGTq1Kk7d+709PT87rvv3r17hytMSUlBa/oBwMnJCe2jc+zYMXxGjq+vb0pKSk1NzaZNm9COHSYmJnv37m1sbKST2xSIioqysrLavHlzRETEmDFjfH19iSf1NDQ0GBgYaGhoZGRkSN+ruHBbWlqOHTs2f/589MiWlpZ79uwheWAhHXm+vr4oRQ6Hs2LFiqVLl4aHh3dZ+6l1bpRVWFlZqWBC2Nq1a9FdJM0ooJRakUg0ZswYlKi9vT3alVvmvzRqeU5ZGM758+cNDQ09PT0jIiLWr1/P4XAk3oUQFLwQeW3y5JGs/11Gzqxayi1aJBIlJCQsXbrU3Nw8NDRU5qlPH0QY/bpHQZ5SLZQRT6giheTbuErVykTCJ6tCqhpG47tJSUmJSCQaOXIk5RjIIxAISktLhw8fjq/TLikpMTExQT0hpeByufX19RwOR0NDg8vlmpmZyZyKhVaG29nZSXzO/LTo6OjIz89/8+bNyJEj0U48RPh8vkgkkg6H7ipcCvIKCgpKS0uNjIzs7OyozS5XtcIPiFJqMQzLzc2trKw0NTXlcDgKFqrQz3Nq2SgWi4uKiioqKjgcjrzdVuhXVMXaFMhjJHJmI6TWom/cuMHlckeOHDlmzBjKG/yoyNUw1d4//oasCoXk2/gHV8u4VFqdGxYWFhYWFhaWj41PeEyChYWFhYWFhUUatnPDwsLCwsLC8lnBdm5YWFhYWFhYPivYzg0LCwsLCwvLZwXbuWFhYWFhYWH5rGA7NywsLCwsLCyfFaROBW9tbUWb5rGwsLCwsLCwfFi+++67sWPHKjAg1bnBMAwdaM7CwsLCwsLC8mHBT4SUB7uJHwsLCwsLC8tnBTvnhoWFhYWFheWzgtRnKZk0NzefO3cuPz+fz+cPHjzY19d36NChXd71+PHj0tJSicB+/foNHTq0f//+3XaK05YtWzIzM2NiYszMzLonxQ8ChmEXLlzIyMh4+/bt0KFDly9fTvJ56+rqEhISMjMzOzs7XVxc/Pz8evbsyVTkjMRw69att2/f4n+2tLTU1tZu27ZNWRtmFTY3N6PD4WXi7e2Nn4wGAEKhMDo6Oi8vD8MwBweH77//nniVAipVS6ewqN2r2MMoJZ5xbRI8fPjwzp07xcXFdnZ227Zt09LSwi/Rr4REeDzenj17UlNTtbW1dXV1d+7cOXHiRDI3Xr58OTo6ukePHq9fv9bU1Fy/fr23t7eETV1d3datWx88eMDj8ezt7ZcvX7506VKSwlhXw7oaRtQy0h7/v0oKpKWlWVlZHTx4kMfjNTQ0nDhxolevXuHh4V3eyOVyL1682LdvX5T6/Pnzly1bNnXqVAMDgx49ekydOjUlJYWaJPJ0dHTo6ekBwIULF1Sd1gekvr7e1dV10qRJ1dXVbW1toaGhhoaGycnJXd54584da2vrmJiYpqamjIyM8ePHOzg4VFVVMRI5IzFUVlaiI9+J3Lt3T1kbxhVGRkbKa2h9+/Ztb2/HLVNTUy0tLW1tbTkcDtI5aNCgt2/fkpfXnWrpFBa1e7v0MOTFM66NSHJysr29vZWV1aVLl1paWiSu0q+ERMrKymxtbXV0dMrLyzEMGz9+vIaGxpkzZxTfJRaLAwICAGDq1KkYhrW1taEjKtevX0/MpaysLNwt43z//fdkhLGuhnU1jKilX9ZEqHRu+Hy+ubl5YGAgMXDr1q0aGhqFhYVkYvjhhx/Qg+FPJRAIgoKCAEBdXT0qKoqCKqW4cuXKrl27mpubyd/S2NioOj2MIxaLp06dqq+vX19fjwdOmTLFwMCgtLRUwY0lJSXa2tpBQUF4SH19vamp6YABA/Dsohw5fXmIDRs2TJo0KZDA1q1bKdgwrtDR0dHJySkoKOhnAvv27dPR0fH398fNqqqqxowZk56ejv588eLF4MGDAWDNmjXkFXabWjqFRe1eMh6GpHjGtRHZvn07ACxevJjP58s0oFkJibS1tTk6OgKAi4sLCjly5AgA6OjoPHv2TMGN0dHRyNmGhoaikL1796KQo0ePopD6+norKytdXV1bW1s1NTXi/54bN24oFsa6GtbVMKKWfllLQKVzk5CQAAC//vorMfD27dsAcPz4cTIxbN68GbUcifBp06YBgL6+Po/HoyBMdfB4vNmzZ39oFUqQmJgIAD4+PsTAa9eudVmt58yZAwAS42erVq0CgF9++YVm5PTlYf/9z6f4zYOMDeMKc3JyZP5bzcrKAoDExEQ8ZOvWrS9fviTaoDHbsWPHfoRq6RQWtXu79DDkxTOuDQcNh8yYMUMsFss0oF8JiZw5cwb5zICAABRy9+5diRBpOjs7TU1NkdmRI0dQ4OXLl1GIubk56kasXr16+fLlQqEQwzAejzd16lS8c7Ny5UrFwlhXw7oaRtTSL2sJqHRu0BvD8uXLiYF//PEHAJw+fZpMDMHBwTI7N4cPH0bhN2/epCBMRXR2dk6dOnX06NEfWogSzJgxQ7qvyefz1dXV9fX1kReTpr29HU0XeP36NTH8+vXrAGBmZkYncvryEHv37p0zZ05dXR1NG8YVPn36tKmpSTp806ZNBgYGxG8Wz58/l7B5/vw5AHh4eHyEaukUFrV7u/Qw5MUzrg1x+vRpAOjfv7+C1zD6lZDI119/jXzjTz/9hEKePHmCQnR1dRsaGmTe9fLlS7ybEhERgQL/+usvPPCPP/5obGx0d3cndtHev3+vq6uLDCZPnqxYGOtqWFfDiFr6ZS0Blc7NgwcPAEBTUzM1NRUP9PLy6tOnj7w2JoG8zk1sbCwKj4uLI4aXlpYmJCSkp6eLRCLp2B4/foxhWHt7+/Xr1wsKCvDwkpKSa9eu5ebmikQi6czlcrkSg10y7Ts6OgIDAwFg+IPArygAABvySURBVPDhFRUVFRUVSn3M+iC0tbWhSXm5ubkSl4YPHw4AMTExMm9E9R4AJGrS33//jcLr6uooR05fHoZhLS0t+PyywYMHb9q06dWrVxRsVKdQGltbW19fX8U2sbGxmpqa1CacqVQtncgp30vZw5DJapraMAyrq6vr3bs3ABw6dEieDf1KSKS5uRmf1bF9+3YUWFhYiPdRzp49K/NG9OKL2L9/PwrMzc3FA8PCwsRicUdHh8SNHh4eyGDRokUKhLGuhnU1CJpqmY0ZQWV10oQJE+bOndvR0TFz5kzUePbv3//w4cObN28aGRlRiBDn2bNnAKCmpubg4IBCSktLvb299+zZk5SUNHfuXEtLy6tXr6JLL1++3LNnz7Bhw9zc3BobG11cXGbNmmVvb//q1avOzk4/P7/t27erqanl5uYOHTr0H//4B7pLKBSePXt22rRp/fv3v3nzJgpUYH/58mWkqrq6euPGjRs3bsSb5UdLXl6eSCQCABMTE4lLxsbGACC9YA3x/v179KO2tpYYjs80LCkpoRw5fXkAkJmZ2d7ejovZv3//4MGDjx8/rqyN6hRK8OTJk7KyMumVKUSEQuGBAwfi4uLwt3OlUKlaOpFTvpeahyGT1Yw8V0xMjEAgUFNT8/T0jI+P3759e1hYWFJSEkbYM4x+JSTy6tWrjo4O9Bvv5RDXZJWXl8u8sVevXvhvoVCIfojFYjzw5cuXampqGhoaEjdqa2ujH+h9Wh6sq2FdDSNqGYwZh+JS8HPnzs2cOfPBgwdz5sxxdHS0sbF5/vy5tCylqK6uRtVi8eLFtra2AFBWVvb111/fvn2bw+EAwMaNG4cNG+bl5ZWRkeHk5FRZWVlVVVVcXKynp7dz586tW7dGR0c/ePBAS0vr6NGjqampFRUVaHKctbX1vn37UCpVVVU9e/bMzc3t7OzEk1Zgv2DBgj59+ri5udnY2MTHx9N5wG6juroa/UDvl0QMDQ0BoLKyUuaNQ4YMQT9yc3MHDRqEh+PxvH37FveMykZOXx4ATJgwgcfj1dTU5Obmnj59OiEhoa2tbdWqVWhiGnkb1SmU4NKlS7q6utOnT5dnkJ2dvWTJEoFA8ObNGwzDJKZzfnC1dCKncy8FD9NlVjOlLSYmBpmtWrXK1NT03bt3KSkpfD5/8uTJ58+fNzc3ByYqIZEuS7CiokJmOHrrRaCXNCB0LAAA/UeRBn3zsrW1XbhwoYJ0WVfDuhpG1DIYMw7FfWX09PRu3749adIkAMjOzs7Pz29oaKAQT1FRUVlZWWpq6v79+7/88suGhoZZs2adOHECXd24ceNXX32FejYAMHDgwClTpmAY9vPPPwPA5MmT16xZAwDv379fsmSJp6fnlStXeDyehYXF/fv3+Xx+a2srunHy5MloijgA2NnZLViwYNy4cUQZCuw/RVBZqKurE9/bEKjqvH79WuaNBgYGrq6uAPDrr78SwwUCAfphaWlJOXL68nAsLCw8PDwuXbqUn5+PSmr9+vUSNZCMjeoU4sTHx8+YMQOfwUCEx+MFBARMnz69qKiIy+UGBgauXbuWZLTdppZO5HTupeBhFGQ1g9owDCsoKACA2bNnJyYmRkdHX758uaCgYMSIEffu3UOfsHHoVEIiNTU1ig2qqqpkhvfr12/JkiXo9/3799EpOsQdWaysrKTvSkxMrKys1NLSOn36tPSuM0RYV0PSRnUKcT5pV8NgzDjUN81LTEzk8XhbtmzR1NQsLi4eN27c48ePlY1k/vz57u7ua9euvXPnjo+Pz8OHD69du4YeD82hKS4uXkKgrKwMAB49eoRuR5a6urpOTk4oBPVGzczMhELhzJkzcafwr3/9i5iuRA52af9pgfwRhmHE8WcEGq+SHoXGOXz4sI6Ozr1799auXcvj8drb2x88eODn54euWltb04mcvjwJhg8f/ujRIyMjI6FQmJ6eTtlGRQpzc3PRd1WZV42NjSMjI3k8Xm5uLholPnbsWHZ2NpmYu00tnchpClPKwyjOaga11dfXo7cgf39/fNNRCwuL8PBwALh69So+z5cIhUpIBI3MK0DB17r//Oc/6HzBt2/fzpw585dffsHXbcD/Du0gxGJxSEiIurr6uXPnutwhkHU1ytqoSOGn7moYLCkcip2bkydP+vv7JyQk7N27NyUlxcLCQiAQeHh4oM4HeQoKCkpLS/Py8pKTk8PDw11cXPBLL168aG9vnzVr1nYCCQkJRUVF9+/f/59nkNrX+KeffurTp89ff/01dOjQsLCwtrY2fD2kTJS1/8hB360xDMO/suOgFyMFvtLBwQHtpnXixIl+/frZ2NhcuXIFzS50dnY2NjamEzl9edKYmJj8+OOPAPD06VM6NqpQGB8fr6Ojg8/NlMfo0aNv3brl4OCAYdiNGzfIxNxtaulETudeZT0Myaymrw13vv369SOGT5o0qX///gBAnK5LRNlKSGTAgAGKDaytreVd6tev36NHj6Kion744QdTU1Mul4tPc+nZs6enp6eEfWhoaF5eXkxMzKJFi7oUxroaCjaqUPipuxpmSwpBpXOTn5+/cuXKhQsXopkxLi4u2dnZX3zxRUNDw86dOylEKJOioiIA6OzsHCoLxffa2tqmpqaOGjWqqakpODh41KhR8jwONfuPHHt7e/QDH+PFQePSij+6jRo1Ki0tTSgUvnnzpqqq6tChQ2iyEZpkTTNyRmKQAI3bESdRUbNhXGF8fLy7u7uBgUGXlj169EBLCJV9PQAVq6UTOeV7KXgY8llNU5uZmZm+vj4A8Pl8iUs2NjYgf24vKFkJiRA7N/i0ZeI77sCBAxXcrqmp6e/vf+LEiStXrqxbt66kpASFL1myBD0LTkpKyoEDBy5duuTj44MHKqiTrKuhZsO4wk/d1TBeUkCtc3Px4kWxWDx+/Hg8xNzc/Pz58wCQnJxMIUKZoC9tFD51IYYPH56dnX3w4EFDQ8OioqJJkyYpnm6trP3HjLm5OfqUjs/SwkEhEyZM6DISHR0d1FlOT0/PzMy0sbFBU+ToR86IPCLIQUsPsCtrw6zCvLy8ly9fzps3j0yKADB69Gig1IZVqpZO5JTvVdbDKJvVdLTBfyfDSizzgf++XKLxG5koVQmJGBoajhgxAv1uaWlBP4jvuGj+ChkiIyNRr8jS0nL//v3ES69fv16+fHlCQgJxOKekpETBKyvraqjZMKvwM3A1jJcUUOvcoE/OEp1EZ2dnIyMjfF0cfdAU+tTU1BcvXkhcunz58r179xTci3bz1NTU3LBhw/Pnz7/88kuBQHDq1Ck69sR1nh8/aI1DamoqMbCqqqqiosLc3Jz4b0MxfD7f19dXTU3t5MmT+OQv+pEzJQ9RWFiopaWFbx9A2YZZhfHx8ZqammgbVjLU19cDANpiX1lUqpZO5NTuVdbDKJvVdLQBwFdffQUAmZmZEuGoBBX8V1O2EhJZvXo1+oGvdXr37h36MXHiRHRcVHFx8cyZM11dXeW5x7y8vAMHDgCAoaHhpUuXiCtTBALBzJkzFy1aJBaLb9++fevWratXrx47dmzmzJmKBbOuhoINswo/D1fDbEkBUDo4E221FxwcTAzs6Ojo2bOnu7s7mRg2bNiAUld8vh2qH05OTsSdu+7fv4+fhIBGgPX09CRu9PT0FAgE+J9on/IdO3bgIQsWLAAA/Bw+xfZo/vLAgQPJPNpHQlFRkZaWFjoqDwedMrN79248JDMz88aNG/L2jxeJRDNnzlRXV//tt98oRK4Kea2trdJqx40bt3PnTqVsVKcQZ/DgwW5ubuRT3LJly+TJkzs7O8nf0j1q6RQ3NWHKehhls1opbdLynj17pqGhYWVlJVEz+/bty+FwkE9jpBISEQqFqC+C7y177tw5/L8FCsH/XRkYGLx//14ihurqavSybmFhgQ6IxhGJRAo2Pnn48KECYayrUWyjOoU4n4eroV/WElDp3LS2tjo6Ourr6xN3+D19+rSmpmZaWhqZGPBhT+KGwtIkJyejycKmpqbr1q0LDQ318vKytbXFd+zOyclB8Uicajl9+nR8k3IMw5KSkrS1tYntGa0CwKugYnsul4tk3Llzp7i4GN/o8yNn165dQDi5QyAQWFtbOzo6tra2opDq6mo0BV3mYRf5+fkjRowwNTX9448/KESuCnl1dXV6enrGxsYRERGoZYrF4uDg4Hnz5uF3kbFRnUKcvLw8kH/Ump+fn4ODQ2xsLN74k5KSOBxOTU2NUgq7Ry2ZyJkVppSH6VI8HW0y5WEYFhISAgDbtm3DQ06ePKmlpYXOgmawEhK5cOECABgbG6NN0tGyc29vb9yAeKx3RUWFxL19+vTR0NDw9/eX2OW5vb1dwUu/pqZml3uys66GdTWMqKVf1kSodG4wDKupqfH19e3Tp09wcPBvv/0WGBhob2/f5fmxGIZduXLFy8sL3z5owIABGzZsKC4ulmd/9+5dfCGAmpqaj49PZWUlunT06FF8CxxXV9fDhw/jWeDh4TF48ODFixefOXNm+/btX3755eXLl9GllJSUNWvWoM5K3759d+3axeVyFdgjkB9RU1ObOHEinWrRzURFRVlZWW3evDkiImLMmDG+vr7Eo3AaGhoMDAw0NDQyMjLwQJFIlJCQsHTpUnNz89DQUJlngpCJXBXyRCLRmDFjUInb29svW7Zs9uzZEg6RjI3qFOJs27ZNXV2dy+XKjNbX1xcp5HA4K1asWLp0aXh4OJ1/eypVSyZyxoWR9zBkxNN5Lnn5dv78eUNDQ09Pz4iIiPXr13M4nMzMTHSJ2UpIJD4+3szMbNasWSEhIbq6umvWrCFWG3xyjKenJwp58+bN+vXrbWxsHB0dd+7cWV5eLh1naGiovJ4NAHz55ZdkhLGuhnU19NV2GbNSqGE0ppK8efOmsLCwubl50KBBX3zxhfSSbKaorq6uq6sbMmSI9A4/MhGJRD179mxpaSkrK+vs7LSzs8P3LKdsX1hYaGRkhJ8k8qnQ0dGRn5//5s2bkSNHWlhYSFzl8/kikYgYfuPGDS6XO3LkyDFjxnS5tYDiyFUhD8Ow3NzcyspKU1NTDocjc3UAGRvVKUSUlJSIRCI0E0ImaBMEIyMjOzs7mlt7d4NaMpGrQhgZD0NSPGVtCuSJxeKioqKKigoOhyOxGJvZSvj/2rv/mKjrPw7gr0N+yeIkk+hSQzZMQn4oxJJx1SwmVqZlJUXUpOmacZaZjekaFmFbawm5rKxZW41lORWXVLMsho4C/IFobUgXAkcEHHccnCBw5+f7x/v7vd33ELj7fI7PvT8fn4+/7t5378/refcGfHmfH+dudHS0oaHBbrenpqaO/3N05syZoaEhvV7P/gNpsVhaW1sXL14cHh7urwATwZ8a/KmRnnbKLXtPUnMDAAAAwJvp+qwFAAAAICDQ3AAAAICqoLkBAAAAVUFzAwAAAKqC5gYAAABUBc0NAAAAqMpkV39xGRkZeeONN6Y7CgAAAMCUnnnmGddFFK/Lq+ZGEITx314JAAAAID/XF8dOBBfxAwAAAFXBMTcAAACgKl7tlrqu7u7uysrK+vp6p9OZlZWVn58/c+ZM76c7HI6Kiora2trBwcFFixatXLkyIyOjvLx8w4YNPn1Dh8Viqa6urqqqSk9Pf+mll3x/HWomCMKBAwfq6ur6+voWLVq0YcMGL78bS/RENcUTXUi2eEpJy20wKVUCssrcpuU2mJQqci4x/wmVl1bc920eP348Nja2oqLCbrfX1dVlZmamp6ebTCYvp3d3dycnJ8+ePfvtt9/++uuvt2/fPnfuXPalmBcvXvQ+Rk1NTUFBAWuq3nzzTVEvRbV6e3v1ev3y5cs7OztHR0dLSkqioqJ+/vnn6ZuopniiC8kWTylpuQ0mpUpAVpnbtNwGk1JFziXmP6ES04ppblpaWkJDQ19//XXXSG9vb0xMzB133DE0NOTNFh555BEi+v33310jfX19K1euJKLjx4/7mic/Px/NjYdr166tWLEiMjKyt7fXNfjggw9qtVqj0TgdE9UUT3Qh2eIpJS23waRUCcgqc5uW22BSqsi5xPwnVGhaMc3N6tWriai6utp9kO0Sev/996ec3t/fr9FoZs+e7TE+MDAQHx//xRdf+JqnsLAQzY2HqqoqInr66afdB7/77jsiMhgM0zFRTfFEF5Itnl/qypCW22BSqgRklblNy20wKVXkXGL+E0qvG5C0Pjc3Y2NjISEhRNTR0eE+fuzYMSK67bbbptxCfX09EWk0Go8tCILw0UcflZaW+hrJYDCgufHw0EMPEdHHH3/sPmi1WoOCgiIjIwcHB/0+UU3xRBeSLZ5S0nIbTEqVgKwyt2m5DSalipxLzH9Chab1ubn5888/2cE6HoHOnz/Pxru7uyffwj///MOeuXz5crvd7v6Q2Ww+fPjw+Ck2m62mpubo0aNtbW3jH52oubHb7SdPnvz222/Pnj07MjIyfiLbLzY2Nnbs2DGfjvXh3OjoKDsO6dy5cx4PJSYmElFFRYV/J6opnuhCssVTSlpug0mpEpBV5jYtt8GkVJFziflPqNy0Pp8KfuXKFXbj33//dR+/5ZZb2I2WlpbJt6DT6R5++GEi+vXXX/V6/YULF9w38vjjj7s/eWBgoKCg4NFHH21qaqqvr8/KykpKSjp9+vSUOffs2bNs2bLGxkatVrtjx46EhARXW/bXX3/t2rUrISEhOzu7v78/Kytr1apVycnJbW1tU25WERobG4eHh4koOjra46E5c+YQkdFo9O9ENcUTXUi2eEpJy20wKVUCssrcpuU2mJQqci4x/wmVm9bn5ubOO+9kN86dO+c+PmvWLHajr69vyo3s27ePbaexsTEtLe21116z2+3jnzY0NJSRkdHV1XXixInCwsLS0tJTp07ZbLbMzMyffvppku1XVla+8sorubm5BoMhJyenrKystbV1/fr17NH29naTydTc3CwIQnFx8Y4dOx577LGbb76Z7W5Tgc7OTnbDtSguUVFRRNTe3u7fiWqKJ7qQbPH8UleGtNwGk1IlIKvMbVpug0mpIucS859Qet1ApfW5udFqtXq9nog++eQT93GbzcZuzJ07d8qNzJs379SpU7m5uUTkcDh2796dmJjIjtpxV1JScunSpZ07dwYH//d6PLGxsaWlpQ6H48UXXxwaGppo+2fPniWiGTNmsLsJCQlz5sxpaGhwOBxE9MADD7A9WVeuXHnuuefWrFlz5MgRs9l8++23e/UWcM9isRBRUFAQO7veHfvx6ujo8O9ENcUTXUi2eEpJy20wKVUCssrcpuU2mJQqci4x/wmVm1bMFYrLy8vDwsJ++eWXzZs3m83msbGxmpoadj42EcXGxnqzkejo6AMHDvz4449xcXFE1NHRsXr16rKyMtcTBEHYu3evRqNZunSp+8R169ZptdrW1tZJPrzZunVrRUXF5s2b2V12gjoR9ff3sxH2LkdERGRkZLARjUbj3atXALaDUxCEa9eueTzkdDrJre3z10Q1xRNdSLZ4SknLbTApVQKyytym5TaYlCpyLjH/CZWbVkxzk56ezi7ct2/fvltvvTUuLu7IkSPs0jXLli1je9G8lJOTc/HixW3btmk0GkEQtm7deujQIfZQW1ub3W4PDQ0NDw93nzJz5syEhAQiampqmmizUVFReXl5N910U3Nzc1FR0fbt28fGxuh/b6VLUJA6v32CHf8kCMLg4KDHQ+wDtonWSPRENcUTXUi2eEpJy20wKVUCssrcpuU2mJQqci4x/wmVm1bkv+6pqansmxN6enpMJlNZWdnBgweJ6Nlnn/V1UxEREe+9996ePXvY3aKiInbDZDIR0cjIiNls9pgyb948murgHqPRuHbt2nfffXfbtm0ffPBBRESEr8GUKzk5md1w7St0YZ9dLVy40L8T1RRPdCHZ4vmlrgxpuQ0mpUpAVpnbtNwGk1JFziXmP6H0uoFKK+mji7CwMNZz/fbbb/X19XFxcS+88MKUs9auXSuM+ypyg8HADsExGo1sF53rBY8/iYkd+bt48eKJStTW1i5dunTBggWff/75+CO0VU+n082fP5/cjuRyYSP33nuvfyeqKZ7oQrLFU0paboNJqRKQVeY2LbfBpFSRc4n5T6jctH7YL2O1WvPy8jQazaeffurNByQ9PT2HDx8eP86OUw4LC2MHxMTExOh0OiJiFzd0x94R1+Ey423atGlwcHDjxo2ukfHtlLqtW7eOiE6ePOk+aDKZLl++rNPpMjMz/T5RTfFEF5ItnlLSchtMSpWArDK3abkNJqWKnEvMf0KFppXa3Fy9ejU/P7+9vf2zzz7Lzs72ZsrChQu3bNnS1dXlMc4Omc7KygoNDWUjO3fuJKKvvvrK/WkWi+X06dO5ublLlixhI6xxcbUvV69eZdfOuXz5MhsZHh62Wq1ENDIyct0p6rNx48aQkJATJ064D7K7hYWFrne4oaHhhx9+cH8fvJyo7niiE8oWTylpuQ3mUxUeVpnbXxlug0mJJ+cS859QqWmlXAGwqakpKSkpJibm0KFD3s8qLS0loiVLlvzxxx+uwfPnz0dGRkZGRl66dMk16HQ6c3Jy6P+vPmwwGOLj4zs7O10jTz31FBFt2bLFNcJOR7/nnnuqq6u//PLLJ598MiYmhoh279598OBBQRDYueJE1N/fL+618++tt94ioqqqKnbXZrPFxsbefffdros1d3Z2ssPU2U+h9xNvhHiiE8oWTylpuQ3mZRV+VpnbXxlug0mJJ+cS859QiWnFNDfDw8OVlZXPP/+8TqcrKSnx+AqFKX3zzTepqakFBQXx8fHZ2dmbNm1atWpVcHDw/ffff+HCBY8nO53Od955Jzo6esWKFcXFxWvWrFm/fv3AwAB79MyZMy+//DI7BGfWrFnFxcUtLS2CIBw9epTt2woPDy8oKLBara+++ioRhYSE7N+/f+/eva7jdfR6fXl5+XT/NATK/v3758+fX1RU9OGHH6alpeXl5ZnNZtejFotFq9XOmDGjrq7Op4k3SDzRCWWLp5S03AbzpgpXq8ztrwy3waTEk3OJ+U+ouLQawfddM99//31XV1dKSkpaWpqIM9TNZrPdbl+wYAERNTc3//3338HBwUlJSewIm4mwM8PvuusuL8/fttlsRqMxMTHRdSZ5S0tLdHQ0uyTijcPhcDQ1NfX09KSkpIy/SqHVah0eHr7u1Qsnn3iDxBOdULZ4PtUNYFpug3lThatV5vZXhttgUuLJucT8J/S+Lg9pxTQ3AAAAANxS51XsAAAA4IaF5gYAAABUBc0NAAAAqAqaGwAAAFAVNDcAAACgKmhuAAAAQFWCvXnS6Ojorl27pjsKAAAAwJSeeOKJlJSUSZ7gVXPjdDpra2v9FAkAAABAvPvuu2/yJ+AifgAAAKAqOOYGAAAAVAXNDQAAAKgKmhsAAABQFTQ3AAAAoCpobgAAAEBV0NwAAACAqqC5AQAAAFVBcwMAAACqguYGAAAAVAXNDQAAAKgKmhsAAABQFTQ3AAAAoCpobgAAAEBV0NwAAACAqqC5AQAAAFVBcwMAAACq8h+g0HFIzoevGwAAAABJRU5ErkJggg==;" parent="1" vertex="1">
                    <mxGeometry x="140" y="124" width="756" height="580" as="geometry"/>
                </mxCell>
                <mxCell id="Nq8qzwTheRj5d9ls6jJi-2" value="Normal US tariff (with demand charge)" style="text;html=1;align=center;verticalAlign=middle;whiteSpace=wrap;rounded=0;fillColor=#dae8fc;strokeColor=#6c8ebf;strokeWidth=2;fontSize=18;" parent="1" vertex="1">
                    <mxGeometry x="290" y="202" width="210" height="48" as="geometry"/>
                </mxCell>
                <mxCell id="Nq8qzwTheRj5d9ls6jJi-3" value="Normal US tariff (with 0 demand charge)" style="text;html=1;align=center;verticalAlign=middle;whiteSpace=wrap;rounded=0;fillColor=#d5e8d4;strokeColor=#82b366;strokeWidth=2;fontSize=15;" parent="1" vertex="1">
                    <mxGeometry x="510" y="200" width="150" height="50" as="geometry"/>
                </mxCell>
                <mxCell id="Nq8qzwTheRj5d9ls6jJi-4" value="Normal US tariff (with market solar export prices)" style="text;html=1;align=center;verticalAlign=middle;whiteSpace=wrap;rounded=0;fillColor=#e1d5e7;strokeColor=#9673a6;strokeWidth=2;fontSize=17;" parent="1" vertex="1">
                    <mxGeometry x="670" y="197" width="213" height="53" as="geometry"/>
                </mxCell>
                <mxCell id="Nq8qzwTheRj5d9ls6jJi-5" value="" style="rounded=0;whiteSpace=wrap;html=1;fillColor=none;strokeColor=#FF0000;strokeWidth=3;fontColor=#ffffff;" parent="1" vertex="1">
                    <mxGeometry x="458" y="423" width="52" height="60" as="geometry"/>
                </mxCell>
                <mxCell id="Nq8qzwTheRj5d9ls6jJi-6" value="" style="rounded=0;whiteSpace=wrap;html=1;fillColor=none;strokeColor=#FF0000;strokeWidth=3;fontColor=#ffffff;" parent="1" vertex="1">
                    <mxGeometry x="458" y="540" width="52" height="60" as="geometry"/>
                </mxCell>
                <mxCell id="Nq8qzwTheRj5d9ls6jJi-7" value="" style="rounded=0;whiteSpace=wrap;html=1;fillColor=none;strokeColor=#00FF00;strokeWidth=3;fontColor=#ffffff;" parent="1" vertex="1">
                    <mxGeometry x="457" y="312" width="52" height="60" as="geometry"/>
                </mxCell>
                <mxCell id="Nq8qzwTheRj5d9ls6jJi-8" value="" style="rounded=0;whiteSpace=wrap;html=1;fillColor=none;strokeColor=#FF0000;strokeWidth=3;fontColor=#ffffff;" parent="1" vertex="1">
                    <mxGeometry x="619" y="483" width="52" height="60" as="geometry"/>
                </mxCell>
                <mxCell id="Nq8qzwTheRj5d9ls6jJi-10" value="" style="rounded=0;whiteSpace=wrap;html=1;fillColor=none;strokeColor=#00FF00;strokeWidth=3;fontColor=#ffffff;" parent="1" vertex="1">
                    <mxGeometry x="834" y="312" width="52" height="60" as="geometry"/>
                </mxCell>
                <mxCell id="Nq8qzwTheRj5d9ls6jJi-11" value="" style="rounded=0;whiteSpace=wrap;html=1;fillColor=none;strokeColor=#FF0000;strokeWidth=3;fontColor=#ffffff;" parent="1" vertex="1">
                    <mxGeometry x="831" y="427" width="52" height="60" as="geometry"/>
                </mxCell>
                <mxCell id="Nq8qzwTheRj5d9ls6jJi-12" value="" style="rounded=0;whiteSpace=wrap;html=1;fillColor=none;strokeColor=#FF0000;strokeWidth=3;fontColor=#ffffff;" parent="1" vertex="1">
                    <mxGeometry x="831" y="600" width="52" height="30" as="geometry"/>
                </mxCell>
                <mxCell id="Nq8qzwTheRj5d9ls6jJi-13" value="" style="rounded=0;whiteSpace=wrap;html=1;fillColor=none;strokeColor=#FF0000;strokeWidth=3;fontColor=#ffffff;" parent="1" vertex="1">
                    <mxGeometry x="619" y="599" width="52" height="30" as="geometry"/>
                </mxCell>
                <mxCell id="Nq8qzwTheRj5d9ls6jJi-14" value="" style="rounded=0;whiteSpace=wrap;html=1;fillColor=none;strokeColor=#FF0000;strokeWidth=3;fontColor=#ffffff;" parent="1" vertex="1">
                    <mxGeometry x="460" y="600" width="52" height="30" as="geometry"/>
                </mxCell>
                <mxCell id="Nq8qzwTheRj5d9ls6jJi-9" value="" style="rounded=0;whiteSpace=wrap;html=1;fillColor=none;strokeColor=#00FF00;strokeWidth=3;fontColor=#ffffff;" parent="1" vertex="1">
                    <mxGeometry x="619" y="539" width="52" height="60" as="geometry"/>
                </mxCell>
            </root>
        </mxGraphModel>
    </diagram>
</mxfile>